G04 #@! TF.GenerationSoftware,KiCad,Pcbnew,8.0.0-8.0.0-1~ubuntu22.04.1*
G04 #@! TF.CreationDate,2024-03-04T18:16:00+01:00*
G04 #@! TF.ProjectId,1x1_panel,3178315f-7061-46e6-956c-2e6b69636164,rev?*
G04 #@! TF.SameCoordinates,Original*
G04 #@! TF.FileFunction,Copper,L2,Bot*
G04 #@! TF.FilePolarity,Positive*
%FSLAX46Y46*%
G04 Gerber Fmt 4.6, Leading zero omitted, Abs format (unit mm)*
G04 Created by KiCad (PCBNEW 8.0.0-8.0.0-1~ubuntu22.04.1) date 2024-03-04 18:16:00*
%MOMM*%
%LPD*%
G01*
G04 APERTURE LIST*
G04 #@! TA.AperFunction,ComponentPad*
%ADD10R,1.700000X1.700000*%
G04 #@! TD*
G04 #@! TA.AperFunction,ComponentPad*
%ADD11O,1.700000X1.700000*%
G04 #@! TD*
G04 #@! TA.AperFunction,ComponentPad*
%ADD12C,2.500000*%
G04 #@! TD*
G04 #@! TA.AperFunction,ViaPad*
%ADD13C,0.900000*%
G04 #@! TD*
G04 #@! TA.AperFunction,Conductor*
%ADD14C,0.500000*%
G04 #@! TD*
G04 #@! TA.AperFunction,Conductor*
%ADD15C,0.300000*%
G04 #@! TD*
G04 APERTURE END LIST*
D10*
X23950000Y-9540000D03*
D11*
X23950000Y-7000000D03*
X26490000Y-9540000D03*
X26490000Y-7000000D03*
X29030000Y-9540000D03*
X29030000Y-7000000D03*
X31570000Y-9540000D03*
X31570000Y-7000000D03*
D12*
X23815000Y-4210000D03*
X30165000Y-1670000D03*
D10*
X82450000Y-87540000D03*
D11*
X82450000Y-85000000D03*
X84990000Y-87540000D03*
X84990000Y-85000000D03*
X87530000Y-87540000D03*
X87530000Y-85000000D03*
X90070000Y-87540000D03*
X90070000Y-85000000D03*
D12*
X82315000Y-82210000D03*
X88665000Y-79670000D03*
D10*
X62950000Y-87540000D03*
D11*
X62950000Y-85000000D03*
X65490000Y-87540000D03*
X65490000Y-85000000D03*
X68030000Y-87540000D03*
X68030000Y-85000000D03*
X70570000Y-87540000D03*
X70570000Y-85000000D03*
D12*
X62815000Y-82210000D03*
X69165000Y-79670000D03*
D10*
X43450000Y-87540000D03*
D11*
X43450000Y-85000000D03*
X45990000Y-87540000D03*
X45990000Y-85000000D03*
X48530000Y-87540000D03*
X48530000Y-85000000D03*
X51070000Y-87540000D03*
X51070000Y-85000000D03*
D12*
X43315000Y-82210000D03*
X49665000Y-79670000D03*
D10*
X23950000Y-87540000D03*
D11*
X23950000Y-85000000D03*
X26490000Y-87540000D03*
X26490000Y-85000000D03*
X29030000Y-87540000D03*
X29030000Y-85000000D03*
X31570000Y-87540000D03*
X31570000Y-85000000D03*
D12*
X23815000Y-82210000D03*
X30165000Y-79670000D03*
D10*
X4450000Y-87540000D03*
D11*
X4450000Y-85000000D03*
X6990000Y-87540000D03*
X6990000Y-85000000D03*
X9530000Y-87540000D03*
X9530000Y-85000000D03*
X12070000Y-87540000D03*
X12070000Y-85000000D03*
D12*
X4315000Y-82210000D03*
X10665000Y-79670000D03*
D10*
X82450000Y-68040000D03*
D11*
X82450000Y-65500000D03*
X84990000Y-68040000D03*
X84990000Y-65500000D03*
X87530000Y-68040000D03*
X87530000Y-65500000D03*
X90070000Y-68040000D03*
X90070000Y-65500000D03*
D12*
X82315000Y-62710000D03*
X88665000Y-60170000D03*
D10*
X62950000Y-68040000D03*
D11*
X62950000Y-65500000D03*
X65490000Y-68040000D03*
X65490000Y-65500000D03*
X68030000Y-68040000D03*
X68030000Y-65500000D03*
X70570000Y-68040000D03*
X70570000Y-65500000D03*
D12*
X62815000Y-62710000D03*
X69165000Y-60170000D03*
D10*
X43450000Y-68040000D03*
D11*
X43450000Y-65500000D03*
X45990000Y-68040000D03*
X45990000Y-65500000D03*
X48530000Y-68040000D03*
X48530000Y-65500000D03*
X51070000Y-68040000D03*
X51070000Y-65500000D03*
D12*
X43315000Y-62710000D03*
X49665000Y-60170000D03*
D10*
X23950000Y-68040000D03*
D11*
X23950000Y-65500000D03*
X26490000Y-68040000D03*
X26490000Y-65500000D03*
X29030000Y-68040000D03*
X29030000Y-65500000D03*
X31570000Y-68040000D03*
X31570000Y-65500000D03*
D12*
X23815000Y-62710000D03*
X30165000Y-60170000D03*
D10*
X4450000Y-68040000D03*
D11*
X4450000Y-65500000D03*
X6990000Y-68040000D03*
X6990000Y-65500000D03*
X9530000Y-68040000D03*
X9530000Y-65500000D03*
X12070000Y-68040000D03*
X12070000Y-65500000D03*
D12*
X4315000Y-62710000D03*
X10665000Y-60170000D03*
D10*
X82450000Y-48540000D03*
D11*
X82450000Y-46000000D03*
X84990000Y-48540000D03*
X84990000Y-46000000D03*
X87530000Y-48540000D03*
X87530000Y-46000000D03*
X90070000Y-48540000D03*
X90070000Y-46000000D03*
D12*
X82315000Y-43210000D03*
X88665000Y-40670000D03*
D10*
X62950000Y-48540000D03*
D11*
X62950000Y-46000000D03*
X65490000Y-48540000D03*
X65490000Y-46000000D03*
X68030000Y-48540000D03*
X68030000Y-46000000D03*
X70570000Y-48540000D03*
X70570000Y-46000000D03*
D12*
X62815000Y-43210000D03*
X69165000Y-40670000D03*
D10*
X43450000Y-48540000D03*
D11*
X43450000Y-46000000D03*
X45990000Y-48540000D03*
X45990000Y-46000000D03*
X48530000Y-48540000D03*
X48530000Y-46000000D03*
X51070000Y-48540000D03*
X51070000Y-46000000D03*
D12*
X43315000Y-43210000D03*
X49665000Y-40670000D03*
D10*
X23950000Y-48540000D03*
D11*
X23950000Y-46000000D03*
X26490000Y-48540000D03*
X26490000Y-46000000D03*
X29030000Y-48540000D03*
X29030000Y-46000000D03*
X31570000Y-48540000D03*
X31570000Y-46000000D03*
D12*
X23815000Y-43210000D03*
X30165000Y-40670000D03*
D10*
X4450000Y-48540000D03*
D11*
X4450000Y-46000000D03*
X6990000Y-48540000D03*
X6990000Y-46000000D03*
X9530000Y-48540000D03*
X9530000Y-46000000D03*
X12070000Y-48540000D03*
X12070000Y-46000000D03*
D12*
X4315000Y-43210000D03*
X10665000Y-40670000D03*
D10*
X82450000Y-29040000D03*
D11*
X82450000Y-26500000D03*
X84990000Y-29040000D03*
X84990000Y-26500000D03*
X87530000Y-29040000D03*
X87530000Y-26500000D03*
X90070000Y-29040000D03*
X90070000Y-26500000D03*
D12*
X82315000Y-23710000D03*
X88665000Y-21170000D03*
D10*
X62950000Y-29040000D03*
D11*
X62950000Y-26500000D03*
X65490000Y-29040000D03*
X65490000Y-26500000D03*
X68030000Y-29040000D03*
X68030000Y-26500000D03*
X70570000Y-29040000D03*
X70570000Y-26500000D03*
D12*
X62815000Y-23710000D03*
X69165000Y-21170000D03*
D10*
X43450000Y-29040000D03*
D11*
X43450000Y-26500000D03*
X45990000Y-29040000D03*
X45990000Y-26500000D03*
X48530000Y-29040000D03*
X48530000Y-26500000D03*
X51070000Y-29040000D03*
X51070000Y-26500000D03*
D12*
X43315000Y-23710000D03*
X49665000Y-21170000D03*
D10*
X23950000Y-29040000D03*
D11*
X23950000Y-26500000D03*
X26490000Y-29040000D03*
X26490000Y-26500000D03*
X29030000Y-29040000D03*
X29030000Y-26500000D03*
X31570000Y-29040000D03*
X31570000Y-26500000D03*
D12*
X23815000Y-23710000D03*
X30165000Y-21170000D03*
D10*
X4450000Y-29040000D03*
D11*
X4450000Y-26500000D03*
X6990000Y-29040000D03*
X6990000Y-26500000D03*
X9530000Y-29040000D03*
X9530000Y-26500000D03*
X12070000Y-29040000D03*
X12070000Y-26500000D03*
D12*
X4315000Y-23710000D03*
X10665000Y-21170000D03*
D10*
X82450000Y-9540000D03*
D11*
X82450000Y-7000000D03*
X84990000Y-9540000D03*
X84990000Y-7000000D03*
X87530000Y-9540000D03*
X87530000Y-7000000D03*
X90070000Y-9540000D03*
X90070000Y-7000000D03*
D12*
X82315000Y-4210000D03*
X88665000Y-1670000D03*
D10*
X62950000Y-9540000D03*
D11*
X62950000Y-7000000D03*
X65490000Y-9540000D03*
X65490000Y-7000000D03*
X68030000Y-9540000D03*
X68030000Y-7000000D03*
X70570000Y-9540000D03*
X70570000Y-7000000D03*
D12*
X62815000Y-4210000D03*
X69165000Y-1670000D03*
D10*
X43450000Y-9540000D03*
D11*
X43450000Y-7000000D03*
X45990000Y-9540000D03*
X45990000Y-7000000D03*
X48530000Y-9540000D03*
X48530000Y-7000000D03*
X51070000Y-9540000D03*
X51070000Y-7000000D03*
D12*
X43315000Y-4210000D03*
X49665000Y-1670000D03*
X4315000Y-4210000D03*
X10665000Y-1670000D03*
D10*
X4450000Y-9540000D03*
D11*
X4450000Y-7000000D03*
X6990000Y-9540000D03*
X6990000Y-7000000D03*
X9530000Y-9540000D03*
X9530000Y-7000000D03*
X12070000Y-9540000D03*
X12070000Y-7000000D03*
D13*
X21000000Y-9750000D03*
X79500000Y-87750000D03*
X60000000Y-87750000D03*
X40500000Y-87750000D03*
X21000000Y-87750000D03*
X1500000Y-87750000D03*
X79500000Y-68250000D03*
X60000000Y-68250000D03*
X40500000Y-68250000D03*
X21000000Y-68250000D03*
X1500000Y-68250000D03*
X79500000Y-48750000D03*
X60000000Y-48750000D03*
X40500000Y-48750000D03*
X21000000Y-48750000D03*
X1500000Y-48750000D03*
X79500000Y-29250000D03*
X60000000Y-29250000D03*
X40500000Y-29250000D03*
X21000000Y-29250000D03*
X1500000Y-29250000D03*
X79500000Y-9750000D03*
X60000000Y-9750000D03*
X40500000Y-9750000D03*
X1500000Y-9750000D03*
D14*
X21000000Y-9750000D02*
X23740000Y-9750000D01*
X23740000Y-9750000D02*
X23950000Y-9540000D01*
D15*
X26490000Y-7000000D02*
X23815000Y-4325000D01*
X23815000Y-4325000D02*
X23815000Y-4210000D01*
X29030000Y-2805000D02*
X30165000Y-1670000D01*
X29030000Y-7000000D02*
X29030000Y-2805000D01*
X84990000Y-85000000D02*
X82315000Y-82325000D01*
D14*
X79500000Y-87750000D02*
X82240000Y-87750000D01*
X82240000Y-87750000D02*
X82450000Y-87540000D01*
D15*
X82315000Y-82325000D02*
X82315000Y-82210000D01*
X87530000Y-80805000D02*
X88665000Y-79670000D01*
X87530000Y-85000000D02*
X87530000Y-80805000D01*
D14*
X60000000Y-87750000D02*
X62740000Y-87750000D01*
X62740000Y-87750000D02*
X62950000Y-87540000D01*
D15*
X65490000Y-85000000D02*
X62815000Y-82325000D01*
X62815000Y-82325000D02*
X62815000Y-82210000D01*
X68030000Y-80805000D02*
X69165000Y-79670000D01*
X68030000Y-85000000D02*
X68030000Y-80805000D01*
X45990000Y-85000000D02*
X43315000Y-82325000D01*
D14*
X43240000Y-87750000D02*
X43450000Y-87540000D01*
X40500000Y-87750000D02*
X43240000Y-87750000D01*
D15*
X43315000Y-82325000D02*
X43315000Y-82210000D01*
X48530000Y-80805000D02*
X49665000Y-79670000D01*
X48530000Y-85000000D02*
X48530000Y-80805000D01*
D14*
X21000000Y-87750000D02*
X23740000Y-87750000D01*
X23740000Y-87750000D02*
X23950000Y-87540000D01*
D15*
X26490000Y-85000000D02*
X23815000Y-82325000D01*
X23815000Y-82325000D02*
X23815000Y-82210000D01*
X29030000Y-80805000D02*
X30165000Y-79670000D01*
X29030000Y-85000000D02*
X29030000Y-80805000D01*
D14*
X4240000Y-87750000D02*
X4450000Y-87540000D01*
X1500000Y-87750000D02*
X4240000Y-87750000D01*
D15*
X4315000Y-82325000D02*
X4315000Y-82210000D01*
X6990000Y-85000000D02*
X4315000Y-82325000D01*
X9530000Y-80805000D02*
X10665000Y-79670000D01*
X9530000Y-85000000D02*
X9530000Y-80805000D01*
X84990000Y-65500000D02*
X82315000Y-62825000D01*
D14*
X79500000Y-68250000D02*
X82240000Y-68250000D01*
X82240000Y-68250000D02*
X82450000Y-68040000D01*
D15*
X82315000Y-62825000D02*
X82315000Y-62710000D01*
X87530000Y-61305000D02*
X88665000Y-60170000D01*
X87530000Y-65500000D02*
X87530000Y-61305000D01*
D14*
X60000000Y-68250000D02*
X62740000Y-68250000D01*
D15*
X68030000Y-61305000D02*
X69165000Y-60170000D01*
D14*
X62740000Y-68250000D02*
X62950000Y-68040000D01*
D15*
X62815000Y-62825000D02*
X62815000Y-62710000D01*
X65490000Y-65500000D02*
X62815000Y-62825000D01*
X68030000Y-65500000D02*
X68030000Y-61305000D01*
D14*
X40500000Y-68250000D02*
X43240000Y-68250000D01*
X43240000Y-68250000D02*
X43450000Y-68040000D01*
D15*
X45990000Y-65500000D02*
X43315000Y-62825000D01*
X43315000Y-62825000D02*
X43315000Y-62710000D01*
X48530000Y-61305000D02*
X49665000Y-60170000D01*
X48530000Y-65500000D02*
X48530000Y-61305000D01*
D14*
X21000000Y-68250000D02*
X23740000Y-68250000D01*
X23740000Y-68250000D02*
X23950000Y-68040000D01*
D15*
X26490000Y-65500000D02*
X23815000Y-62825000D01*
X23815000Y-62825000D02*
X23815000Y-62710000D01*
X29030000Y-61305000D02*
X30165000Y-60170000D01*
X29030000Y-65500000D02*
X29030000Y-61305000D01*
D14*
X1500000Y-68250000D02*
X4240000Y-68250000D01*
X4240000Y-68250000D02*
X4450000Y-68040000D01*
D15*
X6990000Y-65500000D02*
X4315000Y-62825000D01*
X4315000Y-62825000D02*
X4315000Y-62710000D01*
X9530000Y-61305000D02*
X10665000Y-60170000D01*
X9530000Y-65500000D02*
X9530000Y-61305000D01*
X87530000Y-46000000D02*
X87530000Y-41805000D01*
D14*
X79500000Y-48750000D02*
X82240000Y-48750000D01*
X82240000Y-48750000D02*
X82450000Y-48540000D01*
D15*
X84990000Y-46000000D02*
X82315000Y-43325000D01*
X82315000Y-43325000D02*
X82315000Y-43210000D01*
X87530000Y-41805000D02*
X88665000Y-40670000D01*
X62815000Y-43325000D02*
X62815000Y-43210000D01*
D14*
X60000000Y-48750000D02*
X62740000Y-48750000D01*
X62740000Y-48750000D02*
X62950000Y-48540000D01*
D15*
X65490000Y-46000000D02*
X62815000Y-43325000D01*
X68030000Y-41805000D02*
X69165000Y-40670000D01*
X68030000Y-46000000D02*
X68030000Y-41805000D01*
D14*
X40500000Y-48750000D02*
X43240000Y-48750000D01*
X43240000Y-48750000D02*
X43450000Y-48540000D01*
D15*
X45990000Y-46000000D02*
X43315000Y-43325000D01*
X43315000Y-43325000D02*
X43315000Y-43210000D01*
X48530000Y-41805000D02*
X49665000Y-40670000D01*
X48530000Y-46000000D02*
X48530000Y-41805000D01*
X29030000Y-46000000D02*
X29030000Y-41805000D01*
X26490000Y-46000000D02*
X23815000Y-43325000D01*
X23815000Y-43325000D02*
X23815000Y-43210000D01*
D14*
X21000000Y-48750000D02*
X23740000Y-48750000D01*
X23740000Y-48750000D02*
X23950000Y-48540000D01*
D15*
X29030000Y-41805000D02*
X30165000Y-40670000D01*
D14*
X1500000Y-48750000D02*
X4240000Y-48750000D01*
X4240000Y-48750000D02*
X4450000Y-48540000D01*
D15*
X6990000Y-46000000D02*
X4315000Y-43325000D01*
X4315000Y-43325000D02*
X4315000Y-43210000D01*
X9530000Y-41805000D02*
X10665000Y-40670000D01*
X9530000Y-46000000D02*
X9530000Y-41805000D01*
X87530000Y-26500000D02*
X87530000Y-22305000D01*
D14*
X79500000Y-29250000D02*
X82240000Y-29250000D01*
X82240000Y-29250000D02*
X82450000Y-29040000D01*
D15*
X84990000Y-26500000D02*
X82315000Y-23825000D01*
X82315000Y-23825000D02*
X82315000Y-23710000D01*
X87530000Y-22305000D02*
X88665000Y-21170000D01*
X68030000Y-26500000D02*
X68030000Y-22305000D01*
D14*
X60000000Y-29250000D02*
X62740000Y-29250000D01*
X62740000Y-29250000D02*
X62950000Y-29040000D01*
D15*
X68030000Y-22305000D02*
X69165000Y-21170000D01*
X65490000Y-26500000D02*
X62815000Y-23825000D01*
X62815000Y-23825000D02*
X62815000Y-23710000D01*
D14*
X40500000Y-29250000D02*
X43240000Y-29250000D01*
X43240000Y-29250000D02*
X43450000Y-29040000D01*
D15*
X45990000Y-26500000D02*
X43315000Y-23825000D01*
X43315000Y-23825000D02*
X43315000Y-23710000D01*
X48530000Y-22305000D02*
X49665000Y-21170000D01*
X48530000Y-26500000D02*
X48530000Y-22305000D01*
X29030000Y-22305000D02*
X30165000Y-21170000D01*
X23815000Y-23825000D02*
X23815000Y-23710000D01*
D14*
X21000000Y-29250000D02*
X23740000Y-29250000D01*
X23740000Y-29250000D02*
X23950000Y-29040000D01*
D15*
X26490000Y-26500000D02*
X23815000Y-23825000D01*
X29030000Y-26500000D02*
X29030000Y-22305000D01*
D14*
X4240000Y-29250000D02*
X4450000Y-29040000D01*
D15*
X4315000Y-23825000D02*
X4315000Y-23710000D01*
D14*
X1500000Y-29250000D02*
X4240000Y-29250000D01*
D15*
X6990000Y-26500000D02*
X4315000Y-23825000D01*
X9530000Y-22305000D02*
X10665000Y-21170000D01*
X9530000Y-26500000D02*
X9530000Y-22305000D01*
D14*
X79500000Y-9750000D02*
X82240000Y-9750000D01*
X82240000Y-9750000D02*
X82450000Y-9540000D01*
D15*
X82315000Y-4325000D02*
X82315000Y-4210000D01*
X84990000Y-7000000D02*
X82315000Y-4325000D01*
X87530000Y-2805000D02*
X88665000Y-1670000D01*
X87530000Y-7000000D02*
X87530000Y-2805000D01*
D14*
X60000000Y-9750000D02*
X62740000Y-9750000D01*
X62740000Y-9750000D02*
X62950000Y-9540000D01*
D15*
X62815000Y-4325000D02*
X62815000Y-4210000D01*
X65490000Y-7000000D02*
X62815000Y-4325000D01*
X68030000Y-2805000D02*
X69165000Y-1670000D01*
X68030000Y-7000000D02*
X68030000Y-2805000D01*
D14*
X40500000Y-9750000D02*
X43240000Y-9750000D01*
X43240000Y-9750000D02*
X43450000Y-9540000D01*
D15*
X45990000Y-7000000D02*
X43315000Y-4325000D01*
X43315000Y-4325000D02*
X43315000Y-4210000D01*
X48530000Y-2805000D02*
X49665000Y-1670000D01*
X48530000Y-7000000D02*
X48530000Y-2805000D01*
X6990000Y-7000000D02*
X4315000Y-4325000D01*
X4315000Y-4325000D02*
X4315000Y-4210000D01*
X9530000Y-7000000D02*
X9530000Y-2805000D01*
X9530000Y-2805000D02*
X10665000Y-1670000D01*
D14*
X1500000Y-9750000D02*
X4240000Y-9750000D01*
X4240000Y-9750000D02*
X4450000Y-9540000D01*
M02*
