G04 #@! TF.GenerationSoftware,KiCad,Pcbnew,8.0.0-8.0.0-1~ubuntu22.04.1*
G04 #@! TF.CreationDate,2024-03-04T18:16:00+01:00*
G04 #@! TF.ProjectId,1x1_panel,3178315f-7061-46e6-956c-2e6b69636164,rev?*
G04 #@! TF.SameCoordinates,Original*
G04 #@! TF.FileFunction,Copper,L1,Top*
G04 #@! TF.FilePolarity,Positive*
%FSLAX46Y46*%
G04 Gerber Fmt 4.6, Leading zero omitted, Abs format (unit mm)*
G04 Created by KiCad (PCBNEW 8.0.0-8.0.0-1~ubuntu22.04.1) date 2024-03-04 18:16:00*
%MOMM*%
%LPD*%
G01*
G04 APERTURE LIST*
G04 #@! TA.AperFunction,ComponentPad*
%ADD10R,1.700000X1.700000*%
G04 #@! TD*
G04 #@! TA.AperFunction,ComponentPad*
%ADD11O,1.700000X1.700000*%
G04 #@! TD*
G04 #@! TA.AperFunction,SMDPad,CuDef*
%ADD12R,1.500000X1.500000*%
G04 #@! TD*
G04 #@! TA.AperFunction,ComponentPad*
%ADD13C,2.500000*%
G04 #@! TD*
G04 #@! TA.AperFunction,ViaPad*
%ADD14C,0.900000*%
G04 #@! TD*
G04 #@! TA.AperFunction,Conductor*
%ADD15C,0.500000*%
G04 #@! TD*
G04 #@! TA.AperFunction,Conductor*
%ADD16C,0.300000*%
G04 #@! TD*
G04 APERTURE END LIST*
D10*
X23950000Y-9540000D03*
D11*
X23950000Y-7000000D03*
X26490000Y-9540000D03*
X26490000Y-7000000D03*
X29030000Y-9540000D03*
X29030000Y-7000000D03*
X31570000Y-9540000D03*
X31570000Y-7000000D03*
D12*
X25250000Y-12500000D03*
X30250000Y-12500000D03*
D13*
X23815000Y-4210000D03*
X30165000Y-1670000D03*
D12*
X27750000Y-12500000D03*
D10*
X82450000Y-87540000D03*
D11*
X82450000Y-85000000D03*
X84990000Y-87540000D03*
X84990000Y-85000000D03*
X87530000Y-87540000D03*
X87530000Y-85000000D03*
X90070000Y-87540000D03*
X90070000Y-85000000D03*
D12*
X83750000Y-90500000D03*
X88750000Y-90500000D03*
D13*
X82315000Y-82210000D03*
X88665000Y-79670000D03*
D12*
X86250000Y-90500000D03*
D10*
X62950000Y-87540000D03*
D11*
X62950000Y-85000000D03*
X65490000Y-87540000D03*
X65490000Y-85000000D03*
X68030000Y-87540000D03*
X68030000Y-85000000D03*
X70570000Y-87540000D03*
X70570000Y-85000000D03*
D12*
X66750000Y-90500000D03*
X64250000Y-90500000D03*
X69250000Y-90500000D03*
D13*
X62815000Y-82210000D03*
X69165000Y-79670000D03*
D10*
X43450000Y-87540000D03*
D11*
X43450000Y-85000000D03*
X45990000Y-87540000D03*
X45990000Y-85000000D03*
X48530000Y-87540000D03*
X48530000Y-85000000D03*
X51070000Y-87540000D03*
X51070000Y-85000000D03*
D12*
X44750000Y-90500000D03*
X49750000Y-90500000D03*
D13*
X43315000Y-82210000D03*
X49665000Y-79670000D03*
D12*
X47250000Y-90500000D03*
D10*
X23950000Y-87540000D03*
D11*
X23950000Y-85000000D03*
X26490000Y-87540000D03*
X26490000Y-85000000D03*
X29030000Y-87540000D03*
X29030000Y-85000000D03*
X31570000Y-87540000D03*
X31570000Y-85000000D03*
D12*
X25250000Y-90500000D03*
X30250000Y-90500000D03*
X27750000Y-90500000D03*
D13*
X23815000Y-82210000D03*
X30165000Y-79670000D03*
D10*
X4450000Y-87540000D03*
D11*
X4450000Y-85000000D03*
X6990000Y-87540000D03*
X6990000Y-85000000D03*
X9530000Y-87540000D03*
X9530000Y-85000000D03*
X12070000Y-87540000D03*
X12070000Y-85000000D03*
D13*
X4315000Y-82210000D03*
X10665000Y-79670000D03*
D12*
X8250000Y-90500000D03*
X5750000Y-90500000D03*
X10750000Y-90500000D03*
X86250000Y-71000000D03*
D10*
X82450000Y-68040000D03*
D11*
X82450000Y-65500000D03*
X84990000Y-68040000D03*
X84990000Y-65500000D03*
X87530000Y-68040000D03*
X87530000Y-65500000D03*
X90070000Y-68040000D03*
X90070000Y-65500000D03*
D12*
X83750000Y-71000000D03*
X88750000Y-71000000D03*
D13*
X82315000Y-62710000D03*
X88665000Y-60170000D03*
D10*
X62950000Y-68040000D03*
D11*
X62950000Y-65500000D03*
X65490000Y-68040000D03*
X65490000Y-65500000D03*
X68030000Y-68040000D03*
X68030000Y-65500000D03*
X70570000Y-68040000D03*
X70570000Y-65500000D03*
D13*
X62815000Y-62710000D03*
X69165000Y-60170000D03*
D12*
X64250000Y-71000000D03*
X69250000Y-71000000D03*
X66750000Y-71000000D03*
D10*
X43450000Y-68040000D03*
D11*
X43450000Y-65500000D03*
X45990000Y-68040000D03*
X45990000Y-65500000D03*
X48530000Y-68040000D03*
X48530000Y-65500000D03*
X51070000Y-68040000D03*
X51070000Y-65500000D03*
D12*
X47250000Y-71000000D03*
X44750000Y-71000000D03*
X49750000Y-71000000D03*
D13*
X43315000Y-62710000D03*
X49665000Y-60170000D03*
D10*
X23950000Y-68040000D03*
D11*
X23950000Y-65500000D03*
X26490000Y-68040000D03*
X26490000Y-65500000D03*
X29030000Y-68040000D03*
X29030000Y-65500000D03*
X31570000Y-68040000D03*
X31570000Y-65500000D03*
D12*
X25250000Y-71000000D03*
X30250000Y-71000000D03*
D13*
X23815000Y-62710000D03*
X30165000Y-60170000D03*
D12*
X27750000Y-71000000D03*
D10*
X4450000Y-68040000D03*
D11*
X4450000Y-65500000D03*
X6990000Y-68040000D03*
X6990000Y-65500000D03*
X9530000Y-68040000D03*
X9530000Y-65500000D03*
X12070000Y-68040000D03*
X12070000Y-65500000D03*
D12*
X5750000Y-71000000D03*
X10750000Y-71000000D03*
D13*
X4315000Y-62710000D03*
X10665000Y-60170000D03*
D12*
X8250000Y-71000000D03*
D10*
X82450000Y-48540000D03*
D11*
X82450000Y-46000000D03*
X84990000Y-48540000D03*
X84990000Y-46000000D03*
X87530000Y-48540000D03*
X87530000Y-46000000D03*
X90070000Y-48540000D03*
X90070000Y-46000000D03*
D12*
X83750000Y-51500000D03*
D13*
X82315000Y-43210000D03*
X88665000Y-40670000D03*
D12*
X88750000Y-51500000D03*
X86250000Y-51500000D03*
D10*
X62950000Y-48540000D03*
D11*
X62950000Y-46000000D03*
X65490000Y-48540000D03*
X65490000Y-46000000D03*
X68030000Y-48540000D03*
X68030000Y-46000000D03*
X70570000Y-48540000D03*
X70570000Y-46000000D03*
D12*
X66750000Y-51500000D03*
D13*
X62815000Y-43210000D03*
X69165000Y-40670000D03*
D12*
X64250000Y-51500000D03*
X69250000Y-51500000D03*
D10*
X43450000Y-48540000D03*
D11*
X43450000Y-46000000D03*
X45990000Y-48540000D03*
X45990000Y-46000000D03*
X48530000Y-48540000D03*
X48530000Y-46000000D03*
X51070000Y-48540000D03*
X51070000Y-46000000D03*
D12*
X49750000Y-51500000D03*
X44750000Y-51500000D03*
D13*
X43315000Y-43210000D03*
X49665000Y-40670000D03*
D12*
X47250000Y-51500000D03*
D10*
X23950000Y-48540000D03*
D11*
X23950000Y-46000000D03*
X26490000Y-48540000D03*
X26490000Y-46000000D03*
X29030000Y-48540000D03*
X29030000Y-46000000D03*
X31570000Y-48540000D03*
X31570000Y-46000000D03*
D12*
X25250000Y-51500000D03*
X30250000Y-51500000D03*
D13*
X23815000Y-43210000D03*
X30165000Y-40670000D03*
D12*
X27750000Y-51500000D03*
D10*
X4450000Y-48540000D03*
D11*
X4450000Y-46000000D03*
X6990000Y-48540000D03*
X6990000Y-46000000D03*
X9530000Y-48540000D03*
X9530000Y-46000000D03*
X12070000Y-48540000D03*
X12070000Y-46000000D03*
D12*
X5750000Y-51500000D03*
X10750000Y-51500000D03*
D13*
X4315000Y-43210000D03*
X10665000Y-40670000D03*
D12*
X8250000Y-51500000D03*
D10*
X82450000Y-29040000D03*
D11*
X82450000Y-26500000D03*
X84990000Y-29040000D03*
X84990000Y-26500000D03*
X87530000Y-29040000D03*
X87530000Y-26500000D03*
X90070000Y-29040000D03*
X90070000Y-26500000D03*
D12*
X88750000Y-32000000D03*
X83750000Y-32000000D03*
X86250000Y-32000000D03*
D13*
X82315000Y-23710000D03*
X88665000Y-21170000D03*
D12*
X69250000Y-32000000D03*
D10*
X62950000Y-29040000D03*
D11*
X62950000Y-26500000D03*
X65490000Y-29040000D03*
X65490000Y-26500000D03*
X68030000Y-29040000D03*
X68030000Y-26500000D03*
X70570000Y-29040000D03*
X70570000Y-26500000D03*
D12*
X64250000Y-32000000D03*
D13*
X62815000Y-23710000D03*
X69165000Y-21170000D03*
D12*
X66750000Y-32000000D03*
D10*
X43450000Y-29040000D03*
D11*
X43450000Y-26500000D03*
X45990000Y-29040000D03*
X45990000Y-26500000D03*
X48530000Y-29040000D03*
X48530000Y-26500000D03*
X51070000Y-29040000D03*
X51070000Y-26500000D03*
D13*
X43315000Y-23710000D03*
X49665000Y-21170000D03*
D12*
X44750000Y-32000000D03*
X49750000Y-32000000D03*
X47250000Y-32000000D03*
D10*
X23950000Y-29040000D03*
D11*
X23950000Y-26500000D03*
X26490000Y-29040000D03*
X26490000Y-26500000D03*
X29030000Y-29040000D03*
X29030000Y-26500000D03*
X31570000Y-29040000D03*
X31570000Y-26500000D03*
D12*
X25250000Y-32000000D03*
X30250000Y-32000000D03*
D13*
X23815000Y-23710000D03*
X30165000Y-21170000D03*
D12*
X27750000Y-32000000D03*
D10*
X4450000Y-29040000D03*
D11*
X4450000Y-26500000D03*
X6990000Y-29040000D03*
X6990000Y-26500000D03*
X9530000Y-29040000D03*
X9530000Y-26500000D03*
X12070000Y-29040000D03*
X12070000Y-26500000D03*
D12*
X8250000Y-32000000D03*
X5750000Y-32000000D03*
X10750000Y-32000000D03*
D13*
X4315000Y-23710000D03*
X10665000Y-21170000D03*
D10*
X82450000Y-9540000D03*
D11*
X82450000Y-7000000D03*
X84990000Y-9540000D03*
X84990000Y-7000000D03*
X87530000Y-9540000D03*
X87530000Y-7000000D03*
X90070000Y-9540000D03*
X90070000Y-7000000D03*
D12*
X83750000Y-12500000D03*
X88750000Y-12500000D03*
D13*
X82315000Y-4210000D03*
X88665000Y-1670000D03*
D12*
X86250000Y-12500000D03*
D10*
X62950000Y-9540000D03*
D11*
X62950000Y-7000000D03*
X65490000Y-9540000D03*
X65490000Y-7000000D03*
X68030000Y-9540000D03*
X68030000Y-7000000D03*
X70570000Y-9540000D03*
X70570000Y-7000000D03*
D13*
X62815000Y-4210000D03*
X69165000Y-1670000D03*
D12*
X64250000Y-12500000D03*
X69250000Y-12500000D03*
X66750000Y-12500000D03*
D10*
X43450000Y-9540000D03*
D11*
X43450000Y-7000000D03*
X45990000Y-9540000D03*
X45990000Y-7000000D03*
X48530000Y-9540000D03*
X48530000Y-7000000D03*
X51070000Y-9540000D03*
X51070000Y-7000000D03*
D12*
X49750000Y-12500000D03*
X44750000Y-12500000D03*
D13*
X43315000Y-4210000D03*
X49665000Y-1670000D03*
D12*
X47250000Y-12500000D03*
X10750000Y-12500000D03*
X5750000Y-12500000D03*
X8250000Y-12500000D03*
D13*
X4315000Y-4210000D03*
X10665000Y-1670000D03*
D10*
X4450000Y-9540000D03*
D11*
X4450000Y-7000000D03*
X6990000Y-9540000D03*
X6990000Y-7000000D03*
X9530000Y-9540000D03*
X9530000Y-7000000D03*
X12070000Y-9540000D03*
X12070000Y-7000000D03*
D14*
X21000000Y-9750000D03*
X79500000Y-87750000D03*
X60000000Y-87750000D03*
X40500000Y-87750000D03*
X21000000Y-87750000D03*
X1500000Y-87750000D03*
X79500000Y-68250000D03*
X60000000Y-68250000D03*
X40500000Y-68250000D03*
X21000000Y-68250000D03*
X1500000Y-68250000D03*
X79500000Y-48750000D03*
X60000000Y-48750000D03*
X40500000Y-48750000D03*
X21000000Y-48750000D03*
X1500000Y-48750000D03*
X79500000Y-29250000D03*
X60000000Y-29250000D03*
X40500000Y-29250000D03*
X21000000Y-29250000D03*
X1500000Y-29250000D03*
X79500000Y-9750000D03*
X60000000Y-9750000D03*
X40500000Y-9750000D03*
X1500000Y-9750000D03*
D15*
X30250000Y-13750000D02*
X29500000Y-14500000D01*
X20750000Y-12000000D02*
X20750000Y-10000000D01*
X29500000Y-14500000D02*
X23250000Y-14500000D01*
D16*
X26490000Y-10190000D02*
X26490000Y-9540000D01*
D15*
X25250000Y-12500000D02*
X24000000Y-12500000D01*
X23250000Y-14500000D02*
X20750000Y-12000000D01*
X30250000Y-12500000D02*
X30250000Y-13750000D01*
X20750000Y-10000000D02*
X21000000Y-9750000D01*
D16*
X27750000Y-12500000D02*
X27750000Y-11450000D01*
X27750000Y-11450000D02*
X26490000Y-10190000D01*
D15*
X22590000Y-8360000D02*
X23950000Y-7000000D01*
X24000000Y-12500000D02*
X22590000Y-11090000D01*
X22590000Y-11090000D02*
X22590000Y-8360000D01*
X88750000Y-91750000D02*
X88000000Y-92500000D01*
X88000000Y-92500000D02*
X81750000Y-92500000D01*
X79250000Y-90000000D02*
X79250000Y-88000000D01*
X83750000Y-90500000D02*
X82500000Y-90500000D01*
X81750000Y-92500000D02*
X79250000Y-90000000D01*
X88750000Y-90500000D02*
X88750000Y-91750000D01*
X79250000Y-88000000D02*
X79500000Y-87750000D01*
D16*
X86250000Y-90500000D02*
X86250000Y-89450000D01*
D15*
X81090000Y-86360000D02*
X82450000Y-85000000D01*
D16*
X86250000Y-89450000D02*
X84990000Y-88190000D01*
D15*
X82500000Y-90500000D02*
X81090000Y-89090000D01*
X81090000Y-89090000D02*
X81090000Y-86360000D01*
D16*
X84990000Y-88190000D02*
X84990000Y-87540000D01*
D15*
X69250000Y-91750000D02*
X68500000Y-92500000D01*
X59750000Y-90000000D02*
X59750000Y-88000000D01*
X64250000Y-90500000D02*
X63000000Y-90500000D01*
X62250000Y-92500000D02*
X59750000Y-90000000D01*
D16*
X66750000Y-89450000D02*
X65490000Y-88190000D01*
X65490000Y-88190000D02*
X65490000Y-87540000D01*
D15*
X69250000Y-90500000D02*
X69250000Y-91750000D01*
X59750000Y-88000000D02*
X60000000Y-87750000D01*
D16*
X66750000Y-90500000D02*
X66750000Y-89450000D01*
D15*
X63000000Y-90500000D02*
X61590000Y-89090000D01*
X61590000Y-89090000D02*
X61590000Y-86360000D01*
X68500000Y-92500000D02*
X62250000Y-92500000D01*
X61590000Y-86360000D02*
X62950000Y-85000000D01*
X49750000Y-91750000D02*
X49000000Y-92500000D01*
X40250000Y-90000000D02*
X40250000Y-88000000D01*
X44750000Y-90500000D02*
X43500000Y-90500000D01*
X42750000Y-92500000D02*
X40250000Y-90000000D01*
D16*
X47250000Y-90500000D02*
X47250000Y-89450000D01*
D15*
X49750000Y-90500000D02*
X49750000Y-91750000D01*
X40250000Y-88000000D02*
X40500000Y-87750000D01*
D16*
X47250000Y-89450000D02*
X45990000Y-88190000D01*
D15*
X42090000Y-86360000D02*
X43450000Y-85000000D01*
X43500000Y-90500000D02*
X42090000Y-89090000D01*
X42090000Y-89090000D02*
X42090000Y-86360000D01*
X49000000Y-92500000D02*
X42750000Y-92500000D01*
D16*
X45990000Y-88190000D02*
X45990000Y-87540000D01*
D15*
X30250000Y-91750000D02*
X29500000Y-92500000D01*
X23250000Y-92500000D02*
X20750000Y-90000000D01*
X30250000Y-90500000D02*
X30250000Y-91750000D01*
X20750000Y-90000000D02*
X20750000Y-88000000D01*
X25250000Y-90500000D02*
X24000000Y-90500000D01*
X20750000Y-88000000D02*
X21000000Y-87750000D01*
D16*
X27750000Y-90500000D02*
X27750000Y-89450000D01*
X27750000Y-89450000D02*
X26490000Y-88190000D01*
D15*
X24000000Y-90500000D02*
X22590000Y-89090000D01*
X22590000Y-89090000D02*
X22590000Y-86360000D01*
X29500000Y-92500000D02*
X23250000Y-92500000D01*
X22590000Y-86360000D02*
X23950000Y-85000000D01*
D16*
X26490000Y-88190000D02*
X26490000Y-87540000D01*
D15*
X10750000Y-91750000D02*
X10000000Y-92500000D01*
X1250000Y-90000000D02*
X1250000Y-88000000D01*
X5750000Y-90500000D02*
X4500000Y-90500000D01*
X3750000Y-92500000D02*
X1250000Y-90000000D01*
X10000000Y-92500000D02*
X3750000Y-92500000D01*
X10750000Y-90500000D02*
X10750000Y-91750000D01*
X1250000Y-88000000D02*
X1500000Y-87750000D01*
X3090000Y-86360000D02*
X4450000Y-85000000D01*
D16*
X8250000Y-90500000D02*
X8250000Y-89450000D01*
X8250000Y-89450000D02*
X6990000Y-88190000D01*
D15*
X4500000Y-90500000D02*
X3090000Y-89090000D01*
X3090000Y-89090000D02*
X3090000Y-86360000D01*
D16*
X6990000Y-88190000D02*
X6990000Y-87540000D01*
D15*
X88750000Y-72250000D02*
X88000000Y-73000000D01*
X81750000Y-73000000D02*
X79250000Y-70500000D01*
X79250000Y-70500000D02*
X79250000Y-68500000D01*
X88750000Y-71000000D02*
X88750000Y-72250000D01*
X83750000Y-71000000D02*
X82500000Y-71000000D01*
X81090000Y-66860000D02*
X82450000Y-65500000D01*
X79250000Y-68500000D02*
X79500000Y-68250000D01*
D16*
X86250000Y-69950000D02*
X84990000Y-68690000D01*
X86250000Y-71000000D02*
X86250000Y-69950000D01*
D15*
X82500000Y-71000000D02*
X81090000Y-69590000D01*
X81090000Y-69590000D02*
X81090000Y-66860000D01*
X88000000Y-73000000D02*
X81750000Y-73000000D01*
D16*
X84990000Y-68690000D02*
X84990000Y-68040000D01*
D15*
X69250000Y-72250000D02*
X68500000Y-73000000D01*
X59750000Y-70500000D02*
X59750000Y-68500000D01*
X64250000Y-71000000D02*
X63000000Y-71000000D01*
X62250000Y-73000000D02*
X59750000Y-70500000D01*
X61590000Y-66860000D02*
X62950000Y-65500000D01*
X69250000Y-71000000D02*
X69250000Y-72250000D01*
X59750000Y-68500000D02*
X60000000Y-68250000D01*
D16*
X66750000Y-71000000D02*
X66750000Y-69950000D01*
D15*
X68500000Y-73000000D02*
X62250000Y-73000000D01*
D16*
X66750000Y-69950000D02*
X65490000Y-68690000D01*
D15*
X63000000Y-71000000D02*
X61590000Y-69590000D01*
X61590000Y-69590000D02*
X61590000Y-66860000D01*
D16*
X65490000Y-68690000D02*
X65490000Y-68040000D01*
D15*
X49750000Y-72250000D02*
X49000000Y-73000000D01*
X40250000Y-70500000D02*
X40250000Y-68500000D01*
X42750000Y-73000000D02*
X40250000Y-70500000D01*
X44750000Y-71000000D02*
X43500000Y-71000000D01*
X40250000Y-68500000D02*
X40500000Y-68250000D01*
X49000000Y-73000000D02*
X42750000Y-73000000D01*
X49750000Y-71000000D02*
X49750000Y-72250000D01*
D16*
X47250000Y-71000000D02*
X47250000Y-69950000D01*
X47250000Y-69950000D02*
X45990000Y-68690000D01*
D15*
X43500000Y-71000000D02*
X42090000Y-69590000D01*
X42090000Y-69590000D02*
X42090000Y-66860000D01*
X42090000Y-66860000D02*
X43450000Y-65500000D01*
D16*
X45990000Y-68690000D02*
X45990000Y-68040000D01*
D15*
X30250000Y-72250000D02*
X29500000Y-73000000D01*
D16*
X27750000Y-71000000D02*
X27750000Y-69950000D01*
D15*
X20750000Y-70500000D02*
X20750000Y-68500000D01*
X25250000Y-71000000D02*
X24000000Y-71000000D01*
X23250000Y-73000000D02*
X20750000Y-70500000D01*
X30250000Y-71000000D02*
X30250000Y-72250000D01*
X20750000Y-68500000D02*
X21000000Y-68250000D01*
D16*
X27750000Y-69950000D02*
X26490000Y-68690000D01*
D15*
X24000000Y-71000000D02*
X22590000Y-69590000D01*
X22590000Y-69590000D02*
X22590000Y-66860000D01*
X29500000Y-73000000D02*
X23250000Y-73000000D01*
X22590000Y-66860000D02*
X23950000Y-65500000D01*
D16*
X26490000Y-68690000D02*
X26490000Y-68040000D01*
D15*
X10750000Y-72250000D02*
X10000000Y-73000000D01*
X1250000Y-70500000D02*
X1250000Y-68500000D01*
X5750000Y-71000000D02*
X4500000Y-71000000D01*
X3750000Y-73000000D02*
X1250000Y-70500000D01*
D16*
X8250000Y-71000000D02*
X8250000Y-69950000D01*
D15*
X10750000Y-71000000D02*
X10750000Y-72250000D01*
X1250000Y-68500000D02*
X1500000Y-68250000D01*
D16*
X8250000Y-69950000D02*
X6990000Y-68690000D01*
D15*
X4500000Y-71000000D02*
X3090000Y-69590000D01*
X3090000Y-69590000D02*
X3090000Y-66860000D01*
X10000000Y-73000000D02*
X3750000Y-73000000D01*
X3090000Y-66860000D02*
X4450000Y-65500000D01*
D16*
X6990000Y-68690000D02*
X6990000Y-68040000D01*
D15*
X88750000Y-52750000D02*
X88000000Y-53500000D01*
X79250000Y-51000000D02*
X79250000Y-49000000D01*
X83750000Y-51500000D02*
X82500000Y-51500000D01*
D16*
X86250000Y-50450000D02*
X84990000Y-49190000D01*
D15*
X81750000Y-53500000D02*
X79250000Y-51000000D01*
X88750000Y-51500000D02*
X88750000Y-52750000D01*
X79250000Y-49000000D02*
X79500000Y-48750000D01*
D16*
X86250000Y-51500000D02*
X86250000Y-50450000D01*
D15*
X82500000Y-51500000D02*
X81090000Y-50090000D01*
X81090000Y-50090000D02*
X81090000Y-47360000D01*
X88000000Y-53500000D02*
X81750000Y-53500000D01*
X81090000Y-47360000D02*
X82450000Y-46000000D01*
D16*
X84990000Y-49190000D02*
X84990000Y-48540000D01*
D15*
X69250000Y-52750000D02*
X68500000Y-53500000D01*
X59750000Y-51000000D02*
X59750000Y-49000000D01*
X64250000Y-51500000D02*
X63000000Y-51500000D01*
X62250000Y-53500000D02*
X59750000Y-51000000D01*
X69250000Y-51500000D02*
X69250000Y-52750000D01*
X59750000Y-49000000D02*
X60000000Y-48750000D01*
D16*
X66750000Y-51500000D02*
X66750000Y-50450000D01*
X66750000Y-50450000D02*
X65490000Y-49190000D01*
D15*
X63000000Y-51500000D02*
X61590000Y-50090000D01*
X61590000Y-50090000D02*
X61590000Y-47360000D01*
X68500000Y-53500000D02*
X62250000Y-53500000D01*
X61590000Y-47360000D02*
X62950000Y-46000000D01*
D16*
X65490000Y-49190000D02*
X65490000Y-48540000D01*
D15*
X49750000Y-52750000D02*
X49000000Y-53500000D01*
X40250000Y-51000000D02*
X40250000Y-49000000D01*
X44750000Y-51500000D02*
X43500000Y-51500000D01*
X42750000Y-53500000D02*
X40250000Y-51000000D01*
X42090000Y-47360000D02*
X43450000Y-46000000D01*
X49750000Y-51500000D02*
X49750000Y-52750000D01*
X40250000Y-49000000D02*
X40500000Y-48750000D01*
D16*
X47250000Y-51500000D02*
X47250000Y-50450000D01*
X45990000Y-49190000D02*
X45990000Y-48540000D01*
D15*
X42090000Y-50090000D02*
X42090000Y-47360000D01*
D16*
X47250000Y-50450000D02*
X45990000Y-49190000D01*
D15*
X43500000Y-51500000D02*
X42090000Y-50090000D01*
X49000000Y-53500000D02*
X42750000Y-53500000D01*
X30250000Y-52750000D02*
X29500000Y-53500000D01*
X20750000Y-51000000D02*
X20750000Y-49000000D01*
X25250000Y-51500000D02*
X24000000Y-51500000D01*
X23250000Y-53500000D02*
X20750000Y-51000000D01*
X30250000Y-51500000D02*
X30250000Y-52750000D01*
X29500000Y-53500000D02*
X23250000Y-53500000D01*
X20750000Y-49000000D02*
X21000000Y-48750000D01*
D16*
X27750000Y-51500000D02*
X27750000Y-50450000D01*
X26490000Y-49190000D02*
X26490000Y-48540000D01*
X27750000Y-50450000D02*
X26490000Y-49190000D01*
D15*
X22590000Y-50090000D02*
X22590000Y-47360000D01*
X24000000Y-51500000D02*
X22590000Y-50090000D01*
X22590000Y-47360000D02*
X23950000Y-46000000D01*
X10750000Y-52750000D02*
X10000000Y-53500000D01*
X1250000Y-51000000D02*
X1250000Y-49000000D01*
X5750000Y-51500000D02*
X4500000Y-51500000D01*
X3750000Y-53500000D02*
X1250000Y-51000000D01*
X10750000Y-51500000D02*
X10750000Y-52750000D01*
X1250000Y-49000000D02*
X1500000Y-48750000D01*
D16*
X8250000Y-51500000D02*
X8250000Y-50450000D01*
X8250000Y-50450000D02*
X6990000Y-49190000D01*
D15*
X4500000Y-51500000D02*
X3090000Y-50090000D01*
X3090000Y-50090000D02*
X3090000Y-47360000D01*
X10000000Y-53500000D02*
X3750000Y-53500000D01*
X3090000Y-47360000D02*
X4450000Y-46000000D01*
D16*
X6990000Y-49190000D02*
X6990000Y-48540000D01*
D15*
X88750000Y-33250000D02*
X88000000Y-34000000D01*
X81090000Y-27860000D02*
X82450000Y-26500000D01*
X79250000Y-31500000D02*
X79250000Y-29500000D01*
X83750000Y-32000000D02*
X82500000Y-32000000D01*
X82500000Y-32000000D02*
X81090000Y-30590000D01*
D16*
X84990000Y-29690000D02*
X84990000Y-29040000D01*
D15*
X81750000Y-34000000D02*
X79250000Y-31500000D01*
D16*
X86250000Y-30950000D02*
X84990000Y-29690000D01*
D15*
X79250000Y-29500000D02*
X79500000Y-29250000D01*
X88750000Y-32000000D02*
X88750000Y-33250000D01*
D16*
X86250000Y-32000000D02*
X86250000Y-30950000D01*
D15*
X81090000Y-30590000D02*
X81090000Y-27860000D01*
X88000000Y-34000000D02*
X81750000Y-34000000D01*
X69250000Y-33250000D02*
X68500000Y-34000000D01*
X59750000Y-31500000D02*
X59750000Y-29500000D01*
X64250000Y-32000000D02*
X63000000Y-32000000D01*
X62250000Y-34000000D02*
X59750000Y-31500000D01*
X69250000Y-32000000D02*
X69250000Y-33250000D01*
X59750000Y-29500000D02*
X60000000Y-29250000D01*
D16*
X66750000Y-32000000D02*
X66750000Y-30950000D01*
X66750000Y-30950000D02*
X65490000Y-29690000D01*
D15*
X63000000Y-32000000D02*
X61590000Y-30590000D01*
X68500000Y-34000000D02*
X62250000Y-34000000D01*
X61590000Y-30590000D02*
X61590000Y-27860000D01*
X61590000Y-27860000D02*
X62950000Y-26500000D01*
D16*
X65490000Y-29690000D02*
X65490000Y-29040000D01*
D15*
X49750000Y-33250000D02*
X49000000Y-34000000D01*
X40250000Y-31500000D02*
X40250000Y-29500000D01*
X44750000Y-32000000D02*
X43500000Y-32000000D01*
X42750000Y-34000000D02*
X40250000Y-31500000D01*
X42090000Y-30590000D02*
X42090000Y-27860000D01*
X49750000Y-32000000D02*
X49750000Y-33250000D01*
X40250000Y-29500000D02*
X40500000Y-29250000D01*
D16*
X47250000Y-32000000D02*
X47250000Y-30950000D01*
X47250000Y-30950000D02*
X45990000Y-29690000D01*
D15*
X49000000Y-34000000D02*
X42750000Y-34000000D01*
X43500000Y-32000000D02*
X42090000Y-30590000D01*
D16*
X45990000Y-29690000D02*
X45990000Y-29040000D01*
D15*
X42090000Y-27860000D02*
X43450000Y-26500000D01*
X30250000Y-33250000D02*
X29500000Y-34000000D01*
X20750000Y-31500000D02*
X20750000Y-29500000D01*
X25250000Y-32000000D02*
X24000000Y-32000000D01*
X23250000Y-34000000D02*
X20750000Y-31500000D01*
X24000000Y-32000000D02*
X22590000Y-30590000D01*
X30250000Y-32000000D02*
X30250000Y-33250000D01*
X20750000Y-29500000D02*
X21000000Y-29250000D01*
D16*
X27750000Y-32000000D02*
X27750000Y-30950000D01*
X27750000Y-30950000D02*
X26490000Y-29690000D01*
D15*
X22590000Y-27860000D02*
X23950000Y-26500000D01*
X22590000Y-30590000D02*
X22590000Y-27860000D01*
X29500000Y-34000000D02*
X23250000Y-34000000D01*
D16*
X26490000Y-29690000D02*
X26490000Y-29040000D01*
D15*
X10750000Y-33250000D02*
X10000000Y-34000000D01*
X1250000Y-31500000D02*
X1250000Y-29500000D01*
X5750000Y-32000000D02*
X4500000Y-32000000D01*
D16*
X6990000Y-29690000D02*
X6990000Y-29040000D01*
D15*
X3750000Y-34000000D02*
X1250000Y-31500000D01*
X10750000Y-32000000D02*
X10750000Y-33250000D01*
D16*
X8250000Y-30950000D02*
X6990000Y-29690000D01*
D15*
X1250000Y-29500000D02*
X1500000Y-29250000D01*
D16*
X8250000Y-32000000D02*
X8250000Y-30950000D01*
D15*
X4500000Y-32000000D02*
X3090000Y-30590000D01*
X3090000Y-30590000D02*
X3090000Y-27860000D01*
X10000000Y-34000000D02*
X3750000Y-34000000D01*
X3090000Y-27860000D02*
X4450000Y-26500000D01*
X88750000Y-13750000D02*
X88000000Y-14500000D01*
X79250000Y-12000000D02*
X79250000Y-10000000D01*
X83750000Y-12500000D02*
X82500000Y-12500000D01*
X81750000Y-14500000D02*
X79250000Y-12000000D01*
X79250000Y-10000000D02*
X79500000Y-9750000D01*
X88750000Y-12500000D02*
X88750000Y-13750000D01*
D16*
X84990000Y-10190000D02*
X84990000Y-9540000D01*
X86250000Y-12500000D02*
X86250000Y-11450000D01*
X86250000Y-11450000D02*
X84990000Y-10190000D01*
D15*
X81090000Y-8360000D02*
X82450000Y-7000000D01*
X82500000Y-12500000D02*
X81090000Y-11090000D01*
X81090000Y-11090000D02*
X81090000Y-8360000D01*
X88000000Y-14500000D02*
X81750000Y-14500000D01*
X69250000Y-13750000D02*
X68500000Y-14500000D01*
X59750000Y-12000000D02*
X59750000Y-10000000D01*
X64250000Y-12500000D02*
X63000000Y-12500000D01*
X62250000Y-14500000D02*
X59750000Y-12000000D01*
X68500000Y-14500000D02*
X62250000Y-14500000D01*
X69250000Y-12500000D02*
X69250000Y-13750000D01*
X59750000Y-10000000D02*
X60000000Y-9750000D01*
D16*
X66750000Y-12500000D02*
X66750000Y-11450000D01*
X66750000Y-11450000D02*
X65490000Y-10190000D01*
D15*
X63000000Y-12500000D02*
X61590000Y-11090000D01*
X61590000Y-8360000D02*
X62950000Y-7000000D01*
X61590000Y-11090000D02*
X61590000Y-8360000D01*
D16*
X65490000Y-10190000D02*
X65490000Y-9540000D01*
D15*
X49750000Y-13750000D02*
X49000000Y-14500000D01*
X40250000Y-12000000D02*
X40250000Y-10000000D01*
X44750000Y-12500000D02*
X43500000Y-12500000D01*
X42750000Y-14500000D02*
X40250000Y-12000000D01*
X49000000Y-14500000D02*
X42750000Y-14500000D01*
X49750000Y-12500000D02*
X49750000Y-13750000D01*
X40250000Y-10000000D02*
X40500000Y-9750000D01*
D16*
X47250000Y-12500000D02*
X47250000Y-11450000D01*
X47250000Y-11450000D02*
X45990000Y-10190000D01*
D15*
X43500000Y-12500000D02*
X42090000Y-11090000D01*
X42090000Y-11090000D02*
X42090000Y-8360000D01*
X42090000Y-8360000D02*
X43450000Y-7000000D01*
D16*
X45990000Y-10190000D02*
X45990000Y-9540000D01*
X8250000Y-11450000D02*
X6990000Y-10190000D01*
X6990000Y-10190000D02*
X6990000Y-9540000D01*
X8250000Y-12500000D02*
X8250000Y-11450000D01*
D15*
X10000000Y-14500000D02*
X3750000Y-14500000D01*
X10750000Y-12500000D02*
X10750000Y-13750000D01*
X10750000Y-13750000D02*
X10000000Y-14500000D01*
X1250000Y-10000000D02*
X1500000Y-9750000D01*
X3750000Y-14500000D02*
X1250000Y-12000000D01*
X1250000Y-12000000D02*
X1250000Y-10000000D01*
X5750000Y-12500000D02*
X4500000Y-12500000D01*
X3090000Y-11090000D02*
X3090000Y-8360000D01*
X4500000Y-12500000D02*
X3090000Y-11090000D01*
X3090000Y-8360000D02*
X4450000Y-7000000D01*
M02*
