G04 #@! TF.GenerationSoftware,KiCad,Pcbnew,8.0.0-8.0.0-1~ubuntu22.04.1*
G04 #@! TF.CreationDate,2024-03-04T18:16:00+01:00*
G04 #@! TF.ProjectId,1x1_panel,3178315f-7061-46e6-956c-2e6b69636164,rev?*
G04 #@! TF.SameCoordinates,Original*
G04 #@! TF.FileFunction,Legend,Top*
G04 #@! TF.FilePolarity,Positive*
%FSLAX46Y46*%
G04 Gerber Fmt 4.6, Leading zero omitted, Abs format (unit mm)*
G04 Created by KiCad (PCBNEW 8.0.0-8.0.0-1~ubuntu22.04.1) date 2024-03-04 18:16:00*
%MOMM*%
%LPD*%
G01*
G04 APERTURE LIST*
G04 Aperture macros list*
%AMRoundRect*
0 Rectangle with rounded corners*
0 $1 Rounding radius*
0 $2 $3 $4 $5 $6 $7 $8 $9 X,Y pos of 4 corners*
0 Add a 4 corners polygon primitive as box body*
4,1,4,$2,$3,$4,$5,$6,$7,$8,$9,$2,$3,0*
0 Add four circle primitives for the rounded corners*
1,1,$1+$1,$2,$3*
1,1,$1+$1,$4,$5*
1,1,$1+$1,$6,$7*
1,1,$1+$1,$8,$9*
0 Add four rect primitives between the rounded corners*
20,1,$1+$1,$2,$3,$4,$5,0*
20,1,$1+$1,$4,$5,$6,$7,0*
20,1,$1+$1,$6,$7,$8,$9,0*
20,1,$1+$1,$8,$9,$2,$3,0*%
G04 Aperture macros list end*
%ADD10C,0.100000*%
%ADD11RoundRect,0.038000X-0.850000X0.850000X-0.850000X-0.850000X0.850000X-0.850000X0.850000X0.850000X0*%
%ADD12O,1.776000X1.776000*%
%ADD13RoundRect,0.038000X-0.750000X-0.750000X0.750000X-0.750000X0.750000X0.750000X-0.750000X0.750000X0*%
%ADD14C,2.576000*%
%ADD15C,0.976000*%
G04 APERTURE END LIST*
D10*
X23958646Y-14122419D02*
X24577693Y-14122419D01*
X24577693Y-14122419D02*
X24244360Y-14503371D01*
X24244360Y-14503371D02*
X24387217Y-14503371D01*
X24387217Y-14503371D02*
X24482455Y-14550990D01*
X24482455Y-14550990D02*
X24530074Y-14598609D01*
X24530074Y-14598609D02*
X24577693Y-14693847D01*
X24577693Y-14693847D02*
X24577693Y-14931942D01*
X24577693Y-14931942D02*
X24530074Y-15027180D01*
X24530074Y-15027180D02*
X24482455Y-15074800D01*
X24482455Y-15074800D02*
X24387217Y-15122419D01*
X24387217Y-15122419D02*
X24101503Y-15122419D01*
X24101503Y-15122419D02*
X24006265Y-15074800D01*
X24006265Y-15074800D02*
X23958646Y-15027180D01*
X25006265Y-15027180D02*
X25053884Y-15074800D01*
X25053884Y-15074800D02*
X25006265Y-15122419D01*
X25006265Y-15122419D02*
X24958646Y-15074800D01*
X24958646Y-15074800D02*
X25006265Y-15027180D01*
X25006265Y-15027180D02*
X25006265Y-15122419D01*
X25387217Y-14122419D02*
X26006264Y-14122419D01*
X26006264Y-14122419D02*
X25672931Y-14503371D01*
X25672931Y-14503371D02*
X25815788Y-14503371D01*
X25815788Y-14503371D02*
X25911026Y-14550990D01*
X25911026Y-14550990D02*
X25958645Y-14598609D01*
X25958645Y-14598609D02*
X26006264Y-14693847D01*
X26006264Y-14693847D02*
X26006264Y-14931942D01*
X26006264Y-14931942D02*
X25958645Y-15027180D01*
X25958645Y-15027180D02*
X25911026Y-15074800D01*
X25911026Y-15074800D02*
X25815788Y-15122419D01*
X25815788Y-15122419D02*
X25530074Y-15122419D01*
X25530074Y-15122419D02*
X25434836Y-15074800D01*
X25434836Y-15074800D02*
X25387217Y-15027180D01*
X26741980Y-15074800D02*
X26884837Y-15122419D01*
X26884837Y-15122419D02*
X27122932Y-15122419D01*
X27122932Y-15122419D02*
X27218170Y-15074800D01*
X27218170Y-15074800D02*
X27265789Y-15027180D01*
X27265789Y-15027180D02*
X27313408Y-14931942D01*
X27313408Y-14931942D02*
X27313408Y-14836704D01*
X27313408Y-14836704D02*
X27265789Y-14741466D01*
X27265789Y-14741466D02*
X27218170Y-14693847D01*
X27218170Y-14693847D02*
X27122932Y-14646228D01*
X27122932Y-14646228D02*
X26932456Y-14598609D01*
X26932456Y-14598609D02*
X26837218Y-14550990D01*
X26837218Y-14550990D02*
X26789599Y-14503371D01*
X26789599Y-14503371D02*
X26741980Y-14408133D01*
X26741980Y-14408133D02*
X26741980Y-14312895D01*
X26741980Y-14312895D02*
X26789599Y-14217657D01*
X26789599Y-14217657D02*
X26837218Y-14170038D01*
X26837218Y-14170038D02*
X26932456Y-14122419D01*
X26932456Y-14122419D02*
X27170551Y-14122419D01*
X27170551Y-14122419D02*
X27313408Y-14170038D01*
X27741980Y-15122419D02*
X27741980Y-14122419D01*
X28741979Y-14170038D02*
X28646741Y-14122419D01*
X28646741Y-14122419D02*
X28503884Y-14122419D01*
X28503884Y-14122419D02*
X28361027Y-14170038D01*
X28361027Y-14170038D02*
X28265789Y-14265276D01*
X28265789Y-14265276D02*
X28218170Y-14360514D01*
X28218170Y-14360514D02*
X28170551Y-14550990D01*
X28170551Y-14550990D02*
X28170551Y-14693847D01*
X28170551Y-14693847D02*
X28218170Y-14884323D01*
X28218170Y-14884323D02*
X28265789Y-14979561D01*
X28265789Y-14979561D02*
X28361027Y-15074800D01*
X28361027Y-15074800D02*
X28503884Y-15122419D01*
X28503884Y-15122419D02*
X28599122Y-15122419D01*
X28599122Y-15122419D02*
X28741979Y-15074800D01*
X28741979Y-15074800D02*
X28789598Y-15027180D01*
X28789598Y-15027180D02*
X28789598Y-14693847D01*
X28789598Y-14693847D02*
X28599122Y-14693847D01*
X30077693Y-14170038D02*
X29982455Y-14122419D01*
X29982455Y-14122419D02*
X29839598Y-14122419D01*
X29839598Y-14122419D02*
X29696741Y-14170038D01*
X29696741Y-14170038D02*
X29601503Y-14265276D01*
X29601503Y-14265276D02*
X29553884Y-14360514D01*
X29553884Y-14360514D02*
X29506265Y-14550990D01*
X29506265Y-14550990D02*
X29506265Y-14693847D01*
X29506265Y-14693847D02*
X29553884Y-14884323D01*
X29553884Y-14884323D02*
X29601503Y-14979561D01*
X29601503Y-14979561D02*
X29696741Y-15074800D01*
X29696741Y-15074800D02*
X29839598Y-15122419D01*
X29839598Y-15122419D02*
X29934836Y-15122419D01*
X29934836Y-15122419D02*
X30077693Y-15074800D01*
X30077693Y-15074800D02*
X30125312Y-15027180D01*
X30125312Y-15027180D02*
X30125312Y-14693847D01*
X30125312Y-14693847D02*
X29934836Y-14693847D01*
X30553884Y-15122419D02*
X30553884Y-14122419D01*
X30553884Y-14122419D02*
X31125312Y-15122419D01*
X31125312Y-15122419D02*
X31125312Y-14122419D01*
X31601503Y-15122419D02*
X31601503Y-14122419D01*
X31601503Y-14122419D02*
X31839598Y-14122419D01*
X31839598Y-14122419D02*
X31982455Y-14170038D01*
X31982455Y-14170038D02*
X32077693Y-14265276D01*
X32077693Y-14265276D02*
X32125312Y-14360514D01*
X32125312Y-14360514D02*
X32172931Y-14550990D01*
X32172931Y-14550990D02*
X32172931Y-14693847D01*
X32172931Y-14693847D02*
X32125312Y-14884323D01*
X32125312Y-14884323D02*
X32077693Y-14979561D01*
X32077693Y-14979561D02*
X31982455Y-15074800D01*
X31982455Y-15074800D02*
X31839598Y-15122419D01*
X31839598Y-15122419D02*
X31601503Y-15122419D01*
X19500000Y0D02*
X36000000Y0D01*
X36000000Y-16500000D01*
X19500000Y-16500000D01*
X19500000Y0D01*
X82458646Y-92122419D02*
X83077693Y-92122419D01*
X83077693Y-92122419D02*
X82744360Y-92503371D01*
X82744360Y-92503371D02*
X82887217Y-92503371D01*
X82887217Y-92503371D02*
X82982455Y-92550990D01*
X82982455Y-92550990D02*
X83030074Y-92598609D01*
X83030074Y-92598609D02*
X83077693Y-92693847D01*
X83077693Y-92693847D02*
X83077693Y-92931942D01*
X83077693Y-92931942D02*
X83030074Y-93027180D01*
X83030074Y-93027180D02*
X82982455Y-93074800D01*
X82982455Y-93074800D02*
X82887217Y-93122419D01*
X82887217Y-93122419D02*
X82601503Y-93122419D01*
X82601503Y-93122419D02*
X82506265Y-93074800D01*
X82506265Y-93074800D02*
X82458646Y-93027180D01*
X83506265Y-93027180D02*
X83553884Y-93074800D01*
X83553884Y-93074800D02*
X83506265Y-93122419D01*
X83506265Y-93122419D02*
X83458646Y-93074800D01*
X83458646Y-93074800D02*
X83506265Y-93027180D01*
X83506265Y-93027180D02*
X83506265Y-93122419D01*
X83887217Y-92122419D02*
X84506264Y-92122419D01*
X84506264Y-92122419D02*
X84172931Y-92503371D01*
X84172931Y-92503371D02*
X84315788Y-92503371D01*
X84315788Y-92503371D02*
X84411026Y-92550990D01*
X84411026Y-92550990D02*
X84458645Y-92598609D01*
X84458645Y-92598609D02*
X84506264Y-92693847D01*
X84506264Y-92693847D02*
X84506264Y-92931942D01*
X84506264Y-92931942D02*
X84458645Y-93027180D01*
X84458645Y-93027180D02*
X84411026Y-93074800D01*
X84411026Y-93074800D02*
X84315788Y-93122419D01*
X84315788Y-93122419D02*
X84030074Y-93122419D01*
X84030074Y-93122419D02*
X83934836Y-93074800D01*
X83934836Y-93074800D02*
X83887217Y-93027180D01*
X85241980Y-93074800D02*
X85384837Y-93122419D01*
X85384837Y-93122419D02*
X85622932Y-93122419D01*
X85622932Y-93122419D02*
X85718170Y-93074800D01*
X85718170Y-93074800D02*
X85765789Y-93027180D01*
X85765789Y-93027180D02*
X85813408Y-92931942D01*
X85813408Y-92931942D02*
X85813408Y-92836704D01*
X85813408Y-92836704D02*
X85765789Y-92741466D01*
X85765789Y-92741466D02*
X85718170Y-92693847D01*
X85718170Y-92693847D02*
X85622932Y-92646228D01*
X85622932Y-92646228D02*
X85432456Y-92598609D01*
X85432456Y-92598609D02*
X85337218Y-92550990D01*
X85337218Y-92550990D02*
X85289599Y-92503371D01*
X85289599Y-92503371D02*
X85241980Y-92408133D01*
X85241980Y-92408133D02*
X85241980Y-92312895D01*
X85241980Y-92312895D02*
X85289599Y-92217657D01*
X85289599Y-92217657D02*
X85337218Y-92170038D01*
X85337218Y-92170038D02*
X85432456Y-92122419D01*
X85432456Y-92122419D02*
X85670551Y-92122419D01*
X85670551Y-92122419D02*
X85813408Y-92170038D01*
X86241980Y-93122419D02*
X86241980Y-92122419D01*
X87241979Y-92170038D02*
X87146741Y-92122419D01*
X87146741Y-92122419D02*
X87003884Y-92122419D01*
X87003884Y-92122419D02*
X86861027Y-92170038D01*
X86861027Y-92170038D02*
X86765789Y-92265276D01*
X86765789Y-92265276D02*
X86718170Y-92360514D01*
X86718170Y-92360514D02*
X86670551Y-92550990D01*
X86670551Y-92550990D02*
X86670551Y-92693847D01*
X86670551Y-92693847D02*
X86718170Y-92884323D01*
X86718170Y-92884323D02*
X86765789Y-92979561D01*
X86765789Y-92979561D02*
X86861027Y-93074800D01*
X86861027Y-93074800D02*
X87003884Y-93122419D01*
X87003884Y-93122419D02*
X87099122Y-93122419D01*
X87099122Y-93122419D02*
X87241979Y-93074800D01*
X87241979Y-93074800D02*
X87289598Y-93027180D01*
X87289598Y-93027180D02*
X87289598Y-92693847D01*
X87289598Y-92693847D02*
X87099122Y-92693847D01*
X88577693Y-92170038D02*
X88482455Y-92122419D01*
X88482455Y-92122419D02*
X88339598Y-92122419D01*
X88339598Y-92122419D02*
X88196741Y-92170038D01*
X88196741Y-92170038D02*
X88101503Y-92265276D01*
X88101503Y-92265276D02*
X88053884Y-92360514D01*
X88053884Y-92360514D02*
X88006265Y-92550990D01*
X88006265Y-92550990D02*
X88006265Y-92693847D01*
X88006265Y-92693847D02*
X88053884Y-92884323D01*
X88053884Y-92884323D02*
X88101503Y-92979561D01*
X88101503Y-92979561D02*
X88196741Y-93074800D01*
X88196741Y-93074800D02*
X88339598Y-93122419D01*
X88339598Y-93122419D02*
X88434836Y-93122419D01*
X88434836Y-93122419D02*
X88577693Y-93074800D01*
X88577693Y-93074800D02*
X88625312Y-93027180D01*
X88625312Y-93027180D02*
X88625312Y-92693847D01*
X88625312Y-92693847D02*
X88434836Y-92693847D01*
X89053884Y-93122419D02*
X89053884Y-92122419D01*
X89053884Y-92122419D02*
X89625312Y-93122419D01*
X89625312Y-93122419D02*
X89625312Y-92122419D01*
X90101503Y-93122419D02*
X90101503Y-92122419D01*
X90101503Y-92122419D02*
X90339598Y-92122419D01*
X90339598Y-92122419D02*
X90482455Y-92170038D01*
X90482455Y-92170038D02*
X90577693Y-92265276D01*
X90577693Y-92265276D02*
X90625312Y-92360514D01*
X90625312Y-92360514D02*
X90672931Y-92550990D01*
X90672931Y-92550990D02*
X90672931Y-92693847D01*
X90672931Y-92693847D02*
X90625312Y-92884323D01*
X90625312Y-92884323D02*
X90577693Y-92979561D01*
X90577693Y-92979561D02*
X90482455Y-93074800D01*
X90482455Y-93074800D02*
X90339598Y-93122419D01*
X90339598Y-93122419D02*
X90101503Y-93122419D01*
X78000000Y-78000000D02*
X94500000Y-78000000D01*
X94500000Y-94500000D01*
X78000000Y-94500000D01*
X78000000Y-78000000D01*
X62958646Y-92122419D02*
X63577693Y-92122419D01*
X63577693Y-92122419D02*
X63244360Y-92503371D01*
X63244360Y-92503371D02*
X63387217Y-92503371D01*
X63387217Y-92503371D02*
X63482455Y-92550990D01*
X63482455Y-92550990D02*
X63530074Y-92598609D01*
X63530074Y-92598609D02*
X63577693Y-92693847D01*
X63577693Y-92693847D02*
X63577693Y-92931942D01*
X63577693Y-92931942D02*
X63530074Y-93027180D01*
X63530074Y-93027180D02*
X63482455Y-93074800D01*
X63482455Y-93074800D02*
X63387217Y-93122419D01*
X63387217Y-93122419D02*
X63101503Y-93122419D01*
X63101503Y-93122419D02*
X63006265Y-93074800D01*
X63006265Y-93074800D02*
X62958646Y-93027180D01*
X64006265Y-93027180D02*
X64053884Y-93074800D01*
X64053884Y-93074800D02*
X64006265Y-93122419D01*
X64006265Y-93122419D02*
X63958646Y-93074800D01*
X63958646Y-93074800D02*
X64006265Y-93027180D01*
X64006265Y-93027180D02*
X64006265Y-93122419D01*
X64387217Y-92122419D02*
X65006264Y-92122419D01*
X65006264Y-92122419D02*
X64672931Y-92503371D01*
X64672931Y-92503371D02*
X64815788Y-92503371D01*
X64815788Y-92503371D02*
X64911026Y-92550990D01*
X64911026Y-92550990D02*
X64958645Y-92598609D01*
X64958645Y-92598609D02*
X65006264Y-92693847D01*
X65006264Y-92693847D02*
X65006264Y-92931942D01*
X65006264Y-92931942D02*
X64958645Y-93027180D01*
X64958645Y-93027180D02*
X64911026Y-93074800D01*
X64911026Y-93074800D02*
X64815788Y-93122419D01*
X64815788Y-93122419D02*
X64530074Y-93122419D01*
X64530074Y-93122419D02*
X64434836Y-93074800D01*
X64434836Y-93074800D02*
X64387217Y-93027180D01*
X69077693Y-92170038D02*
X68982455Y-92122419D01*
X68982455Y-92122419D02*
X68839598Y-92122419D01*
X68839598Y-92122419D02*
X68696741Y-92170038D01*
X68696741Y-92170038D02*
X68601503Y-92265276D01*
X68601503Y-92265276D02*
X68553884Y-92360514D01*
X68553884Y-92360514D02*
X68506265Y-92550990D01*
X68506265Y-92550990D02*
X68506265Y-92693847D01*
X68506265Y-92693847D02*
X68553884Y-92884323D01*
X68553884Y-92884323D02*
X68601503Y-92979561D01*
X68601503Y-92979561D02*
X68696741Y-93074800D01*
X68696741Y-93074800D02*
X68839598Y-93122419D01*
X68839598Y-93122419D02*
X68934836Y-93122419D01*
X68934836Y-93122419D02*
X69077693Y-93074800D01*
X69077693Y-93074800D02*
X69125312Y-93027180D01*
X69125312Y-93027180D02*
X69125312Y-92693847D01*
X69125312Y-92693847D02*
X68934836Y-92693847D01*
X69553884Y-93122419D02*
X69553884Y-92122419D01*
X69553884Y-92122419D02*
X70125312Y-93122419D01*
X70125312Y-93122419D02*
X70125312Y-92122419D01*
X70601503Y-93122419D02*
X70601503Y-92122419D01*
X70601503Y-92122419D02*
X70839598Y-92122419D01*
X70839598Y-92122419D02*
X70982455Y-92170038D01*
X70982455Y-92170038D02*
X71077693Y-92265276D01*
X71077693Y-92265276D02*
X71125312Y-92360514D01*
X71125312Y-92360514D02*
X71172931Y-92550990D01*
X71172931Y-92550990D02*
X71172931Y-92693847D01*
X71172931Y-92693847D02*
X71125312Y-92884323D01*
X71125312Y-92884323D02*
X71077693Y-92979561D01*
X71077693Y-92979561D02*
X70982455Y-93074800D01*
X70982455Y-93074800D02*
X70839598Y-93122419D01*
X70839598Y-93122419D02*
X70601503Y-93122419D01*
X65741980Y-93074800D02*
X65884837Y-93122419D01*
X65884837Y-93122419D02*
X66122932Y-93122419D01*
X66122932Y-93122419D02*
X66218170Y-93074800D01*
X66218170Y-93074800D02*
X66265789Y-93027180D01*
X66265789Y-93027180D02*
X66313408Y-92931942D01*
X66313408Y-92931942D02*
X66313408Y-92836704D01*
X66313408Y-92836704D02*
X66265789Y-92741466D01*
X66265789Y-92741466D02*
X66218170Y-92693847D01*
X66218170Y-92693847D02*
X66122932Y-92646228D01*
X66122932Y-92646228D02*
X65932456Y-92598609D01*
X65932456Y-92598609D02*
X65837218Y-92550990D01*
X65837218Y-92550990D02*
X65789599Y-92503371D01*
X65789599Y-92503371D02*
X65741980Y-92408133D01*
X65741980Y-92408133D02*
X65741980Y-92312895D01*
X65741980Y-92312895D02*
X65789599Y-92217657D01*
X65789599Y-92217657D02*
X65837218Y-92170038D01*
X65837218Y-92170038D02*
X65932456Y-92122419D01*
X65932456Y-92122419D02*
X66170551Y-92122419D01*
X66170551Y-92122419D02*
X66313408Y-92170038D01*
X66741980Y-93122419D02*
X66741980Y-92122419D01*
X67741979Y-92170038D02*
X67646741Y-92122419D01*
X67646741Y-92122419D02*
X67503884Y-92122419D01*
X67503884Y-92122419D02*
X67361027Y-92170038D01*
X67361027Y-92170038D02*
X67265789Y-92265276D01*
X67265789Y-92265276D02*
X67218170Y-92360514D01*
X67218170Y-92360514D02*
X67170551Y-92550990D01*
X67170551Y-92550990D02*
X67170551Y-92693847D01*
X67170551Y-92693847D02*
X67218170Y-92884323D01*
X67218170Y-92884323D02*
X67265789Y-92979561D01*
X67265789Y-92979561D02*
X67361027Y-93074800D01*
X67361027Y-93074800D02*
X67503884Y-93122419D01*
X67503884Y-93122419D02*
X67599122Y-93122419D01*
X67599122Y-93122419D02*
X67741979Y-93074800D01*
X67741979Y-93074800D02*
X67789598Y-93027180D01*
X67789598Y-93027180D02*
X67789598Y-92693847D01*
X67789598Y-92693847D02*
X67599122Y-92693847D01*
X58500000Y-78000000D02*
X75000000Y-78000000D01*
X75000000Y-94500000D01*
X58500000Y-94500000D01*
X58500000Y-78000000D01*
X43458646Y-92122419D02*
X44077693Y-92122419D01*
X44077693Y-92122419D02*
X43744360Y-92503371D01*
X43744360Y-92503371D02*
X43887217Y-92503371D01*
X43887217Y-92503371D02*
X43982455Y-92550990D01*
X43982455Y-92550990D02*
X44030074Y-92598609D01*
X44030074Y-92598609D02*
X44077693Y-92693847D01*
X44077693Y-92693847D02*
X44077693Y-92931942D01*
X44077693Y-92931942D02*
X44030074Y-93027180D01*
X44030074Y-93027180D02*
X43982455Y-93074800D01*
X43982455Y-93074800D02*
X43887217Y-93122419D01*
X43887217Y-93122419D02*
X43601503Y-93122419D01*
X43601503Y-93122419D02*
X43506265Y-93074800D01*
X43506265Y-93074800D02*
X43458646Y-93027180D01*
X44506265Y-93027180D02*
X44553884Y-93074800D01*
X44553884Y-93074800D02*
X44506265Y-93122419D01*
X44506265Y-93122419D02*
X44458646Y-93074800D01*
X44458646Y-93074800D02*
X44506265Y-93027180D01*
X44506265Y-93027180D02*
X44506265Y-93122419D01*
X44887217Y-92122419D02*
X45506264Y-92122419D01*
X45506264Y-92122419D02*
X45172931Y-92503371D01*
X45172931Y-92503371D02*
X45315788Y-92503371D01*
X45315788Y-92503371D02*
X45411026Y-92550990D01*
X45411026Y-92550990D02*
X45458645Y-92598609D01*
X45458645Y-92598609D02*
X45506264Y-92693847D01*
X45506264Y-92693847D02*
X45506264Y-92931942D01*
X45506264Y-92931942D02*
X45458645Y-93027180D01*
X45458645Y-93027180D02*
X45411026Y-93074800D01*
X45411026Y-93074800D02*
X45315788Y-93122419D01*
X45315788Y-93122419D02*
X45030074Y-93122419D01*
X45030074Y-93122419D02*
X44934836Y-93074800D01*
X44934836Y-93074800D02*
X44887217Y-93027180D01*
X46241980Y-93074800D02*
X46384837Y-93122419D01*
X46384837Y-93122419D02*
X46622932Y-93122419D01*
X46622932Y-93122419D02*
X46718170Y-93074800D01*
X46718170Y-93074800D02*
X46765789Y-93027180D01*
X46765789Y-93027180D02*
X46813408Y-92931942D01*
X46813408Y-92931942D02*
X46813408Y-92836704D01*
X46813408Y-92836704D02*
X46765789Y-92741466D01*
X46765789Y-92741466D02*
X46718170Y-92693847D01*
X46718170Y-92693847D02*
X46622932Y-92646228D01*
X46622932Y-92646228D02*
X46432456Y-92598609D01*
X46432456Y-92598609D02*
X46337218Y-92550990D01*
X46337218Y-92550990D02*
X46289599Y-92503371D01*
X46289599Y-92503371D02*
X46241980Y-92408133D01*
X46241980Y-92408133D02*
X46241980Y-92312895D01*
X46241980Y-92312895D02*
X46289599Y-92217657D01*
X46289599Y-92217657D02*
X46337218Y-92170038D01*
X46337218Y-92170038D02*
X46432456Y-92122419D01*
X46432456Y-92122419D02*
X46670551Y-92122419D01*
X46670551Y-92122419D02*
X46813408Y-92170038D01*
X47241980Y-93122419D02*
X47241980Y-92122419D01*
X48241979Y-92170038D02*
X48146741Y-92122419D01*
X48146741Y-92122419D02*
X48003884Y-92122419D01*
X48003884Y-92122419D02*
X47861027Y-92170038D01*
X47861027Y-92170038D02*
X47765789Y-92265276D01*
X47765789Y-92265276D02*
X47718170Y-92360514D01*
X47718170Y-92360514D02*
X47670551Y-92550990D01*
X47670551Y-92550990D02*
X47670551Y-92693847D01*
X47670551Y-92693847D02*
X47718170Y-92884323D01*
X47718170Y-92884323D02*
X47765789Y-92979561D01*
X47765789Y-92979561D02*
X47861027Y-93074800D01*
X47861027Y-93074800D02*
X48003884Y-93122419D01*
X48003884Y-93122419D02*
X48099122Y-93122419D01*
X48099122Y-93122419D02*
X48241979Y-93074800D01*
X48241979Y-93074800D02*
X48289598Y-93027180D01*
X48289598Y-93027180D02*
X48289598Y-92693847D01*
X48289598Y-92693847D02*
X48099122Y-92693847D01*
X49577693Y-92170038D02*
X49482455Y-92122419D01*
X49482455Y-92122419D02*
X49339598Y-92122419D01*
X49339598Y-92122419D02*
X49196741Y-92170038D01*
X49196741Y-92170038D02*
X49101503Y-92265276D01*
X49101503Y-92265276D02*
X49053884Y-92360514D01*
X49053884Y-92360514D02*
X49006265Y-92550990D01*
X49006265Y-92550990D02*
X49006265Y-92693847D01*
X49006265Y-92693847D02*
X49053884Y-92884323D01*
X49053884Y-92884323D02*
X49101503Y-92979561D01*
X49101503Y-92979561D02*
X49196741Y-93074800D01*
X49196741Y-93074800D02*
X49339598Y-93122419D01*
X49339598Y-93122419D02*
X49434836Y-93122419D01*
X49434836Y-93122419D02*
X49577693Y-93074800D01*
X49577693Y-93074800D02*
X49625312Y-93027180D01*
X49625312Y-93027180D02*
X49625312Y-92693847D01*
X49625312Y-92693847D02*
X49434836Y-92693847D01*
X50053884Y-93122419D02*
X50053884Y-92122419D01*
X50053884Y-92122419D02*
X50625312Y-93122419D01*
X50625312Y-93122419D02*
X50625312Y-92122419D01*
X51101503Y-93122419D02*
X51101503Y-92122419D01*
X51101503Y-92122419D02*
X51339598Y-92122419D01*
X51339598Y-92122419D02*
X51482455Y-92170038D01*
X51482455Y-92170038D02*
X51577693Y-92265276D01*
X51577693Y-92265276D02*
X51625312Y-92360514D01*
X51625312Y-92360514D02*
X51672931Y-92550990D01*
X51672931Y-92550990D02*
X51672931Y-92693847D01*
X51672931Y-92693847D02*
X51625312Y-92884323D01*
X51625312Y-92884323D02*
X51577693Y-92979561D01*
X51577693Y-92979561D02*
X51482455Y-93074800D01*
X51482455Y-93074800D02*
X51339598Y-93122419D01*
X51339598Y-93122419D02*
X51101503Y-93122419D01*
X39000000Y-78000000D02*
X55500000Y-78000000D01*
X55500000Y-94500000D01*
X39000000Y-94500000D01*
X39000000Y-78000000D01*
X23958646Y-92122419D02*
X24577693Y-92122419D01*
X24577693Y-92122419D02*
X24244360Y-92503371D01*
X24244360Y-92503371D02*
X24387217Y-92503371D01*
X24387217Y-92503371D02*
X24482455Y-92550990D01*
X24482455Y-92550990D02*
X24530074Y-92598609D01*
X24530074Y-92598609D02*
X24577693Y-92693847D01*
X24577693Y-92693847D02*
X24577693Y-92931942D01*
X24577693Y-92931942D02*
X24530074Y-93027180D01*
X24530074Y-93027180D02*
X24482455Y-93074800D01*
X24482455Y-93074800D02*
X24387217Y-93122419D01*
X24387217Y-93122419D02*
X24101503Y-93122419D01*
X24101503Y-93122419D02*
X24006265Y-93074800D01*
X24006265Y-93074800D02*
X23958646Y-93027180D01*
X25006265Y-93027180D02*
X25053884Y-93074800D01*
X25053884Y-93074800D02*
X25006265Y-93122419D01*
X25006265Y-93122419D02*
X24958646Y-93074800D01*
X24958646Y-93074800D02*
X25006265Y-93027180D01*
X25006265Y-93027180D02*
X25006265Y-93122419D01*
X25387217Y-92122419D02*
X26006264Y-92122419D01*
X26006264Y-92122419D02*
X25672931Y-92503371D01*
X25672931Y-92503371D02*
X25815788Y-92503371D01*
X25815788Y-92503371D02*
X25911026Y-92550990D01*
X25911026Y-92550990D02*
X25958645Y-92598609D01*
X25958645Y-92598609D02*
X26006264Y-92693847D01*
X26006264Y-92693847D02*
X26006264Y-92931942D01*
X26006264Y-92931942D02*
X25958645Y-93027180D01*
X25958645Y-93027180D02*
X25911026Y-93074800D01*
X25911026Y-93074800D02*
X25815788Y-93122419D01*
X25815788Y-93122419D02*
X25530074Y-93122419D01*
X25530074Y-93122419D02*
X25434836Y-93074800D01*
X25434836Y-93074800D02*
X25387217Y-93027180D01*
X26741980Y-93074800D02*
X26884837Y-93122419D01*
X26884837Y-93122419D02*
X27122932Y-93122419D01*
X27122932Y-93122419D02*
X27218170Y-93074800D01*
X27218170Y-93074800D02*
X27265789Y-93027180D01*
X27265789Y-93027180D02*
X27313408Y-92931942D01*
X27313408Y-92931942D02*
X27313408Y-92836704D01*
X27313408Y-92836704D02*
X27265789Y-92741466D01*
X27265789Y-92741466D02*
X27218170Y-92693847D01*
X27218170Y-92693847D02*
X27122932Y-92646228D01*
X27122932Y-92646228D02*
X26932456Y-92598609D01*
X26932456Y-92598609D02*
X26837218Y-92550990D01*
X26837218Y-92550990D02*
X26789599Y-92503371D01*
X26789599Y-92503371D02*
X26741980Y-92408133D01*
X26741980Y-92408133D02*
X26741980Y-92312895D01*
X26741980Y-92312895D02*
X26789599Y-92217657D01*
X26789599Y-92217657D02*
X26837218Y-92170038D01*
X26837218Y-92170038D02*
X26932456Y-92122419D01*
X26932456Y-92122419D02*
X27170551Y-92122419D01*
X27170551Y-92122419D02*
X27313408Y-92170038D01*
X27741980Y-93122419D02*
X27741980Y-92122419D01*
X28741979Y-92170038D02*
X28646741Y-92122419D01*
X28646741Y-92122419D02*
X28503884Y-92122419D01*
X28503884Y-92122419D02*
X28361027Y-92170038D01*
X28361027Y-92170038D02*
X28265789Y-92265276D01*
X28265789Y-92265276D02*
X28218170Y-92360514D01*
X28218170Y-92360514D02*
X28170551Y-92550990D01*
X28170551Y-92550990D02*
X28170551Y-92693847D01*
X28170551Y-92693847D02*
X28218170Y-92884323D01*
X28218170Y-92884323D02*
X28265789Y-92979561D01*
X28265789Y-92979561D02*
X28361027Y-93074800D01*
X28361027Y-93074800D02*
X28503884Y-93122419D01*
X28503884Y-93122419D02*
X28599122Y-93122419D01*
X28599122Y-93122419D02*
X28741979Y-93074800D01*
X28741979Y-93074800D02*
X28789598Y-93027180D01*
X28789598Y-93027180D02*
X28789598Y-92693847D01*
X28789598Y-92693847D02*
X28599122Y-92693847D01*
X30077693Y-92170038D02*
X29982455Y-92122419D01*
X29982455Y-92122419D02*
X29839598Y-92122419D01*
X29839598Y-92122419D02*
X29696741Y-92170038D01*
X29696741Y-92170038D02*
X29601503Y-92265276D01*
X29601503Y-92265276D02*
X29553884Y-92360514D01*
X29553884Y-92360514D02*
X29506265Y-92550990D01*
X29506265Y-92550990D02*
X29506265Y-92693847D01*
X29506265Y-92693847D02*
X29553884Y-92884323D01*
X29553884Y-92884323D02*
X29601503Y-92979561D01*
X29601503Y-92979561D02*
X29696741Y-93074800D01*
X29696741Y-93074800D02*
X29839598Y-93122419D01*
X29839598Y-93122419D02*
X29934836Y-93122419D01*
X29934836Y-93122419D02*
X30077693Y-93074800D01*
X30077693Y-93074800D02*
X30125312Y-93027180D01*
X30125312Y-93027180D02*
X30125312Y-92693847D01*
X30125312Y-92693847D02*
X29934836Y-92693847D01*
X30553884Y-93122419D02*
X30553884Y-92122419D01*
X30553884Y-92122419D02*
X31125312Y-93122419D01*
X31125312Y-93122419D02*
X31125312Y-92122419D01*
X31601503Y-93122419D02*
X31601503Y-92122419D01*
X31601503Y-92122419D02*
X31839598Y-92122419D01*
X31839598Y-92122419D02*
X31982455Y-92170038D01*
X31982455Y-92170038D02*
X32077693Y-92265276D01*
X32077693Y-92265276D02*
X32125312Y-92360514D01*
X32125312Y-92360514D02*
X32172931Y-92550990D01*
X32172931Y-92550990D02*
X32172931Y-92693847D01*
X32172931Y-92693847D02*
X32125312Y-92884323D01*
X32125312Y-92884323D02*
X32077693Y-92979561D01*
X32077693Y-92979561D02*
X31982455Y-93074800D01*
X31982455Y-93074800D02*
X31839598Y-93122419D01*
X31839598Y-93122419D02*
X31601503Y-93122419D01*
X19500000Y-78000000D02*
X36000000Y-78000000D01*
X36000000Y-94500000D01*
X19500000Y-94500000D01*
X19500000Y-78000000D01*
X4458646Y-92122419D02*
X5077693Y-92122419D01*
X5077693Y-92122419D02*
X4744360Y-92503371D01*
X4744360Y-92503371D02*
X4887217Y-92503371D01*
X4887217Y-92503371D02*
X4982455Y-92550990D01*
X4982455Y-92550990D02*
X5030074Y-92598609D01*
X5030074Y-92598609D02*
X5077693Y-92693847D01*
X5077693Y-92693847D02*
X5077693Y-92931942D01*
X5077693Y-92931942D02*
X5030074Y-93027180D01*
X5030074Y-93027180D02*
X4982455Y-93074800D01*
X4982455Y-93074800D02*
X4887217Y-93122419D01*
X4887217Y-93122419D02*
X4601503Y-93122419D01*
X4601503Y-93122419D02*
X4506265Y-93074800D01*
X4506265Y-93074800D02*
X4458646Y-93027180D01*
X5506265Y-93027180D02*
X5553884Y-93074800D01*
X5553884Y-93074800D02*
X5506265Y-93122419D01*
X5506265Y-93122419D02*
X5458646Y-93074800D01*
X5458646Y-93074800D02*
X5506265Y-93027180D01*
X5506265Y-93027180D02*
X5506265Y-93122419D01*
X5887217Y-92122419D02*
X6506264Y-92122419D01*
X6506264Y-92122419D02*
X6172931Y-92503371D01*
X6172931Y-92503371D02*
X6315788Y-92503371D01*
X6315788Y-92503371D02*
X6411026Y-92550990D01*
X6411026Y-92550990D02*
X6458645Y-92598609D01*
X6458645Y-92598609D02*
X6506264Y-92693847D01*
X6506264Y-92693847D02*
X6506264Y-92931942D01*
X6506264Y-92931942D02*
X6458645Y-93027180D01*
X6458645Y-93027180D02*
X6411026Y-93074800D01*
X6411026Y-93074800D02*
X6315788Y-93122419D01*
X6315788Y-93122419D02*
X6030074Y-93122419D01*
X6030074Y-93122419D02*
X5934836Y-93074800D01*
X5934836Y-93074800D02*
X5887217Y-93027180D01*
X0Y-78000000D02*
X16500000Y-78000000D01*
X16500000Y-94500000D01*
X0Y-94500000D01*
X0Y-78000000D01*
X7241980Y-93074800D02*
X7384837Y-93122419D01*
X7384837Y-93122419D02*
X7622932Y-93122419D01*
X7622932Y-93122419D02*
X7718170Y-93074800D01*
X7718170Y-93074800D02*
X7765789Y-93027180D01*
X7765789Y-93027180D02*
X7813408Y-92931942D01*
X7813408Y-92931942D02*
X7813408Y-92836704D01*
X7813408Y-92836704D02*
X7765789Y-92741466D01*
X7765789Y-92741466D02*
X7718170Y-92693847D01*
X7718170Y-92693847D02*
X7622932Y-92646228D01*
X7622932Y-92646228D02*
X7432456Y-92598609D01*
X7432456Y-92598609D02*
X7337218Y-92550990D01*
X7337218Y-92550990D02*
X7289599Y-92503371D01*
X7289599Y-92503371D02*
X7241980Y-92408133D01*
X7241980Y-92408133D02*
X7241980Y-92312895D01*
X7241980Y-92312895D02*
X7289599Y-92217657D01*
X7289599Y-92217657D02*
X7337218Y-92170038D01*
X7337218Y-92170038D02*
X7432456Y-92122419D01*
X7432456Y-92122419D02*
X7670551Y-92122419D01*
X7670551Y-92122419D02*
X7813408Y-92170038D01*
X8241980Y-93122419D02*
X8241980Y-92122419D01*
X9241979Y-92170038D02*
X9146741Y-92122419D01*
X9146741Y-92122419D02*
X9003884Y-92122419D01*
X9003884Y-92122419D02*
X8861027Y-92170038D01*
X8861027Y-92170038D02*
X8765789Y-92265276D01*
X8765789Y-92265276D02*
X8718170Y-92360514D01*
X8718170Y-92360514D02*
X8670551Y-92550990D01*
X8670551Y-92550990D02*
X8670551Y-92693847D01*
X8670551Y-92693847D02*
X8718170Y-92884323D01*
X8718170Y-92884323D02*
X8765789Y-92979561D01*
X8765789Y-92979561D02*
X8861027Y-93074800D01*
X8861027Y-93074800D02*
X9003884Y-93122419D01*
X9003884Y-93122419D02*
X9099122Y-93122419D01*
X9099122Y-93122419D02*
X9241979Y-93074800D01*
X9241979Y-93074800D02*
X9289598Y-93027180D01*
X9289598Y-93027180D02*
X9289598Y-92693847D01*
X9289598Y-92693847D02*
X9099122Y-92693847D01*
X10577693Y-92170038D02*
X10482455Y-92122419D01*
X10482455Y-92122419D02*
X10339598Y-92122419D01*
X10339598Y-92122419D02*
X10196741Y-92170038D01*
X10196741Y-92170038D02*
X10101503Y-92265276D01*
X10101503Y-92265276D02*
X10053884Y-92360514D01*
X10053884Y-92360514D02*
X10006265Y-92550990D01*
X10006265Y-92550990D02*
X10006265Y-92693847D01*
X10006265Y-92693847D02*
X10053884Y-92884323D01*
X10053884Y-92884323D02*
X10101503Y-92979561D01*
X10101503Y-92979561D02*
X10196741Y-93074800D01*
X10196741Y-93074800D02*
X10339598Y-93122419D01*
X10339598Y-93122419D02*
X10434836Y-93122419D01*
X10434836Y-93122419D02*
X10577693Y-93074800D01*
X10577693Y-93074800D02*
X10625312Y-93027180D01*
X10625312Y-93027180D02*
X10625312Y-92693847D01*
X10625312Y-92693847D02*
X10434836Y-92693847D01*
X11053884Y-93122419D02*
X11053884Y-92122419D01*
X11053884Y-92122419D02*
X11625312Y-93122419D01*
X11625312Y-93122419D02*
X11625312Y-92122419D01*
X12101503Y-93122419D02*
X12101503Y-92122419D01*
X12101503Y-92122419D02*
X12339598Y-92122419D01*
X12339598Y-92122419D02*
X12482455Y-92170038D01*
X12482455Y-92170038D02*
X12577693Y-92265276D01*
X12577693Y-92265276D02*
X12625312Y-92360514D01*
X12625312Y-92360514D02*
X12672931Y-92550990D01*
X12672931Y-92550990D02*
X12672931Y-92693847D01*
X12672931Y-92693847D02*
X12625312Y-92884323D01*
X12625312Y-92884323D02*
X12577693Y-92979561D01*
X12577693Y-92979561D02*
X12482455Y-93074800D01*
X12482455Y-93074800D02*
X12339598Y-93122419D01*
X12339598Y-93122419D02*
X12101503Y-93122419D01*
X82458646Y-72622419D02*
X83077693Y-72622419D01*
X83077693Y-72622419D02*
X82744360Y-73003371D01*
X82744360Y-73003371D02*
X82887217Y-73003371D01*
X82887217Y-73003371D02*
X82982455Y-73050990D01*
X82982455Y-73050990D02*
X83030074Y-73098609D01*
X83030074Y-73098609D02*
X83077693Y-73193847D01*
X83077693Y-73193847D02*
X83077693Y-73431942D01*
X83077693Y-73431942D02*
X83030074Y-73527180D01*
X83030074Y-73527180D02*
X82982455Y-73574800D01*
X82982455Y-73574800D02*
X82887217Y-73622419D01*
X82887217Y-73622419D02*
X82601503Y-73622419D01*
X82601503Y-73622419D02*
X82506265Y-73574800D01*
X82506265Y-73574800D02*
X82458646Y-73527180D01*
X83506265Y-73527180D02*
X83553884Y-73574800D01*
X83553884Y-73574800D02*
X83506265Y-73622419D01*
X83506265Y-73622419D02*
X83458646Y-73574800D01*
X83458646Y-73574800D02*
X83506265Y-73527180D01*
X83506265Y-73527180D02*
X83506265Y-73622419D01*
X83887217Y-72622419D02*
X84506264Y-72622419D01*
X84506264Y-72622419D02*
X84172931Y-73003371D01*
X84172931Y-73003371D02*
X84315788Y-73003371D01*
X84315788Y-73003371D02*
X84411026Y-73050990D01*
X84411026Y-73050990D02*
X84458645Y-73098609D01*
X84458645Y-73098609D02*
X84506264Y-73193847D01*
X84506264Y-73193847D02*
X84506264Y-73431942D01*
X84506264Y-73431942D02*
X84458645Y-73527180D01*
X84458645Y-73527180D02*
X84411026Y-73574800D01*
X84411026Y-73574800D02*
X84315788Y-73622419D01*
X84315788Y-73622419D02*
X84030074Y-73622419D01*
X84030074Y-73622419D02*
X83934836Y-73574800D01*
X83934836Y-73574800D02*
X83887217Y-73527180D01*
X85241980Y-73574800D02*
X85384837Y-73622419D01*
X85384837Y-73622419D02*
X85622932Y-73622419D01*
X85622932Y-73622419D02*
X85718170Y-73574800D01*
X85718170Y-73574800D02*
X85765789Y-73527180D01*
X85765789Y-73527180D02*
X85813408Y-73431942D01*
X85813408Y-73431942D02*
X85813408Y-73336704D01*
X85813408Y-73336704D02*
X85765789Y-73241466D01*
X85765789Y-73241466D02*
X85718170Y-73193847D01*
X85718170Y-73193847D02*
X85622932Y-73146228D01*
X85622932Y-73146228D02*
X85432456Y-73098609D01*
X85432456Y-73098609D02*
X85337218Y-73050990D01*
X85337218Y-73050990D02*
X85289599Y-73003371D01*
X85289599Y-73003371D02*
X85241980Y-72908133D01*
X85241980Y-72908133D02*
X85241980Y-72812895D01*
X85241980Y-72812895D02*
X85289599Y-72717657D01*
X85289599Y-72717657D02*
X85337218Y-72670038D01*
X85337218Y-72670038D02*
X85432456Y-72622419D01*
X85432456Y-72622419D02*
X85670551Y-72622419D01*
X85670551Y-72622419D02*
X85813408Y-72670038D01*
X86241980Y-73622419D02*
X86241980Y-72622419D01*
X87241979Y-72670038D02*
X87146741Y-72622419D01*
X87146741Y-72622419D02*
X87003884Y-72622419D01*
X87003884Y-72622419D02*
X86861027Y-72670038D01*
X86861027Y-72670038D02*
X86765789Y-72765276D01*
X86765789Y-72765276D02*
X86718170Y-72860514D01*
X86718170Y-72860514D02*
X86670551Y-73050990D01*
X86670551Y-73050990D02*
X86670551Y-73193847D01*
X86670551Y-73193847D02*
X86718170Y-73384323D01*
X86718170Y-73384323D02*
X86765789Y-73479561D01*
X86765789Y-73479561D02*
X86861027Y-73574800D01*
X86861027Y-73574800D02*
X87003884Y-73622419D01*
X87003884Y-73622419D02*
X87099122Y-73622419D01*
X87099122Y-73622419D02*
X87241979Y-73574800D01*
X87241979Y-73574800D02*
X87289598Y-73527180D01*
X87289598Y-73527180D02*
X87289598Y-73193847D01*
X87289598Y-73193847D02*
X87099122Y-73193847D01*
X88577693Y-72670038D02*
X88482455Y-72622419D01*
X88482455Y-72622419D02*
X88339598Y-72622419D01*
X88339598Y-72622419D02*
X88196741Y-72670038D01*
X88196741Y-72670038D02*
X88101503Y-72765276D01*
X88101503Y-72765276D02*
X88053884Y-72860514D01*
X88053884Y-72860514D02*
X88006265Y-73050990D01*
X88006265Y-73050990D02*
X88006265Y-73193847D01*
X88006265Y-73193847D02*
X88053884Y-73384323D01*
X88053884Y-73384323D02*
X88101503Y-73479561D01*
X88101503Y-73479561D02*
X88196741Y-73574800D01*
X88196741Y-73574800D02*
X88339598Y-73622419D01*
X88339598Y-73622419D02*
X88434836Y-73622419D01*
X88434836Y-73622419D02*
X88577693Y-73574800D01*
X88577693Y-73574800D02*
X88625312Y-73527180D01*
X88625312Y-73527180D02*
X88625312Y-73193847D01*
X88625312Y-73193847D02*
X88434836Y-73193847D01*
X89053884Y-73622419D02*
X89053884Y-72622419D01*
X89053884Y-72622419D02*
X89625312Y-73622419D01*
X89625312Y-73622419D02*
X89625312Y-72622419D01*
X90101503Y-73622419D02*
X90101503Y-72622419D01*
X90101503Y-72622419D02*
X90339598Y-72622419D01*
X90339598Y-72622419D02*
X90482455Y-72670038D01*
X90482455Y-72670038D02*
X90577693Y-72765276D01*
X90577693Y-72765276D02*
X90625312Y-72860514D01*
X90625312Y-72860514D02*
X90672931Y-73050990D01*
X90672931Y-73050990D02*
X90672931Y-73193847D01*
X90672931Y-73193847D02*
X90625312Y-73384323D01*
X90625312Y-73384323D02*
X90577693Y-73479561D01*
X90577693Y-73479561D02*
X90482455Y-73574800D01*
X90482455Y-73574800D02*
X90339598Y-73622419D01*
X90339598Y-73622419D02*
X90101503Y-73622419D01*
X78000000Y-58500000D02*
X94500000Y-58500000D01*
X94500000Y-75000000D01*
X78000000Y-75000000D01*
X78000000Y-58500000D01*
X62958646Y-72622419D02*
X63577693Y-72622419D01*
X63577693Y-72622419D02*
X63244360Y-73003371D01*
X63244360Y-73003371D02*
X63387217Y-73003371D01*
X63387217Y-73003371D02*
X63482455Y-73050990D01*
X63482455Y-73050990D02*
X63530074Y-73098609D01*
X63530074Y-73098609D02*
X63577693Y-73193847D01*
X63577693Y-73193847D02*
X63577693Y-73431942D01*
X63577693Y-73431942D02*
X63530074Y-73527180D01*
X63530074Y-73527180D02*
X63482455Y-73574800D01*
X63482455Y-73574800D02*
X63387217Y-73622419D01*
X63387217Y-73622419D02*
X63101503Y-73622419D01*
X63101503Y-73622419D02*
X63006265Y-73574800D01*
X63006265Y-73574800D02*
X62958646Y-73527180D01*
X64006265Y-73527180D02*
X64053884Y-73574800D01*
X64053884Y-73574800D02*
X64006265Y-73622419D01*
X64006265Y-73622419D02*
X63958646Y-73574800D01*
X63958646Y-73574800D02*
X64006265Y-73527180D01*
X64006265Y-73527180D02*
X64006265Y-73622419D01*
X64387217Y-72622419D02*
X65006264Y-72622419D01*
X65006264Y-72622419D02*
X64672931Y-73003371D01*
X64672931Y-73003371D02*
X64815788Y-73003371D01*
X64815788Y-73003371D02*
X64911026Y-73050990D01*
X64911026Y-73050990D02*
X64958645Y-73098609D01*
X64958645Y-73098609D02*
X65006264Y-73193847D01*
X65006264Y-73193847D02*
X65006264Y-73431942D01*
X65006264Y-73431942D02*
X64958645Y-73527180D01*
X64958645Y-73527180D02*
X64911026Y-73574800D01*
X64911026Y-73574800D02*
X64815788Y-73622419D01*
X64815788Y-73622419D02*
X64530074Y-73622419D01*
X64530074Y-73622419D02*
X64434836Y-73574800D01*
X64434836Y-73574800D02*
X64387217Y-73527180D01*
X65741980Y-73574800D02*
X65884837Y-73622419D01*
X65884837Y-73622419D02*
X66122932Y-73622419D01*
X66122932Y-73622419D02*
X66218170Y-73574800D01*
X66218170Y-73574800D02*
X66265789Y-73527180D01*
X66265789Y-73527180D02*
X66313408Y-73431942D01*
X66313408Y-73431942D02*
X66313408Y-73336704D01*
X66313408Y-73336704D02*
X66265789Y-73241466D01*
X66265789Y-73241466D02*
X66218170Y-73193847D01*
X66218170Y-73193847D02*
X66122932Y-73146228D01*
X66122932Y-73146228D02*
X65932456Y-73098609D01*
X65932456Y-73098609D02*
X65837218Y-73050990D01*
X65837218Y-73050990D02*
X65789599Y-73003371D01*
X65789599Y-73003371D02*
X65741980Y-72908133D01*
X65741980Y-72908133D02*
X65741980Y-72812895D01*
X65741980Y-72812895D02*
X65789599Y-72717657D01*
X65789599Y-72717657D02*
X65837218Y-72670038D01*
X65837218Y-72670038D02*
X65932456Y-72622419D01*
X65932456Y-72622419D02*
X66170551Y-72622419D01*
X66170551Y-72622419D02*
X66313408Y-72670038D01*
X66741980Y-73622419D02*
X66741980Y-72622419D01*
X67741979Y-72670038D02*
X67646741Y-72622419D01*
X67646741Y-72622419D02*
X67503884Y-72622419D01*
X67503884Y-72622419D02*
X67361027Y-72670038D01*
X67361027Y-72670038D02*
X67265789Y-72765276D01*
X67265789Y-72765276D02*
X67218170Y-72860514D01*
X67218170Y-72860514D02*
X67170551Y-73050990D01*
X67170551Y-73050990D02*
X67170551Y-73193847D01*
X67170551Y-73193847D02*
X67218170Y-73384323D01*
X67218170Y-73384323D02*
X67265789Y-73479561D01*
X67265789Y-73479561D02*
X67361027Y-73574800D01*
X67361027Y-73574800D02*
X67503884Y-73622419D01*
X67503884Y-73622419D02*
X67599122Y-73622419D01*
X67599122Y-73622419D02*
X67741979Y-73574800D01*
X67741979Y-73574800D02*
X67789598Y-73527180D01*
X67789598Y-73527180D02*
X67789598Y-73193847D01*
X67789598Y-73193847D02*
X67599122Y-73193847D01*
X69077693Y-72670038D02*
X68982455Y-72622419D01*
X68982455Y-72622419D02*
X68839598Y-72622419D01*
X68839598Y-72622419D02*
X68696741Y-72670038D01*
X68696741Y-72670038D02*
X68601503Y-72765276D01*
X68601503Y-72765276D02*
X68553884Y-72860514D01*
X68553884Y-72860514D02*
X68506265Y-73050990D01*
X68506265Y-73050990D02*
X68506265Y-73193847D01*
X68506265Y-73193847D02*
X68553884Y-73384323D01*
X68553884Y-73384323D02*
X68601503Y-73479561D01*
X68601503Y-73479561D02*
X68696741Y-73574800D01*
X68696741Y-73574800D02*
X68839598Y-73622419D01*
X68839598Y-73622419D02*
X68934836Y-73622419D01*
X68934836Y-73622419D02*
X69077693Y-73574800D01*
X69077693Y-73574800D02*
X69125312Y-73527180D01*
X69125312Y-73527180D02*
X69125312Y-73193847D01*
X69125312Y-73193847D02*
X68934836Y-73193847D01*
X69553884Y-73622419D02*
X69553884Y-72622419D01*
X69553884Y-72622419D02*
X70125312Y-73622419D01*
X70125312Y-73622419D02*
X70125312Y-72622419D01*
X70601503Y-73622419D02*
X70601503Y-72622419D01*
X70601503Y-72622419D02*
X70839598Y-72622419D01*
X70839598Y-72622419D02*
X70982455Y-72670038D01*
X70982455Y-72670038D02*
X71077693Y-72765276D01*
X71077693Y-72765276D02*
X71125312Y-72860514D01*
X71125312Y-72860514D02*
X71172931Y-73050990D01*
X71172931Y-73050990D02*
X71172931Y-73193847D01*
X71172931Y-73193847D02*
X71125312Y-73384323D01*
X71125312Y-73384323D02*
X71077693Y-73479561D01*
X71077693Y-73479561D02*
X70982455Y-73574800D01*
X70982455Y-73574800D02*
X70839598Y-73622419D01*
X70839598Y-73622419D02*
X70601503Y-73622419D01*
X58500000Y-58500000D02*
X75000000Y-58500000D01*
X75000000Y-75000000D01*
X58500000Y-75000000D01*
X58500000Y-58500000D01*
X43458646Y-72622419D02*
X44077693Y-72622419D01*
X44077693Y-72622419D02*
X43744360Y-73003371D01*
X43744360Y-73003371D02*
X43887217Y-73003371D01*
X43887217Y-73003371D02*
X43982455Y-73050990D01*
X43982455Y-73050990D02*
X44030074Y-73098609D01*
X44030074Y-73098609D02*
X44077693Y-73193847D01*
X44077693Y-73193847D02*
X44077693Y-73431942D01*
X44077693Y-73431942D02*
X44030074Y-73527180D01*
X44030074Y-73527180D02*
X43982455Y-73574800D01*
X43982455Y-73574800D02*
X43887217Y-73622419D01*
X43887217Y-73622419D02*
X43601503Y-73622419D01*
X43601503Y-73622419D02*
X43506265Y-73574800D01*
X43506265Y-73574800D02*
X43458646Y-73527180D01*
X44506265Y-73527180D02*
X44553884Y-73574800D01*
X44553884Y-73574800D02*
X44506265Y-73622419D01*
X44506265Y-73622419D02*
X44458646Y-73574800D01*
X44458646Y-73574800D02*
X44506265Y-73527180D01*
X44506265Y-73527180D02*
X44506265Y-73622419D01*
X44887217Y-72622419D02*
X45506264Y-72622419D01*
X45506264Y-72622419D02*
X45172931Y-73003371D01*
X45172931Y-73003371D02*
X45315788Y-73003371D01*
X45315788Y-73003371D02*
X45411026Y-73050990D01*
X45411026Y-73050990D02*
X45458645Y-73098609D01*
X45458645Y-73098609D02*
X45506264Y-73193847D01*
X45506264Y-73193847D02*
X45506264Y-73431942D01*
X45506264Y-73431942D02*
X45458645Y-73527180D01*
X45458645Y-73527180D02*
X45411026Y-73574800D01*
X45411026Y-73574800D02*
X45315788Y-73622419D01*
X45315788Y-73622419D02*
X45030074Y-73622419D01*
X45030074Y-73622419D02*
X44934836Y-73574800D01*
X44934836Y-73574800D02*
X44887217Y-73527180D01*
X46241980Y-73574800D02*
X46384837Y-73622419D01*
X46384837Y-73622419D02*
X46622932Y-73622419D01*
X46622932Y-73622419D02*
X46718170Y-73574800D01*
X46718170Y-73574800D02*
X46765789Y-73527180D01*
X46765789Y-73527180D02*
X46813408Y-73431942D01*
X46813408Y-73431942D02*
X46813408Y-73336704D01*
X46813408Y-73336704D02*
X46765789Y-73241466D01*
X46765789Y-73241466D02*
X46718170Y-73193847D01*
X46718170Y-73193847D02*
X46622932Y-73146228D01*
X46622932Y-73146228D02*
X46432456Y-73098609D01*
X46432456Y-73098609D02*
X46337218Y-73050990D01*
X46337218Y-73050990D02*
X46289599Y-73003371D01*
X46289599Y-73003371D02*
X46241980Y-72908133D01*
X46241980Y-72908133D02*
X46241980Y-72812895D01*
X46241980Y-72812895D02*
X46289599Y-72717657D01*
X46289599Y-72717657D02*
X46337218Y-72670038D01*
X46337218Y-72670038D02*
X46432456Y-72622419D01*
X46432456Y-72622419D02*
X46670551Y-72622419D01*
X46670551Y-72622419D02*
X46813408Y-72670038D01*
X47241980Y-73622419D02*
X47241980Y-72622419D01*
X48241979Y-72670038D02*
X48146741Y-72622419D01*
X48146741Y-72622419D02*
X48003884Y-72622419D01*
X48003884Y-72622419D02*
X47861027Y-72670038D01*
X47861027Y-72670038D02*
X47765789Y-72765276D01*
X47765789Y-72765276D02*
X47718170Y-72860514D01*
X47718170Y-72860514D02*
X47670551Y-73050990D01*
X47670551Y-73050990D02*
X47670551Y-73193847D01*
X47670551Y-73193847D02*
X47718170Y-73384323D01*
X47718170Y-73384323D02*
X47765789Y-73479561D01*
X47765789Y-73479561D02*
X47861027Y-73574800D01*
X47861027Y-73574800D02*
X48003884Y-73622419D01*
X48003884Y-73622419D02*
X48099122Y-73622419D01*
X48099122Y-73622419D02*
X48241979Y-73574800D01*
X48241979Y-73574800D02*
X48289598Y-73527180D01*
X48289598Y-73527180D02*
X48289598Y-73193847D01*
X48289598Y-73193847D02*
X48099122Y-73193847D01*
X49577693Y-72670038D02*
X49482455Y-72622419D01*
X49482455Y-72622419D02*
X49339598Y-72622419D01*
X49339598Y-72622419D02*
X49196741Y-72670038D01*
X49196741Y-72670038D02*
X49101503Y-72765276D01*
X49101503Y-72765276D02*
X49053884Y-72860514D01*
X49053884Y-72860514D02*
X49006265Y-73050990D01*
X49006265Y-73050990D02*
X49006265Y-73193847D01*
X49006265Y-73193847D02*
X49053884Y-73384323D01*
X49053884Y-73384323D02*
X49101503Y-73479561D01*
X49101503Y-73479561D02*
X49196741Y-73574800D01*
X49196741Y-73574800D02*
X49339598Y-73622419D01*
X49339598Y-73622419D02*
X49434836Y-73622419D01*
X49434836Y-73622419D02*
X49577693Y-73574800D01*
X49577693Y-73574800D02*
X49625312Y-73527180D01*
X49625312Y-73527180D02*
X49625312Y-73193847D01*
X49625312Y-73193847D02*
X49434836Y-73193847D01*
X50053884Y-73622419D02*
X50053884Y-72622419D01*
X50053884Y-72622419D02*
X50625312Y-73622419D01*
X50625312Y-73622419D02*
X50625312Y-72622419D01*
X51101503Y-73622419D02*
X51101503Y-72622419D01*
X51101503Y-72622419D02*
X51339598Y-72622419D01*
X51339598Y-72622419D02*
X51482455Y-72670038D01*
X51482455Y-72670038D02*
X51577693Y-72765276D01*
X51577693Y-72765276D02*
X51625312Y-72860514D01*
X51625312Y-72860514D02*
X51672931Y-73050990D01*
X51672931Y-73050990D02*
X51672931Y-73193847D01*
X51672931Y-73193847D02*
X51625312Y-73384323D01*
X51625312Y-73384323D02*
X51577693Y-73479561D01*
X51577693Y-73479561D02*
X51482455Y-73574800D01*
X51482455Y-73574800D02*
X51339598Y-73622419D01*
X51339598Y-73622419D02*
X51101503Y-73622419D01*
X39000000Y-58500000D02*
X55500000Y-58500000D01*
X55500000Y-75000000D01*
X39000000Y-75000000D01*
X39000000Y-58500000D01*
X23958646Y-72622419D02*
X24577693Y-72622419D01*
X24577693Y-72622419D02*
X24244360Y-73003371D01*
X24244360Y-73003371D02*
X24387217Y-73003371D01*
X24387217Y-73003371D02*
X24482455Y-73050990D01*
X24482455Y-73050990D02*
X24530074Y-73098609D01*
X24530074Y-73098609D02*
X24577693Y-73193847D01*
X24577693Y-73193847D02*
X24577693Y-73431942D01*
X24577693Y-73431942D02*
X24530074Y-73527180D01*
X24530074Y-73527180D02*
X24482455Y-73574800D01*
X24482455Y-73574800D02*
X24387217Y-73622419D01*
X24387217Y-73622419D02*
X24101503Y-73622419D01*
X24101503Y-73622419D02*
X24006265Y-73574800D01*
X24006265Y-73574800D02*
X23958646Y-73527180D01*
X25006265Y-73527180D02*
X25053884Y-73574800D01*
X25053884Y-73574800D02*
X25006265Y-73622419D01*
X25006265Y-73622419D02*
X24958646Y-73574800D01*
X24958646Y-73574800D02*
X25006265Y-73527180D01*
X25006265Y-73527180D02*
X25006265Y-73622419D01*
X25387217Y-72622419D02*
X26006264Y-72622419D01*
X26006264Y-72622419D02*
X25672931Y-73003371D01*
X25672931Y-73003371D02*
X25815788Y-73003371D01*
X25815788Y-73003371D02*
X25911026Y-73050990D01*
X25911026Y-73050990D02*
X25958645Y-73098609D01*
X25958645Y-73098609D02*
X26006264Y-73193847D01*
X26006264Y-73193847D02*
X26006264Y-73431942D01*
X26006264Y-73431942D02*
X25958645Y-73527180D01*
X25958645Y-73527180D02*
X25911026Y-73574800D01*
X25911026Y-73574800D02*
X25815788Y-73622419D01*
X25815788Y-73622419D02*
X25530074Y-73622419D01*
X25530074Y-73622419D02*
X25434836Y-73574800D01*
X25434836Y-73574800D02*
X25387217Y-73527180D01*
X26741980Y-73574800D02*
X26884837Y-73622419D01*
X26884837Y-73622419D02*
X27122932Y-73622419D01*
X27122932Y-73622419D02*
X27218170Y-73574800D01*
X27218170Y-73574800D02*
X27265789Y-73527180D01*
X27265789Y-73527180D02*
X27313408Y-73431942D01*
X27313408Y-73431942D02*
X27313408Y-73336704D01*
X27313408Y-73336704D02*
X27265789Y-73241466D01*
X27265789Y-73241466D02*
X27218170Y-73193847D01*
X27218170Y-73193847D02*
X27122932Y-73146228D01*
X27122932Y-73146228D02*
X26932456Y-73098609D01*
X26932456Y-73098609D02*
X26837218Y-73050990D01*
X26837218Y-73050990D02*
X26789599Y-73003371D01*
X26789599Y-73003371D02*
X26741980Y-72908133D01*
X26741980Y-72908133D02*
X26741980Y-72812895D01*
X26741980Y-72812895D02*
X26789599Y-72717657D01*
X26789599Y-72717657D02*
X26837218Y-72670038D01*
X26837218Y-72670038D02*
X26932456Y-72622419D01*
X26932456Y-72622419D02*
X27170551Y-72622419D01*
X27170551Y-72622419D02*
X27313408Y-72670038D01*
X27741980Y-73622419D02*
X27741980Y-72622419D01*
X28741979Y-72670038D02*
X28646741Y-72622419D01*
X28646741Y-72622419D02*
X28503884Y-72622419D01*
X28503884Y-72622419D02*
X28361027Y-72670038D01*
X28361027Y-72670038D02*
X28265789Y-72765276D01*
X28265789Y-72765276D02*
X28218170Y-72860514D01*
X28218170Y-72860514D02*
X28170551Y-73050990D01*
X28170551Y-73050990D02*
X28170551Y-73193847D01*
X28170551Y-73193847D02*
X28218170Y-73384323D01*
X28218170Y-73384323D02*
X28265789Y-73479561D01*
X28265789Y-73479561D02*
X28361027Y-73574800D01*
X28361027Y-73574800D02*
X28503884Y-73622419D01*
X28503884Y-73622419D02*
X28599122Y-73622419D01*
X28599122Y-73622419D02*
X28741979Y-73574800D01*
X28741979Y-73574800D02*
X28789598Y-73527180D01*
X28789598Y-73527180D02*
X28789598Y-73193847D01*
X28789598Y-73193847D02*
X28599122Y-73193847D01*
X30077693Y-72670038D02*
X29982455Y-72622419D01*
X29982455Y-72622419D02*
X29839598Y-72622419D01*
X29839598Y-72622419D02*
X29696741Y-72670038D01*
X29696741Y-72670038D02*
X29601503Y-72765276D01*
X29601503Y-72765276D02*
X29553884Y-72860514D01*
X29553884Y-72860514D02*
X29506265Y-73050990D01*
X29506265Y-73050990D02*
X29506265Y-73193847D01*
X29506265Y-73193847D02*
X29553884Y-73384323D01*
X29553884Y-73384323D02*
X29601503Y-73479561D01*
X29601503Y-73479561D02*
X29696741Y-73574800D01*
X29696741Y-73574800D02*
X29839598Y-73622419D01*
X29839598Y-73622419D02*
X29934836Y-73622419D01*
X29934836Y-73622419D02*
X30077693Y-73574800D01*
X30077693Y-73574800D02*
X30125312Y-73527180D01*
X30125312Y-73527180D02*
X30125312Y-73193847D01*
X30125312Y-73193847D02*
X29934836Y-73193847D01*
X30553884Y-73622419D02*
X30553884Y-72622419D01*
X30553884Y-72622419D02*
X31125312Y-73622419D01*
X31125312Y-73622419D02*
X31125312Y-72622419D01*
X31601503Y-73622419D02*
X31601503Y-72622419D01*
X31601503Y-72622419D02*
X31839598Y-72622419D01*
X31839598Y-72622419D02*
X31982455Y-72670038D01*
X31982455Y-72670038D02*
X32077693Y-72765276D01*
X32077693Y-72765276D02*
X32125312Y-72860514D01*
X32125312Y-72860514D02*
X32172931Y-73050990D01*
X32172931Y-73050990D02*
X32172931Y-73193847D01*
X32172931Y-73193847D02*
X32125312Y-73384323D01*
X32125312Y-73384323D02*
X32077693Y-73479561D01*
X32077693Y-73479561D02*
X31982455Y-73574800D01*
X31982455Y-73574800D02*
X31839598Y-73622419D01*
X31839598Y-73622419D02*
X31601503Y-73622419D01*
X19500000Y-58500000D02*
X36000000Y-58500000D01*
X36000000Y-75000000D01*
X19500000Y-75000000D01*
X19500000Y-58500000D01*
X4458646Y-72622419D02*
X5077693Y-72622419D01*
X5077693Y-72622419D02*
X4744360Y-73003371D01*
X4744360Y-73003371D02*
X4887217Y-73003371D01*
X4887217Y-73003371D02*
X4982455Y-73050990D01*
X4982455Y-73050990D02*
X5030074Y-73098609D01*
X5030074Y-73098609D02*
X5077693Y-73193847D01*
X5077693Y-73193847D02*
X5077693Y-73431942D01*
X5077693Y-73431942D02*
X5030074Y-73527180D01*
X5030074Y-73527180D02*
X4982455Y-73574800D01*
X4982455Y-73574800D02*
X4887217Y-73622419D01*
X4887217Y-73622419D02*
X4601503Y-73622419D01*
X4601503Y-73622419D02*
X4506265Y-73574800D01*
X4506265Y-73574800D02*
X4458646Y-73527180D01*
X5506265Y-73527180D02*
X5553884Y-73574800D01*
X5553884Y-73574800D02*
X5506265Y-73622419D01*
X5506265Y-73622419D02*
X5458646Y-73574800D01*
X5458646Y-73574800D02*
X5506265Y-73527180D01*
X5506265Y-73527180D02*
X5506265Y-73622419D01*
X5887217Y-72622419D02*
X6506264Y-72622419D01*
X6506264Y-72622419D02*
X6172931Y-73003371D01*
X6172931Y-73003371D02*
X6315788Y-73003371D01*
X6315788Y-73003371D02*
X6411026Y-73050990D01*
X6411026Y-73050990D02*
X6458645Y-73098609D01*
X6458645Y-73098609D02*
X6506264Y-73193847D01*
X6506264Y-73193847D02*
X6506264Y-73431942D01*
X6506264Y-73431942D02*
X6458645Y-73527180D01*
X6458645Y-73527180D02*
X6411026Y-73574800D01*
X6411026Y-73574800D02*
X6315788Y-73622419D01*
X6315788Y-73622419D02*
X6030074Y-73622419D01*
X6030074Y-73622419D02*
X5934836Y-73574800D01*
X5934836Y-73574800D02*
X5887217Y-73527180D01*
X7241980Y-73574800D02*
X7384837Y-73622419D01*
X7384837Y-73622419D02*
X7622932Y-73622419D01*
X7622932Y-73622419D02*
X7718170Y-73574800D01*
X7718170Y-73574800D02*
X7765789Y-73527180D01*
X7765789Y-73527180D02*
X7813408Y-73431942D01*
X7813408Y-73431942D02*
X7813408Y-73336704D01*
X7813408Y-73336704D02*
X7765789Y-73241466D01*
X7765789Y-73241466D02*
X7718170Y-73193847D01*
X7718170Y-73193847D02*
X7622932Y-73146228D01*
X7622932Y-73146228D02*
X7432456Y-73098609D01*
X7432456Y-73098609D02*
X7337218Y-73050990D01*
X7337218Y-73050990D02*
X7289599Y-73003371D01*
X7289599Y-73003371D02*
X7241980Y-72908133D01*
X7241980Y-72908133D02*
X7241980Y-72812895D01*
X7241980Y-72812895D02*
X7289599Y-72717657D01*
X7289599Y-72717657D02*
X7337218Y-72670038D01*
X7337218Y-72670038D02*
X7432456Y-72622419D01*
X7432456Y-72622419D02*
X7670551Y-72622419D01*
X7670551Y-72622419D02*
X7813408Y-72670038D01*
X8241980Y-73622419D02*
X8241980Y-72622419D01*
X9241979Y-72670038D02*
X9146741Y-72622419D01*
X9146741Y-72622419D02*
X9003884Y-72622419D01*
X9003884Y-72622419D02*
X8861027Y-72670038D01*
X8861027Y-72670038D02*
X8765789Y-72765276D01*
X8765789Y-72765276D02*
X8718170Y-72860514D01*
X8718170Y-72860514D02*
X8670551Y-73050990D01*
X8670551Y-73050990D02*
X8670551Y-73193847D01*
X8670551Y-73193847D02*
X8718170Y-73384323D01*
X8718170Y-73384323D02*
X8765789Y-73479561D01*
X8765789Y-73479561D02*
X8861027Y-73574800D01*
X8861027Y-73574800D02*
X9003884Y-73622419D01*
X9003884Y-73622419D02*
X9099122Y-73622419D01*
X9099122Y-73622419D02*
X9241979Y-73574800D01*
X9241979Y-73574800D02*
X9289598Y-73527180D01*
X9289598Y-73527180D02*
X9289598Y-73193847D01*
X9289598Y-73193847D02*
X9099122Y-73193847D01*
X10577693Y-72670038D02*
X10482455Y-72622419D01*
X10482455Y-72622419D02*
X10339598Y-72622419D01*
X10339598Y-72622419D02*
X10196741Y-72670038D01*
X10196741Y-72670038D02*
X10101503Y-72765276D01*
X10101503Y-72765276D02*
X10053884Y-72860514D01*
X10053884Y-72860514D02*
X10006265Y-73050990D01*
X10006265Y-73050990D02*
X10006265Y-73193847D01*
X10006265Y-73193847D02*
X10053884Y-73384323D01*
X10053884Y-73384323D02*
X10101503Y-73479561D01*
X10101503Y-73479561D02*
X10196741Y-73574800D01*
X10196741Y-73574800D02*
X10339598Y-73622419D01*
X10339598Y-73622419D02*
X10434836Y-73622419D01*
X10434836Y-73622419D02*
X10577693Y-73574800D01*
X10577693Y-73574800D02*
X10625312Y-73527180D01*
X10625312Y-73527180D02*
X10625312Y-73193847D01*
X10625312Y-73193847D02*
X10434836Y-73193847D01*
X11053884Y-73622419D02*
X11053884Y-72622419D01*
X11053884Y-72622419D02*
X11625312Y-73622419D01*
X11625312Y-73622419D02*
X11625312Y-72622419D01*
X12101503Y-73622419D02*
X12101503Y-72622419D01*
X12101503Y-72622419D02*
X12339598Y-72622419D01*
X12339598Y-72622419D02*
X12482455Y-72670038D01*
X12482455Y-72670038D02*
X12577693Y-72765276D01*
X12577693Y-72765276D02*
X12625312Y-72860514D01*
X12625312Y-72860514D02*
X12672931Y-73050990D01*
X12672931Y-73050990D02*
X12672931Y-73193847D01*
X12672931Y-73193847D02*
X12625312Y-73384323D01*
X12625312Y-73384323D02*
X12577693Y-73479561D01*
X12577693Y-73479561D02*
X12482455Y-73574800D01*
X12482455Y-73574800D02*
X12339598Y-73622419D01*
X12339598Y-73622419D02*
X12101503Y-73622419D01*
X0Y-58500000D02*
X16500000Y-58500000D01*
X16500000Y-75000000D01*
X0Y-75000000D01*
X0Y-58500000D01*
X82458646Y-53122419D02*
X83077693Y-53122419D01*
X83077693Y-53122419D02*
X82744360Y-53503371D01*
X82744360Y-53503371D02*
X82887217Y-53503371D01*
X82887217Y-53503371D02*
X82982455Y-53550990D01*
X82982455Y-53550990D02*
X83030074Y-53598609D01*
X83030074Y-53598609D02*
X83077693Y-53693847D01*
X83077693Y-53693847D02*
X83077693Y-53931942D01*
X83077693Y-53931942D02*
X83030074Y-54027180D01*
X83030074Y-54027180D02*
X82982455Y-54074800D01*
X82982455Y-54074800D02*
X82887217Y-54122419D01*
X82887217Y-54122419D02*
X82601503Y-54122419D01*
X82601503Y-54122419D02*
X82506265Y-54074800D01*
X82506265Y-54074800D02*
X82458646Y-54027180D01*
X83506265Y-54027180D02*
X83553884Y-54074800D01*
X83553884Y-54074800D02*
X83506265Y-54122419D01*
X83506265Y-54122419D02*
X83458646Y-54074800D01*
X83458646Y-54074800D02*
X83506265Y-54027180D01*
X83506265Y-54027180D02*
X83506265Y-54122419D01*
X83887217Y-53122419D02*
X84506264Y-53122419D01*
X84506264Y-53122419D02*
X84172931Y-53503371D01*
X84172931Y-53503371D02*
X84315788Y-53503371D01*
X84315788Y-53503371D02*
X84411026Y-53550990D01*
X84411026Y-53550990D02*
X84458645Y-53598609D01*
X84458645Y-53598609D02*
X84506264Y-53693847D01*
X84506264Y-53693847D02*
X84506264Y-53931942D01*
X84506264Y-53931942D02*
X84458645Y-54027180D01*
X84458645Y-54027180D02*
X84411026Y-54074800D01*
X84411026Y-54074800D02*
X84315788Y-54122419D01*
X84315788Y-54122419D02*
X84030074Y-54122419D01*
X84030074Y-54122419D02*
X83934836Y-54074800D01*
X83934836Y-54074800D02*
X83887217Y-54027180D01*
X85241980Y-54074800D02*
X85384837Y-54122419D01*
X85384837Y-54122419D02*
X85622932Y-54122419D01*
X85622932Y-54122419D02*
X85718170Y-54074800D01*
X85718170Y-54074800D02*
X85765789Y-54027180D01*
X85765789Y-54027180D02*
X85813408Y-53931942D01*
X85813408Y-53931942D02*
X85813408Y-53836704D01*
X85813408Y-53836704D02*
X85765789Y-53741466D01*
X85765789Y-53741466D02*
X85718170Y-53693847D01*
X85718170Y-53693847D02*
X85622932Y-53646228D01*
X85622932Y-53646228D02*
X85432456Y-53598609D01*
X85432456Y-53598609D02*
X85337218Y-53550990D01*
X85337218Y-53550990D02*
X85289599Y-53503371D01*
X85289599Y-53503371D02*
X85241980Y-53408133D01*
X85241980Y-53408133D02*
X85241980Y-53312895D01*
X85241980Y-53312895D02*
X85289599Y-53217657D01*
X85289599Y-53217657D02*
X85337218Y-53170038D01*
X85337218Y-53170038D02*
X85432456Y-53122419D01*
X85432456Y-53122419D02*
X85670551Y-53122419D01*
X85670551Y-53122419D02*
X85813408Y-53170038D01*
X86241980Y-54122419D02*
X86241980Y-53122419D01*
X87241979Y-53170038D02*
X87146741Y-53122419D01*
X87146741Y-53122419D02*
X87003884Y-53122419D01*
X87003884Y-53122419D02*
X86861027Y-53170038D01*
X86861027Y-53170038D02*
X86765789Y-53265276D01*
X86765789Y-53265276D02*
X86718170Y-53360514D01*
X86718170Y-53360514D02*
X86670551Y-53550990D01*
X86670551Y-53550990D02*
X86670551Y-53693847D01*
X86670551Y-53693847D02*
X86718170Y-53884323D01*
X86718170Y-53884323D02*
X86765789Y-53979561D01*
X86765789Y-53979561D02*
X86861027Y-54074800D01*
X86861027Y-54074800D02*
X87003884Y-54122419D01*
X87003884Y-54122419D02*
X87099122Y-54122419D01*
X87099122Y-54122419D02*
X87241979Y-54074800D01*
X87241979Y-54074800D02*
X87289598Y-54027180D01*
X87289598Y-54027180D02*
X87289598Y-53693847D01*
X87289598Y-53693847D02*
X87099122Y-53693847D01*
X88577693Y-53170038D02*
X88482455Y-53122419D01*
X88482455Y-53122419D02*
X88339598Y-53122419D01*
X88339598Y-53122419D02*
X88196741Y-53170038D01*
X88196741Y-53170038D02*
X88101503Y-53265276D01*
X88101503Y-53265276D02*
X88053884Y-53360514D01*
X88053884Y-53360514D02*
X88006265Y-53550990D01*
X88006265Y-53550990D02*
X88006265Y-53693847D01*
X88006265Y-53693847D02*
X88053884Y-53884323D01*
X88053884Y-53884323D02*
X88101503Y-53979561D01*
X88101503Y-53979561D02*
X88196741Y-54074800D01*
X88196741Y-54074800D02*
X88339598Y-54122419D01*
X88339598Y-54122419D02*
X88434836Y-54122419D01*
X88434836Y-54122419D02*
X88577693Y-54074800D01*
X88577693Y-54074800D02*
X88625312Y-54027180D01*
X88625312Y-54027180D02*
X88625312Y-53693847D01*
X88625312Y-53693847D02*
X88434836Y-53693847D01*
X89053884Y-54122419D02*
X89053884Y-53122419D01*
X89053884Y-53122419D02*
X89625312Y-54122419D01*
X89625312Y-54122419D02*
X89625312Y-53122419D01*
X90101503Y-54122419D02*
X90101503Y-53122419D01*
X90101503Y-53122419D02*
X90339598Y-53122419D01*
X90339598Y-53122419D02*
X90482455Y-53170038D01*
X90482455Y-53170038D02*
X90577693Y-53265276D01*
X90577693Y-53265276D02*
X90625312Y-53360514D01*
X90625312Y-53360514D02*
X90672931Y-53550990D01*
X90672931Y-53550990D02*
X90672931Y-53693847D01*
X90672931Y-53693847D02*
X90625312Y-53884323D01*
X90625312Y-53884323D02*
X90577693Y-53979561D01*
X90577693Y-53979561D02*
X90482455Y-54074800D01*
X90482455Y-54074800D02*
X90339598Y-54122419D01*
X90339598Y-54122419D02*
X90101503Y-54122419D01*
X78000000Y-39000000D02*
X94500000Y-39000000D01*
X94500000Y-55500000D01*
X78000000Y-55500000D01*
X78000000Y-39000000D01*
X62958646Y-53122419D02*
X63577693Y-53122419D01*
X63577693Y-53122419D02*
X63244360Y-53503371D01*
X63244360Y-53503371D02*
X63387217Y-53503371D01*
X63387217Y-53503371D02*
X63482455Y-53550990D01*
X63482455Y-53550990D02*
X63530074Y-53598609D01*
X63530074Y-53598609D02*
X63577693Y-53693847D01*
X63577693Y-53693847D02*
X63577693Y-53931942D01*
X63577693Y-53931942D02*
X63530074Y-54027180D01*
X63530074Y-54027180D02*
X63482455Y-54074800D01*
X63482455Y-54074800D02*
X63387217Y-54122419D01*
X63387217Y-54122419D02*
X63101503Y-54122419D01*
X63101503Y-54122419D02*
X63006265Y-54074800D01*
X63006265Y-54074800D02*
X62958646Y-54027180D01*
X64006265Y-54027180D02*
X64053884Y-54074800D01*
X64053884Y-54074800D02*
X64006265Y-54122419D01*
X64006265Y-54122419D02*
X63958646Y-54074800D01*
X63958646Y-54074800D02*
X64006265Y-54027180D01*
X64006265Y-54027180D02*
X64006265Y-54122419D01*
X64387217Y-53122419D02*
X65006264Y-53122419D01*
X65006264Y-53122419D02*
X64672931Y-53503371D01*
X64672931Y-53503371D02*
X64815788Y-53503371D01*
X64815788Y-53503371D02*
X64911026Y-53550990D01*
X64911026Y-53550990D02*
X64958645Y-53598609D01*
X64958645Y-53598609D02*
X65006264Y-53693847D01*
X65006264Y-53693847D02*
X65006264Y-53931942D01*
X65006264Y-53931942D02*
X64958645Y-54027180D01*
X64958645Y-54027180D02*
X64911026Y-54074800D01*
X64911026Y-54074800D02*
X64815788Y-54122419D01*
X64815788Y-54122419D02*
X64530074Y-54122419D01*
X64530074Y-54122419D02*
X64434836Y-54074800D01*
X64434836Y-54074800D02*
X64387217Y-54027180D01*
X69077693Y-53170038D02*
X68982455Y-53122419D01*
X68982455Y-53122419D02*
X68839598Y-53122419D01*
X68839598Y-53122419D02*
X68696741Y-53170038D01*
X68696741Y-53170038D02*
X68601503Y-53265276D01*
X68601503Y-53265276D02*
X68553884Y-53360514D01*
X68553884Y-53360514D02*
X68506265Y-53550990D01*
X68506265Y-53550990D02*
X68506265Y-53693847D01*
X68506265Y-53693847D02*
X68553884Y-53884323D01*
X68553884Y-53884323D02*
X68601503Y-53979561D01*
X68601503Y-53979561D02*
X68696741Y-54074800D01*
X68696741Y-54074800D02*
X68839598Y-54122419D01*
X68839598Y-54122419D02*
X68934836Y-54122419D01*
X68934836Y-54122419D02*
X69077693Y-54074800D01*
X69077693Y-54074800D02*
X69125312Y-54027180D01*
X69125312Y-54027180D02*
X69125312Y-53693847D01*
X69125312Y-53693847D02*
X68934836Y-53693847D01*
X69553884Y-54122419D02*
X69553884Y-53122419D01*
X69553884Y-53122419D02*
X70125312Y-54122419D01*
X70125312Y-54122419D02*
X70125312Y-53122419D01*
X70601503Y-54122419D02*
X70601503Y-53122419D01*
X70601503Y-53122419D02*
X70839598Y-53122419D01*
X70839598Y-53122419D02*
X70982455Y-53170038D01*
X70982455Y-53170038D02*
X71077693Y-53265276D01*
X71077693Y-53265276D02*
X71125312Y-53360514D01*
X71125312Y-53360514D02*
X71172931Y-53550990D01*
X71172931Y-53550990D02*
X71172931Y-53693847D01*
X71172931Y-53693847D02*
X71125312Y-53884323D01*
X71125312Y-53884323D02*
X71077693Y-53979561D01*
X71077693Y-53979561D02*
X70982455Y-54074800D01*
X70982455Y-54074800D02*
X70839598Y-54122419D01*
X70839598Y-54122419D02*
X70601503Y-54122419D01*
X65741980Y-54074800D02*
X65884837Y-54122419D01*
X65884837Y-54122419D02*
X66122932Y-54122419D01*
X66122932Y-54122419D02*
X66218170Y-54074800D01*
X66218170Y-54074800D02*
X66265789Y-54027180D01*
X66265789Y-54027180D02*
X66313408Y-53931942D01*
X66313408Y-53931942D02*
X66313408Y-53836704D01*
X66313408Y-53836704D02*
X66265789Y-53741466D01*
X66265789Y-53741466D02*
X66218170Y-53693847D01*
X66218170Y-53693847D02*
X66122932Y-53646228D01*
X66122932Y-53646228D02*
X65932456Y-53598609D01*
X65932456Y-53598609D02*
X65837218Y-53550990D01*
X65837218Y-53550990D02*
X65789599Y-53503371D01*
X65789599Y-53503371D02*
X65741980Y-53408133D01*
X65741980Y-53408133D02*
X65741980Y-53312895D01*
X65741980Y-53312895D02*
X65789599Y-53217657D01*
X65789599Y-53217657D02*
X65837218Y-53170038D01*
X65837218Y-53170038D02*
X65932456Y-53122419D01*
X65932456Y-53122419D02*
X66170551Y-53122419D01*
X66170551Y-53122419D02*
X66313408Y-53170038D01*
X66741980Y-54122419D02*
X66741980Y-53122419D01*
X67741979Y-53170038D02*
X67646741Y-53122419D01*
X67646741Y-53122419D02*
X67503884Y-53122419D01*
X67503884Y-53122419D02*
X67361027Y-53170038D01*
X67361027Y-53170038D02*
X67265789Y-53265276D01*
X67265789Y-53265276D02*
X67218170Y-53360514D01*
X67218170Y-53360514D02*
X67170551Y-53550990D01*
X67170551Y-53550990D02*
X67170551Y-53693847D01*
X67170551Y-53693847D02*
X67218170Y-53884323D01*
X67218170Y-53884323D02*
X67265789Y-53979561D01*
X67265789Y-53979561D02*
X67361027Y-54074800D01*
X67361027Y-54074800D02*
X67503884Y-54122419D01*
X67503884Y-54122419D02*
X67599122Y-54122419D01*
X67599122Y-54122419D02*
X67741979Y-54074800D01*
X67741979Y-54074800D02*
X67789598Y-54027180D01*
X67789598Y-54027180D02*
X67789598Y-53693847D01*
X67789598Y-53693847D02*
X67599122Y-53693847D01*
X58500000Y-39000000D02*
X75000000Y-39000000D01*
X75000000Y-55500000D01*
X58500000Y-55500000D01*
X58500000Y-39000000D01*
X43458646Y-53122419D02*
X44077693Y-53122419D01*
X44077693Y-53122419D02*
X43744360Y-53503371D01*
X43744360Y-53503371D02*
X43887217Y-53503371D01*
X43887217Y-53503371D02*
X43982455Y-53550990D01*
X43982455Y-53550990D02*
X44030074Y-53598609D01*
X44030074Y-53598609D02*
X44077693Y-53693847D01*
X44077693Y-53693847D02*
X44077693Y-53931942D01*
X44077693Y-53931942D02*
X44030074Y-54027180D01*
X44030074Y-54027180D02*
X43982455Y-54074800D01*
X43982455Y-54074800D02*
X43887217Y-54122419D01*
X43887217Y-54122419D02*
X43601503Y-54122419D01*
X43601503Y-54122419D02*
X43506265Y-54074800D01*
X43506265Y-54074800D02*
X43458646Y-54027180D01*
X44506265Y-54027180D02*
X44553884Y-54074800D01*
X44553884Y-54074800D02*
X44506265Y-54122419D01*
X44506265Y-54122419D02*
X44458646Y-54074800D01*
X44458646Y-54074800D02*
X44506265Y-54027180D01*
X44506265Y-54027180D02*
X44506265Y-54122419D01*
X44887217Y-53122419D02*
X45506264Y-53122419D01*
X45506264Y-53122419D02*
X45172931Y-53503371D01*
X45172931Y-53503371D02*
X45315788Y-53503371D01*
X45315788Y-53503371D02*
X45411026Y-53550990D01*
X45411026Y-53550990D02*
X45458645Y-53598609D01*
X45458645Y-53598609D02*
X45506264Y-53693847D01*
X45506264Y-53693847D02*
X45506264Y-53931942D01*
X45506264Y-53931942D02*
X45458645Y-54027180D01*
X45458645Y-54027180D02*
X45411026Y-54074800D01*
X45411026Y-54074800D02*
X45315788Y-54122419D01*
X45315788Y-54122419D02*
X45030074Y-54122419D01*
X45030074Y-54122419D02*
X44934836Y-54074800D01*
X44934836Y-54074800D02*
X44887217Y-54027180D01*
X46241980Y-54074800D02*
X46384837Y-54122419D01*
X46384837Y-54122419D02*
X46622932Y-54122419D01*
X46622932Y-54122419D02*
X46718170Y-54074800D01*
X46718170Y-54074800D02*
X46765789Y-54027180D01*
X46765789Y-54027180D02*
X46813408Y-53931942D01*
X46813408Y-53931942D02*
X46813408Y-53836704D01*
X46813408Y-53836704D02*
X46765789Y-53741466D01*
X46765789Y-53741466D02*
X46718170Y-53693847D01*
X46718170Y-53693847D02*
X46622932Y-53646228D01*
X46622932Y-53646228D02*
X46432456Y-53598609D01*
X46432456Y-53598609D02*
X46337218Y-53550990D01*
X46337218Y-53550990D02*
X46289599Y-53503371D01*
X46289599Y-53503371D02*
X46241980Y-53408133D01*
X46241980Y-53408133D02*
X46241980Y-53312895D01*
X46241980Y-53312895D02*
X46289599Y-53217657D01*
X46289599Y-53217657D02*
X46337218Y-53170038D01*
X46337218Y-53170038D02*
X46432456Y-53122419D01*
X46432456Y-53122419D02*
X46670551Y-53122419D01*
X46670551Y-53122419D02*
X46813408Y-53170038D01*
X47241980Y-54122419D02*
X47241980Y-53122419D01*
X48241979Y-53170038D02*
X48146741Y-53122419D01*
X48146741Y-53122419D02*
X48003884Y-53122419D01*
X48003884Y-53122419D02*
X47861027Y-53170038D01*
X47861027Y-53170038D02*
X47765789Y-53265276D01*
X47765789Y-53265276D02*
X47718170Y-53360514D01*
X47718170Y-53360514D02*
X47670551Y-53550990D01*
X47670551Y-53550990D02*
X47670551Y-53693847D01*
X47670551Y-53693847D02*
X47718170Y-53884323D01*
X47718170Y-53884323D02*
X47765789Y-53979561D01*
X47765789Y-53979561D02*
X47861027Y-54074800D01*
X47861027Y-54074800D02*
X48003884Y-54122419D01*
X48003884Y-54122419D02*
X48099122Y-54122419D01*
X48099122Y-54122419D02*
X48241979Y-54074800D01*
X48241979Y-54074800D02*
X48289598Y-54027180D01*
X48289598Y-54027180D02*
X48289598Y-53693847D01*
X48289598Y-53693847D02*
X48099122Y-53693847D01*
X49577693Y-53170038D02*
X49482455Y-53122419D01*
X49482455Y-53122419D02*
X49339598Y-53122419D01*
X49339598Y-53122419D02*
X49196741Y-53170038D01*
X49196741Y-53170038D02*
X49101503Y-53265276D01*
X49101503Y-53265276D02*
X49053884Y-53360514D01*
X49053884Y-53360514D02*
X49006265Y-53550990D01*
X49006265Y-53550990D02*
X49006265Y-53693847D01*
X49006265Y-53693847D02*
X49053884Y-53884323D01*
X49053884Y-53884323D02*
X49101503Y-53979561D01*
X49101503Y-53979561D02*
X49196741Y-54074800D01*
X49196741Y-54074800D02*
X49339598Y-54122419D01*
X49339598Y-54122419D02*
X49434836Y-54122419D01*
X49434836Y-54122419D02*
X49577693Y-54074800D01*
X49577693Y-54074800D02*
X49625312Y-54027180D01*
X49625312Y-54027180D02*
X49625312Y-53693847D01*
X49625312Y-53693847D02*
X49434836Y-53693847D01*
X50053884Y-54122419D02*
X50053884Y-53122419D01*
X50053884Y-53122419D02*
X50625312Y-54122419D01*
X50625312Y-54122419D02*
X50625312Y-53122419D01*
X51101503Y-54122419D02*
X51101503Y-53122419D01*
X51101503Y-53122419D02*
X51339598Y-53122419D01*
X51339598Y-53122419D02*
X51482455Y-53170038D01*
X51482455Y-53170038D02*
X51577693Y-53265276D01*
X51577693Y-53265276D02*
X51625312Y-53360514D01*
X51625312Y-53360514D02*
X51672931Y-53550990D01*
X51672931Y-53550990D02*
X51672931Y-53693847D01*
X51672931Y-53693847D02*
X51625312Y-53884323D01*
X51625312Y-53884323D02*
X51577693Y-53979561D01*
X51577693Y-53979561D02*
X51482455Y-54074800D01*
X51482455Y-54074800D02*
X51339598Y-54122419D01*
X51339598Y-54122419D02*
X51101503Y-54122419D01*
X39000000Y-39000000D02*
X55500000Y-39000000D01*
X55500000Y-55500000D01*
X39000000Y-55500000D01*
X39000000Y-39000000D01*
X23958646Y-53122419D02*
X24577693Y-53122419D01*
X24577693Y-53122419D02*
X24244360Y-53503371D01*
X24244360Y-53503371D02*
X24387217Y-53503371D01*
X24387217Y-53503371D02*
X24482455Y-53550990D01*
X24482455Y-53550990D02*
X24530074Y-53598609D01*
X24530074Y-53598609D02*
X24577693Y-53693847D01*
X24577693Y-53693847D02*
X24577693Y-53931942D01*
X24577693Y-53931942D02*
X24530074Y-54027180D01*
X24530074Y-54027180D02*
X24482455Y-54074800D01*
X24482455Y-54074800D02*
X24387217Y-54122419D01*
X24387217Y-54122419D02*
X24101503Y-54122419D01*
X24101503Y-54122419D02*
X24006265Y-54074800D01*
X24006265Y-54074800D02*
X23958646Y-54027180D01*
X25006265Y-54027180D02*
X25053884Y-54074800D01*
X25053884Y-54074800D02*
X25006265Y-54122419D01*
X25006265Y-54122419D02*
X24958646Y-54074800D01*
X24958646Y-54074800D02*
X25006265Y-54027180D01*
X25006265Y-54027180D02*
X25006265Y-54122419D01*
X25387217Y-53122419D02*
X26006264Y-53122419D01*
X26006264Y-53122419D02*
X25672931Y-53503371D01*
X25672931Y-53503371D02*
X25815788Y-53503371D01*
X25815788Y-53503371D02*
X25911026Y-53550990D01*
X25911026Y-53550990D02*
X25958645Y-53598609D01*
X25958645Y-53598609D02*
X26006264Y-53693847D01*
X26006264Y-53693847D02*
X26006264Y-53931942D01*
X26006264Y-53931942D02*
X25958645Y-54027180D01*
X25958645Y-54027180D02*
X25911026Y-54074800D01*
X25911026Y-54074800D02*
X25815788Y-54122419D01*
X25815788Y-54122419D02*
X25530074Y-54122419D01*
X25530074Y-54122419D02*
X25434836Y-54074800D01*
X25434836Y-54074800D02*
X25387217Y-54027180D01*
X26741980Y-54074800D02*
X26884837Y-54122419D01*
X26884837Y-54122419D02*
X27122932Y-54122419D01*
X27122932Y-54122419D02*
X27218170Y-54074800D01*
X27218170Y-54074800D02*
X27265789Y-54027180D01*
X27265789Y-54027180D02*
X27313408Y-53931942D01*
X27313408Y-53931942D02*
X27313408Y-53836704D01*
X27313408Y-53836704D02*
X27265789Y-53741466D01*
X27265789Y-53741466D02*
X27218170Y-53693847D01*
X27218170Y-53693847D02*
X27122932Y-53646228D01*
X27122932Y-53646228D02*
X26932456Y-53598609D01*
X26932456Y-53598609D02*
X26837218Y-53550990D01*
X26837218Y-53550990D02*
X26789599Y-53503371D01*
X26789599Y-53503371D02*
X26741980Y-53408133D01*
X26741980Y-53408133D02*
X26741980Y-53312895D01*
X26741980Y-53312895D02*
X26789599Y-53217657D01*
X26789599Y-53217657D02*
X26837218Y-53170038D01*
X26837218Y-53170038D02*
X26932456Y-53122419D01*
X26932456Y-53122419D02*
X27170551Y-53122419D01*
X27170551Y-53122419D02*
X27313408Y-53170038D01*
X27741980Y-54122419D02*
X27741980Y-53122419D01*
X28741979Y-53170038D02*
X28646741Y-53122419D01*
X28646741Y-53122419D02*
X28503884Y-53122419D01*
X28503884Y-53122419D02*
X28361027Y-53170038D01*
X28361027Y-53170038D02*
X28265789Y-53265276D01*
X28265789Y-53265276D02*
X28218170Y-53360514D01*
X28218170Y-53360514D02*
X28170551Y-53550990D01*
X28170551Y-53550990D02*
X28170551Y-53693847D01*
X28170551Y-53693847D02*
X28218170Y-53884323D01*
X28218170Y-53884323D02*
X28265789Y-53979561D01*
X28265789Y-53979561D02*
X28361027Y-54074800D01*
X28361027Y-54074800D02*
X28503884Y-54122419D01*
X28503884Y-54122419D02*
X28599122Y-54122419D01*
X28599122Y-54122419D02*
X28741979Y-54074800D01*
X28741979Y-54074800D02*
X28789598Y-54027180D01*
X28789598Y-54027180D02*
X28789598Y-53693847D01*
X28789598Y-53693847D02*
X28599122Y-53693847D01*
X30077693Y-53170038D02*
X29982455Y-53122419D01*
X29982455Y-53122419D02*
X29839598Y-53122419D01*
X29839598Y-53122419D02*
X29696741Y-53170038D01*
X29696741Y-53170038D02*
X29601503Y-53265276D01*
X29601503Y-53265276D02*
X29553884Y-53360514D01*
X29553884Y-53360514D02*
X29506265Y-53550990D01*
X29506265Y-53550990D02*
X29506265Y-53693847D01*
X29506265Y-53693847D02*
X29553884Y-53884323D01*
X29553884Y-53884323D02*
X29601503Y-53979561D01*
X29601503Y-53979561D02*
X29696741Y-54074800D01*
X29696741Y-54074800D02*
X29839598Y-54122419D01*
X29839598Y-54122419D02*
X29934836Y-54122419D01*
X29934836Y-54122419D02*
X30077693Y-54074800D01*
X30077693Y-54074800D02*
X30125312Y-54027180D01*
X30125312Y-54027180D02*
X30125312Y-53693847D01*
X30125312Y-53693847D02*
X29934836Y-53693847D01*
X30553884Y-54122419D02*
X30553884Y-53122419D01*
X30553884Y-53122419D02*
X31125312Y-54122419D01*
X31125312Y-54122419D02*
X31125312Y-53122419D01*
X31601503Y-54122419D02*
X31601503Y-53122419D01*
X31601503Y-53122419D02*
X31839598Y-53122419D01*
X31839598Y-53122419D02*
X31982455Y-53170038D01*
X31982455Y-53170038D02*
X32077693Y-53265276D01*
X32077693Y-53265276D02*
X32125312Y-53360514D01*
X32125312Y-53360514D02*
X32172931Y-53550990D01*
X32172931Y-53550990D02*
X32172931Y-53693847D01*
X32172931Y-53693847D02*
X32125312Y-53884323D01*
X32125312Y-53884323D02*
X32077693Y-53979561D01*
X32077693Y-53979561D02*
X31982455Y-54074800D01*
X31982455Y-54074800D02*
X31839598Y-54122419D01*
X31839598Y-54122419D02*
X31601503Y-54122419D01*
X19500000Y-39000000D02*
X36000000Y-39000000D01*
X36000000Y-55500000D01*
X19500000Y-55500000D01*
X19500000Y-39000000D01*
X0Y-39000000D02*
X16500000Y-39000000D01*
X16500000Y-55500000D01*
X0Y-55500000D01*
X0Y-39000000D01*
X4458646Y-53122419D02*
X5077693Y-53122419D01*
X5077693Y-53122419D02*
X4744360Y-53503371D01*
X4744360Y-53503371D02*
X4887217Y-53503371D01*
X4887217Y-53503371D02*
X4982455Y-53550990D01*
X4982455Y-53550990D02*
X5030074Y-53598609D01*
X5030074Y-53598609D02*
X5077693Y-53693847D01*
X5077693Y-53693847D02*
X5077693Y-53931942D01*
X5077693Y-53931942D02*
X5030074Y-54027180D01*
X5030074Y-54027180D02*
X4982455Y-54074800D01*
X4982455Y-54074800D02*
X4887217Y-54122419D01*
X4887217Y-54122419D02*
X4601503Y-54122419D01*
X4601503Y-54122419D02*
X4506265Y-54074800D01*
X4506265Y-54074800D02*
X4458646Y-54027180D01*
X5506265Y-54027180D02*
X5553884Y-54074800D01*
X5553884Y-54074800D02*
X5506265Y-54122419D01*
X5506265Y-54122419D02*
X5458646Y-54074800D01*
X5458646Y-54074800D02*
X5506265Y-54027180D01*
X5506265Y-54027180D02*
X5506265Y-54122419D01*
X5887217Y-53122419D02*
X6506264Y-53122419D01*
X6506264Y-53122419D02*
X6172931Y-53503371D01*
X6172931Y-53503371D02*
X6315788Y-53503371D01*
X6315788Y-53503371D02*
X6411026Y-53550990D01*
X6411026Y-53550990D02*
X6458645Y-53598609D01*
X6458645Y-53598609D02*
X6506264Y-53693847D01*
X6506264Y-53693847D02*
X6506264Y-53931942D01*
X6506264Y-53931942D02*
X6458645Y-54027180D01*
X6458645Y-54027180D02*
X6411026Y-54074800D01*
X6411026Y-54074800D02*
X6315788Y-54122419D01*
X6315788Y-54122419D02*
X6030074Y-54122419D01*
X6030074Y-54122419D02*
X5934836Y-54074800D01*
X5934836Y-54074800D02*
X5887217Y-54027180D01*
X7241980Y-54074800D02*
X7384837Y-54122419D01*
X7384837Y-54122419D02*
X7622932Y-54122419D01*
X7622932Y-54122419D02*
X7718170Y-54074800D01*
X7718170Y-54074800D02*
X7765789Y-54027180D01*
X7765789Y-54027180D02*
X7813408Y-53931942D01*
X7813408Y-53931942D02*
X7813408Y-53836704D01*
X7813408Y-53836704D02*
X7765789Y-53741466D01*
X7765789Y-53741466D02*
X7718170Y-53693847D01*
X7718170Y-53693847D02*
X7622932Y-53646228D01*
X7622932Y-53646228D02*
X7432456Y-53598609D01*
X7432456Y-53598609D02*
X7337218Y-53550990D01*
X7337218Y-53550990D02*
X7289599Y-53503371D01*
X7289599Y-53503371D02*
X7241980Y-53408133D01*
X7241980Y-53408133D02*
X7241980Y-53312895D01*
X7241980Y-53312895D02*
X7289599Y-53217657D01*
X7289599Y-53217657D02*
X7337218Y-53170038D01*
X7337218Y-53170038D02*
X7432456Y-53122419D01*
X7432456Y-53122419D02*
X7670551Y-53122419D01*
X7670551Y-53122419D02*
X7813408Y-53170038D01*
X8241980Y-54122419D02*
X8241980Y-53122419D01*
X9241979Y-53170038D02*
X9146741Y-53122419D01*
X9146741Y-53122419D02*
X9003884Y-53122419D01*
X9003884Y-53122419D02*
X8861027Y-53170038D01*
X8861027Y-53170038D02*
X8765789Y-53265276D01*
X8765789Y-53265276D02*
X8718170Y-53360514D01*
X8718170Y-53360514D02*
X8670551Y-53550990D01*
X8670551Y-53550990D02*
X8670551Y-53693847D01*
X8670551Y-53693847D02*
X8718170Y-53884323D01*
X8718170Y-53884323D02*
X8765789Y-53979561D01*
X8765789Y-53979561D02*
X8861027Y-54074800D01*
X8861027Y-54074800D02*
X9003884Y-54122419D01*
X9003884Y-54122419D02*
X9099122Y-54122419D01*
X9099122Y-54122419D02*
X9241979Y-54074800D01*
X9241979Y-54074800D02*
X9289598Y-54027180D01*
X9289598Y-54027180D02*
X9289598Y-53693847D01*
X9289598Y-53693847D02*
X9099122Y-53693847D01*
X10577693Y-53170038D02*
X10482455Y-53122419D01*
X10482455Y-53122419D02*
X10339598Y-53122419D01*
X10339598Y-53122419D02*
X10196741Y-53170038D01*
X10196741Y-53170038D02*
X10101503Y-53265276D01*
X10101503Y-53265276D02*
X10053884Y-53360514D01*
X10053884Y-53360514D02*
X10006265Y-53550990D01*
X10006265Y-53550990D02*
X10006265Y-53693847D01*
X10006265Y-53693847D02*
X10053884Y-53884323D01*
X10053884Y-53884323D02*
X10101503Y-53979561D01*
X10101503Y-53979561D02*
X10196741Y-54074800D01*
X10196741Y-54074800D02*
X10339598Y-54122419D01*
X10339598Y-54122419D02*
X10434836Y-54122419D01*
X10434836Y-54122419D02*
X10577693Y-54074800D01*
X10577693Y-54074800D02*
X10625312Y-54027180D01*
X10625312Y-54027180D02*
X10625312Y-53693847D01*
X10625312Y-53693847D02*
X10434836Y-53693847D01*
X11053884Y-54122419D02*
X11053884Y-53122419D01*
X11053884Y-53122419D02*
X11625312Y-54122419D01*
X11625312Y-54122419D02*
X11625312Y-53122419D01*
X12101503Y-54122419D02*
X12101503Y-53122419D01*
X12101503Y-53122419D02*
X12339598Y-53122419D01*
X12339598Y-53122419D02*
X12482455Y-53170038D01*
X12482455Y-53170038D02*
X12577693Y-53265276D01*
X12577693Y-53265276D02*
X12625312Y-53360514D01*
X12625312Y-53360514D02*
X12672931Y-53550990D01*
X12672931Y-53550990D02*
X12672931Y-53693847D01*
X12672931Y-53693847D02*
X12625312Y-53884323D01*
X12625312Y-53884323D02*
X12577693Y-53979561D01*
X12577693Y-53979561D02*
X12482455Y-54074800D01*
X12482455Y-54074800D02*
X12339598Y-54122419D01*
X12339598Y-54122419D02*
X12101503Y-54122419D01*
X78000000Y-19500000D02*
X94500000Y-19500000D01*
X94500000Y-36000000D01*
X78000000Y-36000000D01*
X78000000Y-19500000D01*
X82458646Y-33622419D02*
X83077693Y-33622419D01*
X83077693Y-33622419D02*
X82744360Y-34003371D01*
X82744360Y-34003371D02*
X82887217Y-34003371D01*
X82887217Y-34003371D02*
X82982455Y-34050990D01*
X82982455Y-34050990D02*
X83030074Y-34098609D01*
X83030074Y-34098609D02*
X83077693Y-34193847D01*
X83077693Y-34193847D02*
X83077693Y-34431942D01*
X83077693Y-34431942D02*
X83030074Y-34527180D01*
X83030074Y-34527180D02*
X82982455Y-34574800D01*
X82982455Y-34574800D02*
X82887217Y-34622419D01*
X82887217Y-34622419D02*
X82601503Y-34622419D01*
X82601503Y-34622419D02*
X82506265Y-34574800D01*
X82506265Y-34574800D02*
X82458646Y-34527180D01*
X83506265Y-34527180D02*
X83553884Y-34574800D01*
X83553884Y-34574800D02*
X83506265Y-34622419D01*
X83506265Y-34622419D02*
X83458646Y-34574800D01*
X83458646Y-34574800D02*
X83506265Y-34527180D01*
X83506265Y-34527180D02*
X83506265Y-34622419D01*
X83887217Y-33622419D02*
X84506264Y-33622419D01*
X84506264Y-33622419D02*
X84172931Y-34003371D01*
X84172931Y-34003371D02*
X84315788Y-34003371D01*
X84315788Y-34003371D02*
X84411026Y-34050990D01*
X84411026Y-34050990D02*
X84458645Y-34098609D01*
X84458645Y-34098609D02*
X84506264Y-34193847D01*
X84506264Y-34193847D02*
X84506264Y-34431942D01*
X84506264Y-34431942D02*
X84458645Y-34527180D01*
X84458645Y-34527180D02*
X84411026Y-34574800D01*
X84411026Y-34574800D02*
X84315788Y-34622419D01*
X84315788Y-34622419D02*
X84030074Y-34622419D01*
X84030074Y-34622419D02*
X83934836Y-34574800D01*
X83934836Y-34574800D02*
X83887217Y-34527180D01*
X85241980Y-34574800D02*
X85384837Y-34622419D01*
X85384837Y-34622419D02*
X85622932Y-34622419D01*
X85622932Y-34622419D02*
X85718170Y-34574800D01*
X85718170Y-34574800D02*
X85765789Y-34527180D01*
X85765789Y-34527180D02*
X85813408Y-34431942D01*
X85813408Y-34431942D02*
X85813408Y-34336704D01*
X85813408Y-34336704D02*
X85765789Y-34241466D01*
X85765789Y-34241466D02*
X85718170Y-34193847D01*
X85718170Y-34193847D02*
X85622932Y-34146228D01*
X85622932Y-34146228D02*
X85432456Y-34098609D01*
X85432456Y-34098609D02*
X85337218Y-34050990D01*
X85337218Y-34050990D02*
X85289599Y-34003371D01*
X85289599Y-34003371D02*
X85241980Y-33908133D01*
X85241980Y-33908133D02*
X85241980Y-33812895D01*
X85241980Y-33812895D02*
X85289599Y-33717657D01*
X85289599Y-33717657D02*
X85337218Y-33670038D01*
X85337218Y-33670038D02*
X85432456Y-33622419D01*
X85432456Y-33622419D02*
X85670551Y-33622419D01*
X85670551Y-33622419D02*
X85813408Y-33670038D01*
X86241980Y-34622419D02*
X86241980Y-33622419D01*
X87241979Y-33670038D02*
X87146741Y-33622419D01*
X87146741Y-33622419D02*
X87003884Y-33622419D01*
X87003884Y-33622419D02*
X86861027Y-33670038D01*
X86861027Y-33670038D02*
X86765789Y-33765276D01*
X86765789Y-33765276D02*
X86718170Y-33860514D01*
X86718170Y-33860514D02*
X86670551Y-34050990D01*
X86670551Y-34050990D02*
X86670551Y-34193847D01*
X86670551Y-34193847D02*
X86718170Y-34384323D01*
X86718170Y-34384323D02*
X86765789Y-34479561D01*
X86765789Y-34479561D02*
X86861027Y-34574800D01*
X86861027Y-34574800D02*
X87003884Y-34622419D01*
X87003884Y-34622419D02*
X87099122Y-34622419D01*
X87099122Y-34622419D02*
X87241979Y-34574800D01*
X87241979Y-34574800D02*
X87289598Y-34527180D01*
X87289598Y-34527180D02*
X87289598Y-34193847D01*
X87289598Y-34193847D02*
X87099122Y-34193847D01*
X88577693Y-33670038D02*
X88482455Y-33622419D01*
X88482455Y-33622419D02*
X88339598Y-33622419D01*
X88339598Y-33622419D02*
X88196741Y-33670038D01*
X88196741Y-33670038D02*
X88101503Y-33765276D01*
X88101503Y-33765276D02*
X88053884Y-33860514D01*
X88053884Y-33860514D02*
X88006265Y-34050990D01*
X88006265Y-34050990D02*
X88006265Y-34193847D01*
X88006265Y-34193847D02*
X88053884Y-34384323D01*
X88053884Y-34384323D02*
X88101503Y-34479561D01*
X88101503Y-34479561D02*
X88196741Y-34574800D01*
X88196741Y-34574800D02*
X88339598Y-34622419D01*
X88339598Y-34622419D02*
X88434836Y-34622419D01*
X88434836Y-34622419D02*
X88577693Y-34574800D01*
X88577693Y-34574800D02*
X88625312Y-34527180D01*
X88625312Y-34527180D02*
X88625312Y-34193847D01*
X88625312Y-34193847D02*
X88434836Y-34193847D01*
X89053884Y-34622419D02*
X89053884Y-33622419D01*
X89053884Y-33622419D02*
X89625312Y-34622419D01*
X89625312Y-34622419D02*
X89625312Y-33622419D01*
X90101503Y-34622419D02*
X90101503Y-33622419D01*
X90101503Y-33622419D02*
X90339598Y-33622419D01*
X90339598Y-33622419D02*
X90482455Y-33670038D01*
X90482455Y-33670038D02*
X90577693Y-33765276D01*
X90577693Y-33765276D02*
X90625312Y-33860514D01*
X90625312Y-33860514D02*
X90672931Y-34050990D01*
X90672931Y-34050990D02*
X90672931Y-34193847D01*
X90672931Y-34193847D02*
X90625312Y-34384323D01*
X90625312Y-34384323D02*
X90577693Y-34479561D01*
X90577693Y-34479561D02*
X90482455Y-34574800D01*
X90482455Y-34574800D02*
X90339598Y-34622419D01*
X90339598Y-34622419D02*
X90101503Y-34622419D01*
X62958646Y-33622419D02*
X63577693Y-33622419D01*
X63577693Y-33622419D02*
X63244360Y-34003371D01*
X63244360Y-34003371D02*
X63387217Y-34003371D01*
X63387217Y-34003371D02*
X63482455Y-34050990D01*
X63482455Y-34050990D02*
X63530074Y-34098609D01*
X63530074Y-34098609D02*
X63577693Y-34193847D01*
X63577693Y-34193847D02*
X63577693Y-34431942D01*
X63577693Y-34431942D02*
X63530074Y-34527180D01*
X63530074Y-34527180D02*
X63482455Y-34574800D01*
X63482455Y-34574800D02*
X63387217Y-34622419D01*
X63387217Y-34622419D02*
X63101503Y-34622419D01*
X63101503Y-34622419D02*
X63006265Y-34574800D01*
X63006265Y-34574800D02*
X62958646Y-34527180D01*
X64006265Y-34527180D02*
X64053884Y-34574800D01*
X64053884Y-34574800D02*
X64006265Y-34622419D01*
X64006265Y-34622419D02*
X63958646Y-34574800D01*
X63958646Y-34574800D02*
X64006265Y-34527180D01*
X64006265Y-34527180D02*
X64006265Y-34622419D01*
X64387217Y-33622419D02*
X65006264Y-33622419D01*
X65006264Y-33622419D02*
X64672931Y-34003371D01*
X64672931Y-34003371D02*
X64815788Y-34003371D01*
X64815788Y-34003371D02*
X64911026Y-34050990D01*
X64911026Y-34050990D02*
X64958645Y-34098609D01*
X64958645Y-34098609D02*
X65006264Y-34193847D01*
X65006264Y-34193847D02*
X65006264Y-34431942D01*
X65006264Y-34431942D02*
X64958645Y-34527180D01*
X64958645Y-34527180D02*
X64911026Y-34574800D01*
X64911026Y-34574800D02*
X64815788Y-34622419D01*
X64815788Y-34622419D02*
X64530074Y-34622419D01*
X64530074Y-34622419D02*
X64434836Y-34574800D01*
X64434836Y-34574800D02*
X64387217Y-34527180D01*
X69077693Y-33670038D02*
X68982455Y-33622419D01*
X68982455Y-33622419D02*
X68839598Y-33622419D01*
X68839598Y-33622419D02*
X68696741Y-33670038D01*
X68696741Y-33670038D02*
X68601503Y-33765276D01*
X68601503Y-33765276D02*
X68553884Y-33860514D01*
X68553884Y-33860514D02*
X68506265Y-34050990D01*
X68506265Y-34050990D02*
X68506265Y-34193847D01*
X68506265Y-34193847D02*
X68553884Y-34384323D01*
X68553884Y-34384323D02*
X68601503Y-34479561D01*
X68601503Y-34479561D02*
X68696741Y-34574800D01*
X68696741Y-34574800D02*
X68839598Y-34622419D01*
X68839598Y-34622419D02*
X68934836Y-34622419D01*
X68934836Y-34622419D02*
X69077693Y-34574800D01*
X69077693Y-34574800D02*
X69125312Y-34527180D01*
X69125312Y-34527180D02*
X69125312Y-34193847D01*
X69125312Y-34193847D02*
X68934836Y-34193847D01*
X69553884Y-34622419D02*
X69553884Y-33622419D01*
X69553884Y-33622419D02*
X70125312Y-34622419D01*
X70125312Y-34622419D02*
X70125312Y-33622419D01*
X70601503Y-34622419D02*
X70601503Y-33622419D01*
X70601503Y-33622419D02*
X70839598Y-33622419D01*
X70839598Y-33622419D02*
X70982455Y-33670038D01*
X70982455Y-33670038D02*
X71077693Y-33765276D01*
X71077693Y-33765276D02*
X71125312Y-33860514D01*
X71125312Y-33860514D02*
X71172931Y-34050990D01*
X71172931Y-34050990D02*
X71172931Y-34193847D01*
X71172931Y-34193847D02*
X71125312Y-34384323D01*
X71125312Y-34384323D02*
X71077693Y-34479561D01*
X71077693Y-34479561D02*
X70982455Y-34574800D01*
X70982455Y-34574800D02*
X70839598Y-34622419D01*
X70839598Y-34622419D02*
X70601503Y-34622419D01*
X65741980Y-34574800D02*
X65884837Y-34622419D01*
X65884837Y-34622419D02*
X66122932Y-34622419D01*
X66122932Y-34622419D02*
X66218170Y-34574800D01*
X66218170Y-34574800D02*
X66265789Y-34527180D01*
X66265789Y-34527180D02*
X66313408Y-34431942D01*
X66313408Y-34431942D02*
X66313408Y-34336704D01*
X66313408Y-34336704D02*
X66265789Y-34241466D01*
X66265789Y-34241466D02*
X66218170Y-34193847D01*
X66218170Y-34193847D02*
X66122932Y-34146228D01*
X66122932Y-34146228D02*
X65932456Y-34098609D01*
X65932456Y-34098609D02*
X65837218Y-34050990D01*
X65837218Y-34050990D02*
X65789599Y-34003371D01*
X65789599Y-34003371D02*
X65741980Y-33908133D01*
X65741980Y-33908133D02*
X65741980Y-33812895D01*
X65741980Y-33812895D02*
X65789599Y-33717657D01*
X65789599Y-33717657D02*
X65837218Y-33670038D01*
X65837218Y-33670038D02*
X65932456Y-33622419D01*
X65932456Y-33622419D02*
X66170551Y-33622419D01*
X66170551Y-33622419D02*
X66313408Y-33670038D01*
X66741980Y-34622419D02*
X66741980Y-33622419D01*
X67741979Y-33670038D02*
X67646741Y-33622419D01*
X67646741Y-33622419D02*
X67503884Y-33622419D01*
X67503884Y-33622419D02*
X67361027Y-33670038D01*
X67361027Y-33670038D02*
X67265789Y-33765276D01*
X67265789Y-33765276D02*
X67218170Y-33860514D01*
X67218170Y-33860514D02*
X67170551Y-34050990D01*
X67170551Y-34050990D02*
X67170551Y-34193847D01*
X67170551Y-34193847D02*
X67218170Y-34384323D01*
X67218170Y-34384323D02*
X67265789Y-34479561D01*
X67265789Y-34479561D02*
X67361027Y-34574800D01*
X67361027Y-34574800D02*
X67503884Y-34622419D01*
X67503884Y-34622419D02*
X67599122Y-34622419D01*
X67599122Y-34622419D02*
X67741979Y-34574800D01*
X67741979Y-34574800D02*
X67789598Y-34527180D01*
X67789598Y-34527180D02*
X67789598Y-34193847D01*
X67789598Y-34193847D02*
X67599122Y-34193847D01*
X58500000Y-19500000D02*
X75000000Y-19500000D01*
X75000000Y-36000000D01*
X58500000Y-36000000D01*
X58500000Y-19500000D01*
X43458646Y-33622419D02*
X44077693Y-33622419D01*
X44077693Y-33622419D02*
X43744360Y-34003371D01*
X43744360Y-34003371D02*
X43887217Y-34003371D01*
X43887217Y-34003371D02*
X43982455Y-34050990D01*
X43982455Y-34050990D02*
X44030074Y-34098609D01*
X44030074Y-34098609D02*
X44077693Y-34193847D01*
X44077693Y-34193847D02*
X44077693Y-34431942D01*
X44077693Y-34431942D02*
X44030074Y-34527180D01*
X44030074Y-34527180D02*
X43982455Y-34574800D01*
X43982455Y-34574800D02*
X43887217Y-34622419D01*
X43887217Y-34622419D02*
X43601503Y-34622419D01*
X43601503Y-34622419D02*
X43506265Y-34574800D01*
X43506265Y-34574800D02*
X43458646Y-34527180D01*
X44506265Y-34527180D02*
X44553884Y-34574800D01*
X44553884Y-34574800D02*
X44506265Y-34622419D01*
X44506265Y-34622419D02*
X44458646Y-34574800D01*
X44458646Y-34574800D02*
X44506265Y-34527180D01*
X44506265Y-34527180D02*
X44506265Y-34622419D01*
X44887217Y-33622419D02*
X45506264Y-33622419D01*
X45506264Y-33622419D02*
X45172931Y-34003371D01*
X45172931Y-34003371D02*
X45315788Y-34003371D01*
X45315788Y-34003371D02*
X45411026Y-34050990D01*
X45411026Y-34050990D02*
X45458645Y-34098609D01*
X45458645Y-34098609D02*
X45506264Y-34193847D01*
X45506264Y-34193847D02*
X45506264Y-34431942D01*
X45506264Y-34431942D02*
X45458645Y-34527180D01*
X45458645Y-34527180D02*
X45411026Y-34574800D01*
X45411026Y-34574800D02*
X45315788Y-34622419D01*
X45315788Y-34622419D02*
X45030074Y-34622419D01*
X45030074Y-34622419D02*
X44934836Y-34574800D01*
X44934836Y-34574800D02*
X44887217Y-34527180D01*
X46241980Y-34574800D02*
X46384837Y-34622419D01*
X46384837Y-34622419D02*
X46622932Y-34622419D01*
X46622932Y-34622419D02*
X46718170Y-34574800D01*
X46718170Y-34574800D02*
X46765789Y-34527180D01*
X46765789Y-34527180D02*
X46813408Y-34431942D01*
X46813408Y-34431942D02*
X46813408Y-34336704D01*
X46813408Y-34336704D02*
X46765789Y-34241466D01*
X46765789Y-34241466D02*
X46718170Y-34193847D01*
X46718170Y-34193847D02*
X46622932Y-34146228D01*
X46622932Y-34146228D02*
X46432456Y-34098609D01*
X46432456Y-34098609D02*
X46337218Y-34050990D01*
X46337218Y-34050990D02*
X46289599Y-34003371D01*
X46289599Y-34003371D02*
X46241980Y-33908133D01*
X46241980Y-33908133D02*
X46241980Y-33812895D01*
X46241980Y-33812895D02*
X46289599Y-33717657D01*
X46289599Y-33717657D02*
X46337218Y-33670038D01*
X46337218Y-33670038D02*
X46432456Y-33622419D01*
X46432456Y-33622419D02*
X46670551Y-33622419D01*
X46670551Y-33622419D02*
X46813408Y-33670038D01*
X47241980Y-34622419D02*
X47241980Y-33622419D01*
X48241979Y-33670038D02*
X48146741Y-33622419D01*
X48146741Y-33622419D02*
X48003884Y-33622419D01*
X48003884Y-33622419D02*
X47861027Y-33670038D01*
X47861027Y-33670038D02*
X47765789Y-33765276D01*
X47765789Y-33765276D02*
X47718170Y-33860514D01*
X47718170Y-33860514D02*
X47670551Y-34050990D01*
X47670551Y-34050990D02*
X47670551Y-34193847D01*
X47670551Y-34193847D02*
X47718170Y-34384323D01*
X47718170Y-34384323D02*
X47765789Y-34479561D01*
X47765789Y-34479561D02*
X47861027Y-34574800D01*
X47861027Y-34574800D02*
X48003884Y-34622419D01*
X48003884Y-34622419D02*
X48099122Y-34622419D01*
X48099122Y-34622419D02*
X48241979Y-34574800D01*
X48241979Y-34574800D02*
X48289598Y-34527180D01*
X48289598Y-34527180D02*
X48289598Y-34193847D01*
X48289598Y-34193847D02*
X48099122Y-34193847D01*
X49577693Y-33670038D02*
X49482455Y-33622419D01*
X49482455Y-33622419D02*
X49339598Y-33622419D01*
X49339598Y-33622419D02*
X49196741Y-33670038D01*
X49196741Y-33670038D02*
X49101503Y-33765276D01*
X49101503Y-33765276D02*
X49053884Y-33860514D01*
X49053884Y-33860514D02*
X49006265Y-34050990D01*
X49006265Y-34050990D02*
X49006265Y-34193847D01*
X49006265Y-34193847D02*
X49053884Y-34384323D01*
X49053884Y-34384323D02*
X49101503Y-34479561D01*
X49101503Y-34479561D02*
X49196741Y-34574800D01*
X49196741Y-34574800D02*
X49339598Y-34622419D01*
X49339598Y-34622419D02*
X49434836Y-34622419D01*
X49434836Y-34622419D02*
X49577693Y-34574800D01*
X49577693Y-34574800D02*
X49625312Y-34527180D01*
X49625312Y-34527180D02*
X49625312Y-34193847D01*
X49625312Y-34193847D02*
X49434836Y-34193847D01*
X50053884Y-34622419D02*
X50053884Y-33622419D01*
X50053884Y-33622419D02*
X50625312Y-34622419D01*
X50625312Y-34622419D02*
X50625312Y-33622419D01*
X51101503Y-34622419D02*
X51101503Y-33622419D01*
X51101503Y-33622419D02*
X51339598Y-33622419D01*
X51339598Y-33622419D02*
X51482455Y-33670038D01*
X51482455Y-33670038D02*
X51577693Y-33765276D01*
X51577693Y-33765276D02*
X51625312Y-33860514D01*
X51625312Y-33860514D02*
X51672931Y-34050990D01*
X51672931Y-34050990D02*
X51672931Y-34193847D01*
X51672931Y-34193847D02*
X51625312Y-34384323D01*
X51625312Y-34384323D02*
X51577693Y-34479561D01*
X51577693Y-34479561D02*
X51482455Y-34574800D01*
X51482455Y-34574800D02*
X51339598Y-34622419D01*
X51339598Y-34622419D02*
X51101503Y-34622419D01*
X39000000Y-19500000D02*
X55500000Y-19500000D01*
X55500000Y-36000000D01*
X39000000Y-36000000D01*
X39000000Y-19500000D01*
X23958646Y-33622419D02*
X24577693Y-33622419D01*
X24577693Y-33622419D02*
X24244360Y-34003371D01*
X24244360Y-34003371D02*
X24387217Y-34003371D01*
X24387217Y-34003371D02*
X24482455Y-34050990D01*
X24482455Y-34050990D02*
X24530074Y-34098609D01*
X24530074Y-34098609D02*
X24577693Y-34193847D01*
X24577693Y-34193847D02*
X24577693Y-34431942D01*
X24577693Y-34431942D02*
X24530074Y-34527180D01*
X24530074Y-34527180D02*
X24482455Y-34574800D01*
X24482455Y-34574800D02*
X24387217Y-34622419D01*
X24387217Y-34622419D02*
X24101503Y-34622419D01*
X24101503Y-34622419D02*
X24006265Y-34574800D01*
X24006265Y-34574800D02*
X23958646Y-34527180D01*
X25006265Y-34527180D02*
X25053884Y-34574800D01*
X25053884Y-34574800D02*
X25006265Y-34622419D01*
X25006265Y-34622419D02*
X24958646Y-34574800D01*
X24958646Y-34574800D02*
X25006265Y-34527180D01*
X25006265Y-34527180D02*
X25006265Y-34622419D01*
X25387217Y-33622419D02*
X26006264Y-33622419D01*
X26006264Y-33622419D02*
X25672931Y-34003371D01*
X25672931Y-34003371D02*
X25815788Y-34003371D01*
X25815788Y-34003371D02*
X25911026Y-34050990D01*
X25911026Y-34050990D02*
X25958645Y-34098609D01*
X25958645Y-34098609D02*
X26006264Y-34193847D01*
X26006264Y-34193847D02*
X26006264Y-34431942D01*
X26006264Y-34431942D02*
X25958645Y-34527180D01*
X25958645Y-34527180D02*
X25911026Y-34574800D01*
X25911026Y-34574800D02*
X25815788Y-34622419D01*
X25815788Y-34622419D02*
X25530074Y-34622419D01*
X25530074Y-34622419D02*
X25434836Y-34574800D01*
X25434836Y-34574800D02*
X25387217Y-34527180D01*
X26741980Y-34574800D02*
X26884837Y-34622419D01*
X26884837Y-34622419D02*
X27122932Y-34622419D01*
X27122932Y-34622419D02*
X27218170Y-34574800D01*
X27218170Y-34574800D02*
X27265789Y-34527180D01*
X27265789Y-34527180D02*
X27313408Y-34431942D01*
X27313408Y-34431942D02*
X27313408Y-34336704D01*
X27313408Y-34336704D02*
X27265789Y-34241466D01*
X27265789Y-34241466D02*
X27218170Y-34193847D01*
X27218170Y-34193847D02*
X27122932Y-34146228D01*
X27122932Y-34146228D02*
X26932456Y-34098609D01*
X26932456Y-34098609D02*
X26837218Y-34050990D01*
X26837218Y-34050990D02*
X26789599Y-34003371D01*
X26789599Y-34003371D02*
X26741980Y-33908133D01*
X26741980Y-33908133D02*
X26741980Y-33812895D01*
X26741980Y-33812895D02*
X26789599Y-33717657D01*
X26789599Y-33717657D02*
X26837218Y-33670038D01*
X26837218Y-33670038D02*
X26932456Y-33622419D01*
X26932456Y-33622419D02*
X27170551Y-33622419D01*
X27170551Y-33622419D02*
X27313408Y-33670038D01*
X27741980Y-34622419D02*
X27741980Y-33622419D01*
X28741979Y-33670038D02*
X28646741Y-33622419D01*
X28646741Y-33622419D02*
X28503884Y-33622419D01*
X28503884Y-33622419D02*
X28361027Y-33670038D01*
X28361027Y-33670038D02*
X28265789Y-33765276D01*
X28265789Y-33765276D02*
X28218170Y-33860514D01*
X28218170Y-33860514D02*
X28170551Y-34050990D01*
X28170551Y-34050990D02*
X28170551Y-34193847D01*
X28170551Y-34193847D02*
X28218170Y-34384323D01*
X28218170Y-34384323D02*
X28265789Y-34479561D01*
X28265789Y-34479561D02*
X28361027Y-34574800D01*
X28361027Y-34574800D02*
X28503884Y-34622419D01*
X28503884Y-34622419D02*
X28599122Y-34622419D01*
X28599122Y-34622419D02*
X28741979Y-34574800D01*
X28741979Y-34574800D02*
X28789598Y-34527180D01*
X28789598Y-34527180D02*
X28789598Y-34193847D01*
X28789598Y-34193847D02*
X28599122Y-34193847D01*
X30077693Y-33670038D02*
X29982455Y-33622419D01*
X29982455Y-33622419D02*
X29839598Y-33622419D01*
X29839598Y-33622419D02*
X29696741Y-33670038D01*
X29696741Y-33670038D02*
X29601503Y-33765276D01*
X29601503Y-33765276D02*
X29553884Y-33860514D01*
X29553884Y-33860514D02*
X29506265Y-34050990D01*
X29506265Y-34050990D02*
X29506265Y-34193847D01*
X29506265Y-34193847D02*
X29553884Y-34384323D01*
X29553884Y-34384323D02*
X29601503Y-34479561D01*
X29601503Y-34479561D02*
X29696741Y-34574800D01*
X29696741Y-34574800D02*
X29839598Y-34622419D01*
X29839598Y-34622419D02*
X29934836Y-34622419D01*
X29934836Y-34622419D02*
X30077693Y-34574800D01*
X30077693Y-34574800D02*
X30125312Y-34527180D01*
X30125312Y-34527180D02*
X30125312Y-34193847D01*
X30125312Y-34193847D02*
X29934836Y-34193847D01*
X30553884Y-34622419D02*
X30553884Y-33622419D01*
X30553884Y-33622419D02*
X31125312Y-34622419D01*
X31125312Y-34622419D02*
X31125312Y-33622419D01*
X31601503Y-34622419D02*
X31601503Y-33622419D01*
X31601503Y-33622419D02*
X31839598Y-33622419D01*
X31839598Y-33622419D02*
X31982455Y-33670038D01*
X31982455Y-33670038D02*
X32077693Y-33765276D01*
X32077693Y-33765276D02*
X32125312Y-33860514D01*
X32125312Y-33860514D02*
X32172931Y-34050990D01*
X32172931Y-34050990D02*
X32172931Y-34193847D01*
X32172931Y-34193847D02*
X32125312Y-34384323D01*
X32125312Y-34384323D02*
X32077693Y-34479561D01*
X32077693Y-34479561D02*
X31982455Y-34574800D01*
X31982455Y-34574800D02*
X31839598Y-34622419D01*
X31839598Y-34622419D02*
X31601503Y-34622419D01*
X19500000Y-19500000D02*
X36000000Y-19500000D01*
X36000000Y-36000000D01*
X19500000Y-36000000D01*
X19500000Y-19500000D01*
X4458646Y-33622419D02*
X5077693Y-33622419D01*
X5077693Y-33622419D02*
X4744360Y-34003371D01*
X4744360Y-34003371D02*
X4887217Y-34003371D01*
X4887217Y-34003371D02*
X4982455Y-34050990D01*
X4982455Y-34050990D02*
X5030074Y-34098609D01*
X5030074Y-34098609D02*
X5077693Y-34193847D01*
X5077693Y-34193847D02*
X5077693Y-34431942D01*
X5077693Y-34431942D02*
X5030074Y-34527180D01*
X5030074Y-34527180D02*
X4982455Y-34574800D01*
X4982455Y-34574800D02*
X4887217Y-34622419D01*
X4887217Y-34622419D02*
X4601503Y-34622419D01*
X4601503Y-34622419D02*
X4506265Y-34574800D01*
X4506265Y-34574800D02*
X4458646Y-34527180D01*
X5506265Y-34527180D02*
X5553884Y-34574800D01*
X5553884Y-34574800D02*
X5506265Y-34622419D01*
X5506265Y-34622419D02*
X5458646Y-34574800D01*
X5458646Y-34574800D02*
X5506265Y-34527180D01*
X5506265Y-34527180D02*
X5506265Y-34622419D01*
X5887217Y-33622419D02*
X6506264Y-33622419D01*
X6506264Y-33622419D02*
X6172931Y-34003371D01*
X6172931Y-34003371D02*
X6315788Y-34003371D01*
X6315788Y-34003371D02*
X6411026Y-34050990D01*
X6411026Y-34050990D02*
X6458645Y-34098609D01*
X6458645Y-34098609D02*
X6506264Y-34193847D01*
X6506264Y-34193847D02*
X6506264Y-34431942D01*
X6506264Y-34431942D02*
X6458645Y-34527180D01*
X6458645Y-34527180D02*
X6411026Y-34574800D01*
X6411026Y-34574800D02*
X6315788Y-34622419D01*
X6315788Y-34622419D02*
X6030074Y-34622419D01*
X6030074Y-34622419D02*
X5934836Y-34574800D01*
X5934836Y-34574800D02*
X5887217Y-34527180D01*
X7241980Y-34574800D02*
X7384837Y-34622419D01*
X7384837Y-34622419D02*
X7622932Y-34622419D01*
X7622932Y-34622419D02*
X7718170Y-34574800D01*
X7718170Y-34574800D02*
X7765789Y-34527180D01*
X7765789Y-34527180D02*
X7813408Y-34431942D01*
X7813408Y-34431942D02*
X7813408Y-34336704D01*
X7813408Y-34336704D02*
X7765789Y-34241466D01*
X7765789Y-34241466D02*
X7718170Y-34193847D01*
X7718170Y-34193847D02*
X7622932Y-34146228D01*
X7622932Y-34146228D02*
X7432456Y-34098609D01*
X7432456Y-34098609D02*
X7337218Y-34050990D01*
X7337218Y-34050990D02*
X7289599Y-34003371D01*
X7289599Y-34003371D02*
X7241980Y-33908133D01*
X7241980Y-33908133D02*
X7241980Y-33812895D01*
X7241980Y-33812895D02*
X7289599Y-33717657D01*
X7289599Y-33717657D02*
X7337218Y-33670038D01*
X7337218Y-33670038D02*
X7432456Y-33622419D01*
X7432456Y-33622419D02*
X7670551Y-33622419D01*
X7670551Y-33622419D02*
X7813408Y-33670038D01*
X8241980Y-34622419D02*
X8241980Y-33622419D01*
X9241979Y-33670038D02*
X9146741Y-33622419D01*
X9146741Y-33622419D02*
X9003884Y-33622419D01*
X9003884Y-33622419D02*
X8861027Y-33670038D01*
X8861027Y-33670038D02*
X8765789Y-33765276D01*
X8765789Y-33765276D02*
X8718170Y-33860514D01*
X8718170Y-33860514D02*
X8670551Y-34050990D01*
X8670551Y-34050990D02*
X8670551Y-34193847D01*
X8670551Y-34193847D02*
X8718170Y-34384323D01*
X8718170Y-34384323D02*
X8765789Y-34479561D01*
X8765789Y-34479561D02*
X8861027Y-34574800D01*
X8861027Y-34574800D02*
X9003884Y-34622419D01*
X9003884Y-34622419D02*
X9099122Y-34622419D01*
X9099122Y-34622419D02*
X9241979Y-34574800D01*
X9241979Y-34574800D02*
X9289598Y-34527180D01*
X9289598Y-34527180D02*
X9289598Y-34193847D01*
X9289598Y-34193847D02*
X9099122Y-34193847D01*
X10577693Y-33670038D02*
X10482455Y-33622419D01*
X10482455Y-33622419D02*
X10339598Y-33622419D01*
X10339598Y-33622419D02*
X10196741Y-33670038D01*
X10196741Y-33670038D02*
X10101503Y-33765276D01*
X10101503Y-33765276D02*
X10053884Y-33860514D01*
X10053884Y-33860514D02*
X10006265Y-34050990D01*
X10006265Y-34050990D02*
X10006265Y-34193847D01*
X10006265Y-34193847D02*
X10053884Y-34384323D01*
X10053884Y-34384323D02*
X10101503Y-34479561D01*
X10101503Y-34479561D02*
X10196741Y-34574800D01*
X10196741Y-34574800D02*
X10339598Y-34622419D01*
X10339598Y-34622419D02*
X10434836Y-34622419D01*
X10434836Y-34622419D02*
X10577693Y-34574800D01*
X10577693Y-34574800D02*
X10625312Y-34527180D01*
X10625312Y-34527180D02*
X10625312Y-34193847D01*
X10625312Y-34193847D02*
X10434836Y-34193847D01*
X11053884Y-34622419D02*
X11053884Y-33622419D01*
X11053884Y-33622419D02*
X11625312Y-34622419D01*
X11625312Y-34622419D02*
X11625312Y-33622419D01*
X12101503Y-34622419D02*
X12101503Y-33622419D01*
X12101503Y-33622419D02*
X12339598Y-33622419D01*
X12339598Y-33622419D02*
X12482455Y-33670038D01*
X12482455Y-33670038D02*
X12577693Y-33765276D01*
X12577693Y-33765276D02*
X12625312Y-33860514D01*
X12625312Y-33860514D02*
X12672931Y-34050990D01*
X12672931Y-34050990D02*
X12672931Y-34193847D01*
X12672931Y-34193847D02*
X12625312Y-34384323D01*
X12625312Y-34384323D02*
X12577693Y-34479561D01*
X12577693Y-34479561D02*
X12482455Y-34574800D01*
X12482455Y-34574800D02*
X12339598Y-34622419D01*
X12339598Y-34622419D02*
X12101503Y-34622419D01*
X0Y-19500000D02*
X16500000Y-19500000D01*
X16500000Y-36000000D01*
X0Y-36000000D01*
X0Y-19500000D01*
X85241980Y-15074800D02*
X85384837Y-15122419D01*
X85384837Y-15122419D02*
X85622932Y-15122419D01*
X85622932Y-15122419D02*
X85718170Y-15074800D01*
X85718170Y-15074800D02*
X85765789Y-15027180D01*
X85765789Y-15027180D02*
X85813408Y-14931942D01*
X85813408Y-14931942D02*
X85813408Y-14836704D01*
X85813408Y-14836704D02*
X85765789Y-14741466D01*
X85765789Y-14741466D02*
X85718170Y-14693847D01*
X85718170Y-14693847D02*
X85622932Y-14646228D01*
X85622932Y-14646228D02*
X85432456Y-14598609D01*
X85432456Y-14598609D02*
X85337218Y-14550990D01*
X85337218Y-14550990D02*
X85289599Y-14503371D01*
X85289599Y-14503371D02*
X85241980Y-14408133D01*
X85241980Y-14408133D02*
X85241980Y-14312895D01*
X85241980Y-14312895D02*
X85289599Y-14217657D01*
X85289599Y-14217657D02*
X85337218Y-14170038D01*
X85337218Y-14170038D02*
X85432456Y-14122419D01*
X85432456Y-14122419D02*
X85670551Y-14122419D01*
X85670551Y-14122419D02*
X85813408Y-14170038D01*
X86241980Y-15122419D02*
X86241980Y-14122419D01*
X87241979Y-14170038D02*
X87146741Y-14122419D01*
X87146741Y-14122419D02*
X87003884Y-14122419D01*
X87003884Y-14122419D02*
X86861027Y-14170038D01*
X86861027Y-14170038D02*
X86765789Y-14265276D01*
X86765789Y-14265276D02*
X86718170Y-14360514D01*
X86718170Y-14360514D02*
X86670551Y-14550990D01*
X86670551Y-14550990D02*
X86670551Y-14693847D01*
X86670551Y-14693847D02*
X86718170Y-14884323D01*
X86718170Y-14884323D02*
X86765789Y-14979561D01*
X86765789Y-14979561D02*
X86861027Y-15074800D01*
X86861027Y-15074800D02*
X87003884Y-15122419D01*
X87003884Y-15122419D02*
X87099122Y-15122419D01*
X87099122Y-15122419D02*
X87241979Y-15074800D01*
X87241979Y-15074800D02*
X87289598Y-15027180D01*
X87289598Y-15027180D02*
X87289598Y-14693847D01*
X87289598Y-14693847D02*
X87099122Y-14693847D01*
X82458646Y-14122419D02*
X83077693Y-14122419D01*
X83077693Y-14122419D02*
X82744360Y-14503371D01*
X82744360Y-14503371D02*
X82887217Y-14503371D01*
X82887217Y-14503371D02*
X82982455Y-14550990D01*
X82982455Y-14550990D02*
X83030074Y-14598609D01*
X83030074Y-14598609D02*
X83077693Y-14693847D01*
X83077693Y-14693847D02*
X83077693Y-14931942D01*
X83077693Y-14931942D02*
X83030074Y-15027180D01*
X83030074Y-15027180D02*
X82982455Y-15074800D01*
X82982455Y-15074800D02*
X82887217Y-15122419D01*
X82887217Y-15122419D02*
X82601503Y-15122419D01*
X82601503Y-15122419D02*
X82506265Y-15074800D01*
X82506265Y-15074800D02*
X82458646Y-15027180D01*
X83506265Y-15027180D02*
X83553884Y-15074800D01*
X83553884Y-15074800D02*
X83506265Y-15122419D01*
X83506265Y-15122419D02*
X83458646Y-15074800D01*
X83458646Y-15074800D02*
X83506265Y-15027180D01*
X83506265Y-15027180D02*
X83506265Y-15122419D01*
X83887217Y-14122419D02*
X84506264Y-14122419D01*
X84506264Y-14122419D02*
X84172931Y-14503371D01*
X84172931Y-14503371D02*
X84315788Y-14503371D01*
X84315788Y-14503371D02*
X84411026Y-14550990D01*
X84411026Y-14550990D02*
X84458645Y-14598609D01*
X84458645Y-14598609D02*
X84506264Y-14693847D01*
X84506264Y-14693847D02*
X84506264Y-14931942D01*
X84506264Y-14931942D02*
X84458645Y-15027180D01*
X84458645Y-15027180D02*
X84411026Y-15074800D01*
X84411026Y-15074800D02*
X84315788Y-15122419D01*
X84315788Y-15122419D02*
X84030074Y-15122419D01*
X84030074Y-15122419D02*
X83934836Y-15074800D01*
X83934836Y-15074800D02*
X83887217Y-15027180D01*
X88577693Y-14170038D02*
X88482455Y-14122419D01*
X88482455Y-14122419D02*
X88339598Y-14122419D01*
X88339598Y-14122419D02*
X88196741Y-14170038D01*
X88196741Y-14170038D02*
X88101503Y-14265276D01*
X88101503Y-14265276D02*
X88053884Y-14360514D01*
X88053884Y-14360514D02*
X88006265Y-14550990D01*
X88006265Y-14550990D02*
X88006265Y-14693847D01*
X88006265Y-14693847D02*
X88053884Y-14884323D01*
X88053884Y-14884323D02*
X88101503Y-14979561D01*
X88101503Y-14979561D02*
X88196741Y-15074800D01*
X88196741Y-15074800D02*
X88339598Y-15122419D01*
X88339598Y-15122419D02*
X88434836Y-15122419D01*
X88434836Y-15122419D02*
X88577693Y-15074800D01*
X88577693Y-15074800D02*
X88625312Y-15027180D01*
X88625312Y-15027180D02*
X88625312Y-14693847D01*
X88625312Y-14693847D02*
X88434836Y-14693847D01*
X89053884Y-15122419D02*
X89053884Y-14122419D01*
X89053884Y-14122419D02*
X89625312Y-15122419D01*
X89625312Y-15122419D02*
X89625312Y-14122419D01*
X90101503Y-15122419D02*
X90101503Y-14122419D01*
X90101503Y-14122419D02*
X90339598Y-14122419D01*
X90339598Y-14122419D02*
X90482455Y-14170038D01*
X90482455Y-14170038D02*
X90577693Y-14265276D01*
X90577693Y-14265276D02*
X90625312Y-14360514D01*
X90625312Y-14360514D02*
X90672931Y-14550990D01*
X90672931Y-14550990D02*
X90672931Y-14693847D01*
X90672931Y-14693847D02*
X90625312Y-14884323D01*
X90625312Y-14884323D02*
X90577693Y-14979561D01*
X90577693Y-14979561D02*
X90482455Y-15074800D01*
X90482455Y-15074800D02*
X90339598Y-15122419D01*
X90339598Y-15122419D02*
X90101503Y-15122419D01*
X78000000Y0D02*
X94500000Y0D01*
X94500000Y-16500000D01*
X78000000Y-16500000D01*
X78000000Y0D01*
X62958646Y-14122419D02*
X63577693Y-14122419D01*
X63577693Y-14122419D02*
X63244360Y-14503371D01*
X63244360Y-14503371D02*
X63387217Y-14503371D01*
X63387217Y-14503371D02*
X63482455Y-14550990D01*
X63482455Y-14550990D02*
X63530074Y-14598609D01*
X63530074Y-14598609D02*
X63577693Y-14693847D01*
X63577693Y-14693847D02*
X63577693Y-14931942D01*
X63577693Y-14931942D02*
X63530074Y-15027180D01*
X63530074Y-15027180D02*
X63482455Y-15074800D01*
X63482455Y-15074800D02*
X63387217Y-15122419D01*
X63387217Y-15122419D02*
X63101503Y-15122419D01*
X63101503Y-15122419D02*
X63006265Y-15074800D01*
X63006265Y-15074800D02*
X62958646Y-15027180D01*
X64006265Y-15027180D02*
X64053884Y-15074800D01*
X64053884Y-15074800D02*
X64006265Y-15122419D01*
X64006265Y-15122419D02*
X63958646Y-15074800D01*
X63958646Y-15074800D02*
X64006265Y-15027180D01*
X64006265Y-15027180D02*
X64006265Y-15122419D01*
X64387217Y-14122419D02*
X65006264Y-14122419D01*
X65006264Y-14122419D02*
X64672931Y-14503371D01*
X64672931Y-14503371D02*
X64815788Y-14503371D01*
X64815788Y-14503371D02*
X64911026Y-14550990D01*
X64911026Y-14550990D02*
X64958645Y-14598609D01*
X64958645Y-14598609D02*
X65006264Y-14693847D01*
X65006264Y-14693847D02*
X65006264Y-14931942D01*
X65006264Y-14931942D02*
X64958645Y-15027180D01*
X64958645Y-15027180D02*
X64911026Y-15074800D01*
X64911026Y-15074800D02*
X64815788Y-15122419D01*
X64815788Y-15122419D02*
X64530074Y-15122419D01*
X64530074Y-15122419D02*
X64434836Y-15074800D01*
X64434836Y-15074800D02*
X64387217Y-15027180D01*
X58500000Y0D02*
X75000000Y0D01*
X75000000Y-16500000D01*
X58500000Y-16500000D01*
X58500000Y0D01*
X65741980Y-15074800D02*
X65884837Y-15122419D01*
X65884837Y-15122419D02*
X66122932Y-15122419D01*
X66122932Y-15122419D02*
X66218170Y-15074800D01*
X66218170Y-15074800D02*
X66265789Y-15027180D01*
X66265789Y-15027180D02*
X66313408Y-14931942D01*
X66313408Y-14931942D02*
X66313408Y-14836704D01*
X66313408Y-14836704D02*
X66265789Y-14741466D01*
X66265789Y-14741466D02*
X66218170Y-14693847D01*
X66218170Y-14693847D02*
X66122932Y-14646228D01*
X66122932Y-14646228D02*
X65932456Y-14598609D01*
X65932456Y-14598609D02*
X65837218Y-14550990D01*
X65837218Y-14550990D02*
X65789599Y-14503371D01*
X65789599Y-14503371D02*
X65741980Y-14408133D01*
X65741980Y-14408133D02*
X65741980Y-14312895D01*
X65741980Y-14312895D02*
X65789599Y-14217657D01*
X65789599Y-14217657D02*
X65837218Y-14170038D01*
X65837218Y-14170038D02*
X65932456Y-14122419D01*
X65932456Y-14122419D02*
X66170551Y-14122419D01*
X66170551Y-14122419D02*
X66313408Y-14170038D01*
X66741980Y-15122419D02*
X66741980Y-14122419D01*
X67741979Y-14170038D02*
X67646741Y-14122419D01*
X67646741Y-14122419D02*
X67503884Y-14122419D01*
X67503884Y-14122419D02*
X67361027Y-14170038D01*
X67361027Y-14170038D02*
X67265789Y-14265276D01*
X67265789Y-14265276D02*
X67218170Y-14360514D01*
X67218170Y-14360514D02*
X67170551Y-14550990D01*
X67170551Y-14550990D02*
X67170551Y-14693847D01*
X67170551Y-14693847D02*
X67218170Y-14884323D01*
X67218170Y-14884323D02*
X67265789Y-14979561D01*
X67265789Y-14979561D02*
X67361027Y-15074800D01*
X67361027Y-15074800D02*
X67503884Y-15122419D01*
X67503884Y-15122419D02*
X67599122Y-15122419D01*
X67599122Y-15122419D02*
X67741979Y-15074800D01*
X67741979Y-15074800D02*
X67789598Y-15027180D01*
X67789598Y-15027180D02*
X67789598Y-14693847D01*
X67789598Y-14693847D02*
X67599122Y-14693847D01*
X69077693Y-14170038D02*
X68982455Y-14122419D01*
X68982455Y-14122419D02*
X68839598Y-14122419D01*
X68839598Y-14122419D02*
X68696741Y-14170038D01*
X68696741Y-14170038D02*
X68601503Y-14265276D01*
X68601503Y-14265276D02*
X68553884Y-14360514D01*
X68553884Y-14360514D02*
X68506265Y-14550990D01*
X68506265Y-14550990D02*
X68506265Y-14693847D01*
X68506265Y-14693847D02*
X68553884Y-14884323D01*
X68553884Y-14884323D02*
X68601503Y-14979561D01*
X68601503Y-14979561D02*
X68696741Y-15074800D01*
X68696741Y-15074800D02*
X68839598Y-15122419D01*
X68839598Y-15122419D02*
X68934836Y-15122419D01*
X68934836Y-15122419D02*
X69077693Y-15074800D01*
X69077693Y-15074800D02*
X69125312Y-15027180D01*
X69125312Y-15027180D02*
X69125312Y-14693847D01*
X69125312Y-14693847D02*
X68934836Y-14693847D01*
X69553884Y-15122419D02*
X69553884Y-14122419D01*
X69553884Y-14122419D02*
X70125312Y-15122419D01*
X70125312Y-15122419D02*
X70125312Y-14122419D01*
X70601503Y-15122419D02*
X70601503Y-14122419D01*
X70601503Y-14122419D02*
X70839598Y-14122419D01*
X70839598Y-14122419D02*
X70982455Y-14170038D01*
X70982455Y-14170038D02*
X71077693Y-14265276D01*
X71077693Y-14265276D02*
X71125312Y-14360514D01*
X71125312Y-14360514D02*
X71172931Y-14550990D01*
X71172931Y-14550990D02*
X71172931Y-14693847D01*
X71172931Y-14693847D02*
X71125312Y-14884323D01*
X71125312Y-14884323D02*
X71077693Y-14979561D01*
X71077693Y-14979561D02*
X70982455Y-15074800D01*
X70982455Y-15074800D02*
X70839598Y-15122419D01*
X70839598Y-15122419D02*
X70601503Y-15122419D01*
X43458646Y-14122419D02*
X44077693Y-14122419D01*
X44077693Y-14122419D02*
X43744360Y-14503371D01*
X43744360Y-14503371D02*
X43887217Y-14503371D01*
X43887217Y-14503371D02*
X43982455Y-14550990D01*
X43982455Y-14550990D02*
X44030074Y-14598609D01*
X44030074Y-14598609D02*
X44077693Y-14693847D01*
X44077693Y-14693847D02*
X44077693Y-14931942D01*
X44077693Y-14931942D02*
X44030074Y-15027180D01*
X44030074Y-15027180D02*
X43982455Y-15074800D01*
X43982455Y-15074800D02*
X43887217Y-15122419D01*
X43887217Y-15122419D02*
X43601503Y-15122419D01*
X43601503Y-15122419D02*
X43506265Y-15074800D01*
X43506265Y-15074800D02*
X43458646Y-15027180D01*
X44506265Y-15027180D02*
X44553884Y-15074800D01*
X44553884Y-15074800D02*
X44506265Y-15122419D01*
X44506265Y-15122419D02*
X44458646Y-15074800D01*
X44458646Y-15074800D02*
X44506265Y-15027180D01*
X44506265Y-15027180D02*
X44506265Y-15122419D01*
X44887217Y-14122419D02*
X45506264Y-14122419D01*
X45506264Y-14122419D02*
X45172931Y-14503371D01*
X45172931Y-14503371D02*
X45315788Y-14503371D01*
X45315788Y-14503371D02*
X45411026Y-14550990D01*
X45411026Y-14550990D02*
X45458645Y-14598609D01*
X45458645Y-14598609D02*
X45506264Y-14693847D01*
X45506264Y-14693847D02*
X45506264Y-14931942D01*
X45506264Y-14931942D02*
X45458645Y-15027180D01*
X45458645Y-15027180D02*
X45411026Y-15074800D01*
X45411026Y-15074800D02*
X45315788Y-15122419D01*
X45315788Y-15122419D02*
X45030074Y-15122419D01*
X45030074Y-15122419D02*
X44934836Y-15074800D01*
X44934836Y-15074800D02*
X44887217Y-15027180D01*
X46241980Y-15074800D02*
X46384837Y-15122419D01*
X46384837Y-15122419D02*
X46622932Y-15122419D01*
X46622932Y-15122419D02*
X46718170Y-15074800D01*
X46718170Y-15074800D02*
X46765789Y-15027180D01*
X46765789Y-15027180D02*
X46813408Y-14931942D01*
X46813408Y-14931942D02*
X46813408Y-14836704D01*
X46813408Y-14836704D02*
X46765789Y-14741466D01*
X46765789Y-14741466D02*
X46718170Y-14693847D01*
X46718170Y-14693847D02*
X46622932Y-14646228D01*
X46622932Y-14646228D02*
X46432456Y-14598609D01*
X46432456Y-14598609D02*
X46337218Y-14550990D01*
X46337218Y-14550990D02*
X46289599Y-14503371D01*
X46289599Y-14503371D02*
X46241980Y-14408133D01*
X46241980Y-14408133D02*
X46241980Y-14312895D01*
X46241980Y-14312895D02*
X46289599Y-14217657D01*
X46289599Y-14217657D02*
X46337218Y-14170038D01*
X46337218Y-14170038D02*
X46432456Y-14122419D01*
X46432456Y-14122419D02*
X46670551Y-14122419D01*
X46670551Y-14122419D02*
X46813408Y-14170038D01*
X47241980Y-15122419D02*
X47241980Y-14122419D01*
X48241979Y-14170038D02*
X48146741Y-14122419D01*
X48146741Y-14122419D02*
X48003884Y-14122419D01*
X48003884Y-14122419D02*
X47861027Y-14170038D01*
X47861027Y-14170038D02*
X47765789Y-14265276D01*
X47765789Y-14265276D02*
X47718170Y-14360514D01*
X47718170Y-14360514D02*
X47670551Y-14550990D01*
X47670551Y-14550990D02*
X47670551Y-14693847D01*
X47670551Y-14693847D02*
X47718170Y-14884323D01*
X47718170Y-14884323D02*
X47765789Y-14979561D01*
X47765789Y-14979561D02*
X47861027Y-15074800D01*
X47861027Y-15074800D02*
X48003884Y-15122419D01*
X48003884Y-15122419D02*
X48099122Y-15122419D01*
X48099122Y-15122419D02*
X48241979Y-15074800D01*
X48241979Y-15074800D02*
X48289598Y-15027180D01*
X48289598Y-15027180D02*
X48289598Y-14693847D01*
X48289598Y-14693847D02*
X48099122Y-14693847D01*
X49577693Y-14170038D02*
X49482455Y-14122419D01*
X49482455Y-14122419D02*
X49339598Y-14122419D01*
X49339598Y-14122419D02*
X49196741Y-14170038D01*
X49196741Y-14170038D02*
X49101503Y-14265276D01*
X49101503Y-14265276D02*
X49053884Y-14360514D01*
X49053884Y-14360514D02*
X49006265Y-14550990D01*
X49006265Y-14550990D02*
X49006265Y-14693847D01*
X49006265Y-14693847D02*
X49053884Y-14884323D01*
X49053884Y-14884323D02*
X49101503Y-14979561D01*
X49101503Y-14979561D02*
X49196741Y-15074800D01*
X49196741Y-15074800D02*
X49339598Y-15122419D01*
X49339598Y-15122419D02*
X49434836Y-15122419D01*
X49434836Y-15122419D02*
X49577693Y-15074800D01*
X49577693Y-15074800D02*
X49625312Y-15027180D01*
X49625312Y-15027180D02*
X49625312Y-14693847D01*
X49625312Y-14693847D02*
X49434836Y-14693847D01*
X50053884Y-15122419D02*
X50053884Y-14122419D01*
X50053884Y-14122419D02*
X50625312Y-15122419D01*
X50625312Y-15122419D02*
X50625312Y-14122419D01*
X51101503Y-15122419D02*
X51101503Y-14122419D01*
X51101503Y-14122419D02*
X51339598Y-14122419D01*
X51339598Y-14122419D02*
X51482455Y-14170038D01*
X51482455Y-14170038D02*
X51577693Y-14265276D01*
X51577693Y-14265276D02*
X51625312Y-14360514D01*
X51625312Y-14360514D02*
X51672931Y-14550990D01*
X51672931Y-14550990D02*
X51672931Y-14693847D01*
X51672931Y-14693847D02*
X51625312Y-14884323D01*
X51625312Y-14884323D02*
X51577693Y-14979561D01*
X51577693Y-14979561D02*
X51482455Y-15074800D01*
X51482455Y-15074800D02*
X51339598Y-15122419D01*
X51339598Y-15122419D02*
X51101503Y-15122419D01*
X39000000Y0D02*
X55500000Y0D01*
X55500000Y-16500000D01*
X39000000Y-16500000D01*
X39000000Y0D01*
X0Y0D02*
X16500000Y0D01*
X16500000Y-16500000D01*
X0Y-16500000D01*
X0Y0D01*
X4458646Y-14122419D02*
X5077693Y-14122419D01*
X5077693Y-14122419D02*
X4744360Y-14503371D01*
X4744360Y-14503371D02*
X4887217Y-14503371D01*
X4887217Y-14503371D02*
X4982455Y-14550990D01*
X4982455Y-14550990D02*
X5030074Y-14598609D01*
X5030074Y-14598609D02*
X5077693Y-14693847D01*
X5077693Y-14693847D02*
X5077693Y-14931942D01*
X5077693Y-14931942D02*
X5030074Y-15027180D01*
X5030074Y-15027180D02*
X4982455Y-15074800D01*
X4982455Y-15074800D02*
X4887217Y-15122419D01*
X4887217Y-15122419D02*
X4601503Y-15122419D01*
X4601503Y-15122419D02*
X4506265Y-15074800D01*
X4506265Y-15074800D02*
X4458646Y-15027180D01*
X5506265Y-15027180D02*
X5553884Y-15074800D01*
X5553884Y-15074800D02*
X5506265Y-15122419D01*
X5506265Y-15122419D02*
X5458646Y-15074800D01*
X5458646Y-15074800D02*
X5506265Y-15027180D01*
X5506265Y-15027180D02*
X5506265Y-15122419D01*
X5887217Y-14122419D02*
X6506264Y-14122419D01*
X6506264Y-14122419D02*
X6172931Y-14503371D01*
X6172931Y-14503371D02*
X6315788Y-14503371D01*
X6315788Y-14503371D02*
X6411026Y-14550990D01*
X6411026Y-14550990D02*
X6458645Y-14598609D01*
X6458645Y-14598609D02*
X6506264Y-14693847D01*
X6506264Y-14693847D02*
X6506264Y-14931942D01*
X6506264Y-14931942D02*
X6458645Y-15027180D01*
X6458645Y-15027180D02*
X6411026Y-15074800D01*
X6411026Y-15074800D02*
X6315788Y-15122419D01*
X6315788Y-15122419D02*
X6030074Y-15122419D01*
X6030074Y-15122419D02*
X5934836Y-15074800D01*
X5934836Y-15074800D02*
X5887217Y-15027180D01*
X7241980Y-15074800D02*
X7384837Y-15122419D01*
X7384837Y-15122419D02*
X7622932Y-15122419D01*
X7622932Y-15122419D02*
X7718170Y-15074800D01*
X7718170Y-15074800D02*
X7765789Y-15027180D01*
X7765789Y-15027180D02*
X7813408Y-14931942D01*
X7813408Y-14931942D02*
X7813408Y-14836704D01*
X7813408Y-14836704D02*
X7765789Y-14741466D01*
X7765789Y-14741466D02*
X7718170Y-14693847D01*
X7718170Y-14693847D02*
X7622932Y-14646228D01*
X7622932Y-14646228D02*
X7432456Y-14598609D01*
X7432456Y-14598609D02*
X7337218Y-14550990D01*
X7337218Y-14550990D02*
X7289599Y-14503371D01*
X7289599Y-14503371D02*
X7241980Y-14408133D01*
X7241980Y-14408133D02*
X7241980Y-14312895D01*
X7241980Y-14312895D02*
X7289599Y-14217657D01*
X7289599Y-14217657D02*
X7337218Y-14170038D01*
X7337218Y-14170038D02*
X7432456Y-14122419D01*
X7432456Y-14122419D02*
X7670551Y-14122419D01*
X7670551Y-14122419D02*
X7813408Y-14170038D01*
X8241980Y-15122419D02*
X8241980Y-14122419D01*
X9241979Y-14170038D02*
X9146741Y-14122419D01*
X9146741Y-14122419D02*
X9003884Y-14122419D01*
X9003884Y-14122419D02*
X8861027Y-14170038D01*
X8861027Y-14170038D02*
X8765789Y-14265276D01*
X8765789Y-14265276D02*
X8718170Y-14360514D01*
X8718170Y-14360514D02*
X8670551Y-14550990D01*
X8670551Y-14550990D02*
X8670551Y-14693847D01*
X8670551Y-14693847D02*
X8718170Y-14884323D01*
X8718170Y-14884323D02*
X8765789Y-14979561D01*
X8765789Y-14979561D02*
X8861027Y-15074800D01*
X8861027Y-15074800D02*
X9003884Y-15122419D01*
X9003884Y-15122419D02*
X9099122Y-15122419D01*
X9099122Y-15122419D02*
X9241979Y-15074800D01*
X9241979Y-15074800D02*
X9289598Y-15027180D01*
X9289598Y-15027180D02*
X9289598Y-14693847D01*
X9289598Y-14693847D02*
X9099122Y-14693847D01*
X10577693Y-14170038D02*
X10482455Y-14122419D01*
X10482455Y-14122419D02*
X10339598Y-14122419D01*
X10339598Y-14122419D02*
X10196741Y-14170038D01*
X10196741Y-14170038D02*
X10101503Y-14265276D01*
X10101503Y-14265276D02*
X10053884Y-14360514D01*
X10053884Y-14360514D02*
X10006265Y-14550990D01*
X10006265Y-14550990D02*
X10006265Y-14693847D01*
X10006265Y-14693847D02*
X10053884Y-14884323D01*
X10053884Y-14884323D02*
X10101503Y-14979561D01*
X10101503Y-14979561D02*
X10196741Y-15074800D01*
X10196741Y-15074800D02*
X10339598Y-15122419D01*
X10339598Y-15122419D02*
X10434836Y-15122419D01*
X10434836Y-15122419D02*
X10577693Y-15074800D01*
X10577693Y-15074800D02*
X10625312Y-15027180D01*
X10625312Y-15027180D02*
X10625312Y-14693847D01*
X10625312Y-14693847D02*
X10434836Y-14693847D01*
X11053884Y-15122419D02*
X11053884Y-14122419D01*
X11053884Y-14122419D02*
X11625312Y-15122419D01*
X11625312Y-15122419D02*
X11625312Y-14122419D01*
X12101503Y-15122419D02*
X12101503Y-14122419D01*
X12101503Y-14122419D02*
X12339598Y-14122419D01*
X12339598Y-14122419D02*
X12482455Y-14170038D01*
X12482455Y-14170038D02*
X12577693Y-14265276D01*
X12577693Y-14265276D02*
X12625312Y-14360514D01*
X12625312Y-14360514D02*
X12672931Y-14550990D01*
X12672931Y-14550990D02*
X12672931Y-14693847D01*
X12672931Y-14693847D02*
X12625312Y-14884323D01*
X12625312Y-14884323D02*
X12577693Y-14979561D01*
X12577693Y-14979561D02*
X12482455Y-15074800D01*
X12482455Y-15074800D02*
X12339598Y-15122419D01*
X12339598Y-15122419D02*
X12101503Y-15122419D01*
%LPC*%
D11*
X23950000Y-9540000D03*
D12*
X23950000Y-7000000D03*
X26490000Y-9540000D03*
X26490000Y-7000000D03*
X29030000Y-9540000D03*
X29030000Y-7000000D03*
X31570000Y-9540000D03*
X31570000Y-7000000D03*
D13*
X25250000Y-12500000D03*
X30250000Y-12500000D03*
D14*
X23815000Y-4210000D03*
X30165000Y-1670000D03*
D13*
X27750000Y-12500000D03*
D11*
X82450000Y-87540000D03*
D12*
X82450000Y-85000000D03*
X84990000Y-87540000D03*
X84990000Y-85000000D03*
X87530000Y-87540000D03*
X87530000Y-85000000D03*
X90070000Y-87540000D03*
X90070000Y-85000000D03*
D13*
X83750000Y-90500000D03*
X88750000Y-90500000D03*
D14*
X82315000Y-82210000D03*
X88665000Y-79670000D03*
D13*
X86250000Y-90500000D03*
D11*
X62950000Y-87540000D03*
D12*
X62950000Y-85000000D03*
X65490000Y-87540000D03*
X65490000Y-85000000D03*
X68030000Y-87540000D03*
X68030000Y-85000000D03*
X70570000Y-87540000D03*
X70570000Y-85000000D03*
D13*
X66750000Y-90500000D03*
X64250000Y-90500000D03*
X69250000Y-90500000D03*
D14*
X62815000Y-82210000D03*
X69165000Y-79670000D03*
D11*
X43450000Y-87540000D03*
D12*
X43450000Y-85000000D03*
X45990000Y-87540000D03*
X45990000Y-85000000D03*
X48530000Y-87540000D03*
X48530000Y-85000000D03*
X51070000Y-87540000D03*
X51070000Y-85000000D03*
D13*
X44750000Y-90500000D03*
X49750000Y-90500000D03*
D14*
X43315000Y-82210000D03*
X49665000Y-79670000D03*
D13*
X47250000Y-90500000D03*
D11*
X23950000Y-87540000D03*
D12*
X23950000Y-85000000D03*
X26490000Y-87540000D03*
X26490000Y-85000000D03*
X29030000Y-87540000D03*
X29030000Y-85000000D03*
X31570000Y-87540000D03*
X31570000Y-85000000D03*
D13*
X25250000Y-90500000D03*
X30250000Y-90500000D03*
X27750000Y-90500000D03*
D14*
X23815000Y-82210000D03*
X30165000Y-79670000D03*
D11*
X4450000Y-87540000D03*
D12*
X4450000Y-85000000D03*
X6990000Y-87540000D03*
X6990000Y-85000000D03*
X9530000Y-87540000D03*
X9530000Y-85000000D03*
X12070000Y-87540000D03*
X12070000Y-85000000D03*
D14*
X4315000Y-82210000D03*
X10665000Y-79670000D03*
D13*
X8250000Y-90500000D03*
X5750000Y-90500000D03*
X10750000Y-90500000D03*
X86250000Y-71000000D03*
D11*
X82450000Y-68040000D03*
D12*
X82450000Y-65500000D03*
X84990000Y-68040000D03*
X84990000Y-65500000D03*
X87530000Y-68040000D03*
X87530000Y-65500000D03*
X90070000Y-68040000D03*
X90070000Y-65500000D03*
D13*
X83750000Y-71000000D03*
X88750000Y-71000000D03*
D14*
X82315000Y-62710000D03*
X88665000Y-60170000D03*
D11*
X62950000Y-68040000D03*
D12*
X62950000Y-65500000D03*
X65490000Y-68040000D03*
X65490000Y-65500000D03*
X68030000Y-68040000D03*
X68030000Y-65500000D03*
X70570000Y-68040000D03*
X70570000Y-65500000D03*
D14*
X62815000Y-62710000D03*
X69165000Y-60170000D03*
D13*
X64250000Y-71000000D03*
X69250000Y-71000000D03*
X66750000Y-71000000D03*
D11*
X43450000Y-68040000D03*
D12*
X43450000Y-65500000D03*
X45990000Y-68040000D03*
X45990000Y-65500000D03*
X48530000Y-68040000D03*
X48530000Y-65500000D03*
X51070000Y-68040000D03*
X51070000Y-65500000D03*
D13*
X47250000Y-71000000D03*
X44750000Y-71000000D03*
X49750000Y-71000000D03*
D14*
X43315000Y-62710000D03*
X49665000Y-60170000D03*
D11*
X23950000Y-68040000D03*
D12*
X23950000Y-65500000D03*
X26490000Y-68040000D03*
X26490000Y-65500000D03*
X29030000Y-68040000D03*
X29030000Y-65500000D03*
X31570000Y-68040000D03*
X31570000Y-65500000D03*
D13*
X25250000Y-71000000D03*
X30250000Y-71000000D03*
D14*
X23815000Y-62710000D03*
X30165000Y-60170000D03*
D13*
X27750000Y-71000000D03*
D11*
X4450000Y-68040000D03*
D12*
X4450000Y-65500000D03*
X6990000Y-68040000D03*
X6990000Y-65500000D03*
X9530000Y-68040000D03*
X9530000Y-65500000D03*
X12070000Y-68040000D03*
X12070000Y-65500000D03*
D13*
X5750000Y-71000000D03*
X10750000Y-71000000D03*
D14*
X4315000Y-62710000D03*
X10665000Y-60170000D03*
D13*
X8250000Y-71000000D03*
D11*
X82450000Y-48540000D03*
D12*
X82450000Y-46000000D03*
X84990000Y-48540000D03*
X84990000Y-46000000D03*
X87530000Y-48540000D03*
X87530000Y-46000000D03*
X90070000Y-48540000D03*
X90070000Y-46000000D03*
D13*
X83750000Y-51500000D03*
D14*
X82315000Y-43210000D03*
X88665000Y-40670000D03*
D13*
X88750000Y-51500000D03*
X86250000Y-51500000D03*
D11*
X62950000Y-48540000D03*
D12*
X62950000Y-46000000D03*
X65490000Y-48540000D03*
X65490000Y-46000000D03*
X68030000Y-48540000D03*
X68030000Y-46000000D03*
X70570000Y-48540000D03*
X70570000Y-46000000D03*
D13*
X66750000Y-51500000D03*
D14*
X62815000Y-43210000D03*
X69165000Y-40670000D03*
D13*
X64250000Y-51500000D03*
X69250000Y-51500000D03*
D11*
X43450000Y-48540000D03*
D12*
X43450000Y-46000000D03*
X45990000Y-48540000D03*
X45990000Y-46000000D03*
X48530000Y-48540000D03*
X48530000Y-46000000D03*
X51070000Y-48540000D03*
X51070000Y-46000000D03*
D13*
X49750000Y-51500000D03*
X44750000Y-51500000D03*
D14*
X43315000Y-43210000D03*
X49665000Y-40670000D03*
D13*
X47250000Y-51500000D03*
D11*
X23950000Y-48540000D03*
D12*
X23950000Y-46000000D03*
X26490000Y-48540000D03*
X26490000Y-46000000D03*
X29030000Y-48540000D03*
X29030000Y-46000000D03*
X31570000Y-48540000D03*
X31570000Y-46000000D03*
D13*
X25250000Y-51500000D03*
X30250000Y-51500000D03*
D14*
X23815000Y-43210000D03*
X30165000Y-40670000D03*
D13*
X27750000Y-51500000D03*
D11*
X4450000Y-48540000D03*
D12*
X4450000Y-46000000D03*
X6990000Y-48540000D03*
X6990000Y-46000000D03*
X9530000Y-48540000D03*
X9530000Y-46000000D03*
X12070000Y-48540000D03*
X12070000Y-46000000D03*
D13*
X5750000Y-51500000D03*
X10750000Y-51500000D03*
D14*
X4315000Y-43210000D03*
X10665000Y-40670000D03*
D13*
X8250000Y-51500000D03*
D11*
X82450000Y-29040000D03*
D12*
X82450000Y-26500000D03*
X84990000Y-29040000D03*
X84990000Y-26500000D03*
X87530000Y-29040000D03*
X87530000Y-26500000D03*
X90070000Y-29040000D03*
X90070000Y-26500000D03*
D13*
X88750000Y-32000000D03*
X83750000Y-32000000D03*
X86250000Y-32000000D03*
D14*
X82315000Y-23710000D03*
X88665000Y-21170000D03*
D13*
X69250000Y-32000000D03*
D11*
X62950000Y-29040000D03*
D12*
X62950000Y-26500000D03*
X65490000Y-29040000D03*
X65490000Y-26500000D03*
X68030000Y-29040000D03*
X68030000Y-26500000D03*
X70570000Y-29040000D03*
X70570000Y-26500000D03*
D13*
X64250000Y-32000000D03*
D14*
X62815000Y-23710000D03*
X69165000Y-21170000D03*
D13*
X66750000Y-32000000D03*
D11*
X43450000Y-29040000D03*
D12*
X43450000Y-26500000D03*
X45990000Y-29040000D03*
X45990000Y-26500000D03*
X48530000Y-29040000D03*
X48530000Y-26500000D03*
X51070000Y-29040000D03*
X51070000Y-26500000D03*
D14*
X43315000Y-23710000D03*
X49665000Y-21170000D03*
D13*
X44750000Y-32000000D03*
X49750000Y-32000000D03*
X47250000Y-32000000D03*
D11*
X23950000Y-29040000D03*
D12*
X23950000Y-26500000D03*
X26490000Y-29040000D03*
X26490000Y-26500000D03*
X29030000Y-29040000D03*
X29030000Y-26500000D03*
X31570000Y-29040000D03*
X31570000Y-26500000D03*
D13*
X25250000Y-32000000D03*
X30250000Y-32000000D03*
D14*
X23815000Y-23710000D03*
X30165000Y-21170000D03*
D13*
X27750000Y-32000000D03*
D11*
X4450000Y-29040000D03*
D12*
X4450000Y-26500000D03*
X6990000Y-29040000D03*
X6990000Y-26500000D03*
X9530000Y-29040000D03*
X9530000Y-26500000D03*
X12070000Y-29040000D03*
X12070000Y-26500000D03*
D13*
X8250000Y-32000000D03*
X5750000Y-32000000D03*
X10750000Y-32000000D03*
D14*
X4315000Y-23710000D03*
X10665000Y-21170000D03*
D11*
X82450000Y-9540000D03*
D12*
X82450000Y-7000000D03*
X84990000Y-9540000D03*
X84990000Y-7000000D03*
X87530000Y-9540000D03*
X87530000Y-7000000D03*
X90070000Y-9540000D03*
X90070000Y-7000000D03*
D13*
X83750000Y-12500000D03*
X88750000Y-12500000D03*
D14*
X82315000Y-4210000D03*
X88665000Y-1670000D03*
D13*
X86250000Y-12500000D03*
D11*
X62950000Y-9540000D03*
D12*
X62950000Y-7000000D03*
X65490000Y-9540000D03*
X65490000Y-7000000D03*
X68030000Y-9540000D03*
X68030000Y-7000000D03*
X70570000Y-9540000D03*
X70570000Y-7000000D03*
D14*
X62815000Y-4210000D03*
X69165000Y-1670000D03*
D13*
X64250000Y-12500000D03*
X69250000Y-12500000D03*
X66750000Y-12500000D03*
D11*
X43450000Y-9540000D03*
D12*
X43450000Y-7000000D03*
X45990000Y-9540000D03*
X45990000Y-7000000D03*
X48530000Y-9540000D03*
X48530000Y-7000000D03*
X51070000Y-9540000D03*
X51070000Y-7000000D03*
D13*
X49750000Y-12500000D03*
X44750000Y-12500000D03*
D14*
X43315000Y-4210000D03*
X49665000Y-1670000D03*
D13*
X47250000Y-12500000D03*
X10750000Y-12500000D03*
X5750000Y-12500000D03*
X8250000Y-12500000D03*
D14*
X4315000Y-4210000D03*
X10665000Y-1670000D03*
D11*
X4450000Y-9540000D03*
D12*
X4450000Y-7000000D03*
X6990000Y-9540000D03*
X6990000Y-7000000D03*
X9530000Y-9540000D03*
X9530000Y-7000000D03*
X12070000Y-9540000D03*
X12070000Y-7000000D03*
D15*
X21000000Y-9750000D03*
X79500000Y-87750000D03*
X60000000Y-87750000D03*
X40500000Y-87750000D03*
X21000000Y-87750000D03*
X1500000Y-87750000D03*
X79500000Y-68250000D03*
X60000000Y-68250000D03*
X40500000Y-68250000D03*
X21000000Y-68250000D03*
X1500000Y-68250000D03*
X79500000Y-48750000D03*
X60000000Y-48750000D03*
X40500000Y-48750000D03*
X21000000Y-48750000D03*
X1500000Y-48750000D03*
X79500000Y-29250000D03*
X60000000Y-29250000D03*
X40500000Y-29250000D03*
X21000000Y-29250000D03*
X1500000Y-29250000D03*
X79500000Y-9750000D03*
X60000000Y-9750000D03*
X40500000Y-9750000D03*
X1500000Y-9750000D03*
%LPD*%
M02*
