M48
; DRILL file {KiCad 8.0.0-8.0.0-1~ubuntu22.04.1} date 2024-03-04T18:16:44+0100
; FORMAT={-:-/ absolute / metric / decimal}
; #@! TF.CreationDate,2024-03-04T18:16:44+01:00
; #@! TF.GenerationSoftware,Kicad,Pcbnew,8.0.0-8.0.0-1~ubuntu22.04.1
; #@! TF.FileFunction,Plated,1,2,PTH
FMAT,2
METRIC
; #@! TA.AperFunction,Plated,PTH,ViaDrill
T1C0.300
; #@! TA.AperFunction,Plated,PTH,ComponentDrill
T2C1.000
; #@! TA.AperFunction,Plated,PTH,ComponentDrill
T3C1.500
%
G90
G05
T1
X1.5Y-9.75
X1.5Y-29.25
X1.5Y-48.75
X1.5Y-68.25
X1.5Y-87.75
X21.0Y-9.75
X21.0Y-29.25
X21.0Y-48.75
X21.0Y-68.25
X21.0Y-87.75
X40.5Y-9.75
X40.5Y-29.25
X40.5Y-48.75
X40.5Y-68.25
X40.5Y-87.75
X60.0Y-9.75
X60.0Y-29.25
X60.0Y-48.75
X60.0Y-68.25
X60.0Y-87.75
X79.5Y-9.75
X79.5Y-29.25
X79.5Y-48.75
X79.5Y-68.25
X79.5Y-87.75
T2
X4.45Y-7.0
X4.45Y-9.54
X4.45Y-26.5
X4.45Y-29.04
X4.45Y-46.0
X4.45Y-48.54
X4.45Y-65.5
X4.45Y-68.04
X4.45Y-85.0
X4.45Y-87.54
X6.99Y-7.0
X6.99Y-9.54
X6.99Y-26.5
X6.99Y-29.04
X6.99Y-46.0
X6.99Y-48.54
X6.99Y-65.5
X6.99Y-68.04
X6.99Y-85.0
X6.99Y-87.54
X9.53Y-7.0
X9.53Y-9.54
X9.53Y-26.5
X9.53Y-29.04
X9.53Y-46.0
X9.53Y-48.54
X9.53Y-65.5
X9.53Y-68.04
X9.53Y-85.0
X9.53Y-87.54
X12.07Y-7.0
X12.07Y-9.54
X12.07Y-26.5
X12.07Y-29.04
X12.07Y-46.0
X12.07Y-48.54
X12.07Y-65.5
X12.07Y-68.04
X12.07Y-85.0
X12.07Y-87.54
X23.95Y-7.0
X23.95Y-9.54
X23.95Y-26.5
X23.95Y-29.04
X23.95Y-46.0
X23.95Y-48.54
X23.95Y-65.5
X23.95Y-68.04
X23.95Y-85.0
X23.95Y-87.54
X26.49Y-7.0
X26.49Y-9.54
X26.49Y-26.5
X26.49Y-29.04
X26.49Y-46.0
X26.49Y-48.54
X26.49Y-65.5
X26.49Y-68.04
X26.49Y-85.0
X26.49Y-87.54
X29.03Y-7.0
X29.03Y-9.54
X29.03Y-26.5
X29.03Y-29.04
X29.03Y-46.0
X29.03Y-48.54
X29.03Y-65.5
X29.03Y-68.04
X29.03Y-85.0
X29.03Y-87.54
X31.57Y-7.0
X31.57Y-9.54
X31.57Y-26.5
X31.57Y-29.04
X31.57Y-46.0
X31.57Y-48.54
X31.57Y-65.5
X31.57Y-68.04
X31.57Y-85.0
X31.57Y-87.54
X43.45Y-7.0
X43.45Y-9.54
X43.45Y-26.5
X43.45Y-29.04
X43.45Y-46.0
X43.45Y-48.54
X43.45Y-65.5
X43.45Y-68.04
X43.45Y-85.0
X43.45Y-87.54
X45.99Y-7.0
X45.99Y-9.54
X45.99Y-26.5
X45.99Y-29.04
X45.99Y-46.0
X45.99Y-48.54
X45.99Y-65.5
X45.99Y-68.04
X45.99Y-85.0
X45.99Y-87.54
X48.53Y-7.0
X48.53Y-9.54
X48.53Y-26.5
X48.53Y-29.04
X48.53Y-46.0
X48.53Y-48.54
X48.53Y-65.5
X48.53Y-68.04
X48.53Y-85.0
X48.53Y-87.54
X51.07Y-7.0
X51.07Y-9.54
X51.07Y-26.5
X51.07Y-29.04
X51.07Y-46.0
X51.07Y-48.54
X51.07Y-65.5
X51.07Y-68.04
X51.07Y-85.0
X51.07Y-87.54
X62.95Y-7.0
X62.95Y-9.54
X62.95Y-26.5
X62.95Y-29.04
X62.95Y-46.0
X62.95Y-48.54
X62.95Y-65.5
X62.95Y-68.04
X62.95Y-85.0
X62.95Y-87.54
X65.49Y-7.0
X65.49Y-9.54
X65.49Y-26.5
X65.49Y-29.04
X65.49Y-46.0
X65.49Y-48.54
X65.49Y-65.5
X65.49Y-68.04
X65.49Y-85.0
X65.49Y-87.54
X68.03Y-7.0
X68.03Y-9.54
X68.03Y-26.5
X68.03Y-29.04
X68.03Y-46.0
X68.03Y-48.54
X68.03Y-65.5
X68.03Y-68.04
X68.03Y-85.0
X68.03Y-87.54
X70.57Y-7.0
X70.57Y-9.54
X70.57Y-26.5
X70.57Y-29.04
X70.57Y-46.0
X70.57Y-48.54
X70.57Y-65.5
X70.57Y-68.04
X70.57Y-85.0
X70.57Y-87.54
X82.45Y-7.0
X82.45Y-9.54
X82.45Y-26.5
X82.45Y-29.04
X82.45Y-46.0
X82.45Y-48.54
X82.45Y-65.5
X82.45Y-68.04
X82.45Y-85.0
X82.45Y-87.54
X84.99Y-7.0
X84.99Y-9.54
X84.99Y-26.5
X84.99Y-29.04
X84.99Y-46.0
X84.99Y-48.54
X84.99Y-65.5
X84.99Y-68.04
X84.99Y-85.0
X84.99Y-87.54
X87.53Y-7.0
X87.53Y-9.54
X87.53Y-26.5
X87.53Y-29.04
X87.53Y-46.0
X87.53Y-48.54
X87.53Y-65.5
X87.53Y-68.04
X87.53Y-85.0
X87.53Y-87.54
X90.07Y-7.0
X90.07Y-9.54
X90.07Y-26.5
X90.07Y-29.04
X90.07Y-46.0
X90.07Y-48.54
X90.07Y-65.5
X90.07Y-68.04
X90.07Y-85.0
X90.07Y-87.54
T3
X4.315Y-4.21
X4.315Y-23.71
X4.315Y-43.21
X4.315Y-62.71
X4.315Y-82.21
X10.665Y-1.67
X10.665Y-21.17
X10.665Y-40.67
X10.665Y-60.17
X10.665Y-79.67
X23.815Y-4.21
X23.815Y-23.71
X23.815Y-43.21
X23.815Y-62.71
X23.815Y-82.21
X30.165Y-1.67
X30.165Y-21.17
X30.165Y-40.67
X30.165Y-60.17
X30.165Y-79.67
X43.315Y-4.21
X43.315Y-23.71
X43.315Y-43.21
X43.315Y-62.71
X43.315Y-82.21
X49.665Y-1.67
X49.665Y-21.17
X49.665Y-40.67
X49.665Y-60.17
X49.665Y-79.67
X62.815Y-4.21
X62.815Y-23.71
X62.815Y-43.21
X62.815Y-62.71
X62.815Y-82.21
X69.165Y-1.67
X69.165Y-21.17
X69.165Y-40.67
X69.165Y-60.17
X69.165Y-79.67
X82.315Y-4.21
X82.315Y-23.71
X82.315Y-43.21
X82.315Y-62.71
X82.315Y-82.21
X88.665Y-1.67
X88.665Y-21.17
X88.665Y-40.67
X88.665Y-60.17
X88.665Y-79.67
M30
