G04 #@! TF.GenerationSoftware,KiCad,Pcbnew,8.0.0-8.0.0-1~ubuntu22.04.1*
G04 #@! TF.CreationDate,2024-03-04T18:16:00+01:00*
G04 #@! TF.ProjectId,1x1_panel,3178315f-7061-46e6-956c-2e6b69636164,rev?*
G04 #@! TF.SameCoordinates,Original*
G04 #@! TF.FileFunction,Legend,Bot*
G04 #@! TF.FilePolarity,Positive*
%FSLAX46Y46*%
G04 Gerber Fmt 4.6, Leading zero omitted, Abs format (unit mm)*
G04 Created by KiCad (PCBNEW 8.0.0-8.0.0-1~ubuntu22.04.1) date 2024-03-04 18:16:00*
%MOMM*%
%LPD*%
G01*
G04 APERTURE LIST*
G04 Aperture macros list*
%AMRoundRect*
0 Rectangle with rounded corners*
0 $1 Rounding radius*
0 $2 $3 $4 $5 $6 $7 $8 $9 X,Y pos of 4 corners*
0 Add a 4 corners polygon primitive as box body*
4,1,4,$2,$3,$4,$5,$6,$7,$8,$9,$2,$3,0*
0 Add four circle primitives for the rounded corners*
1,1,$1+$1,$2,$3*
1,1,$1+$1,$4,$5*
1,1,$1+$1,$6,$7*
1,1,$1+$1,$8,$9*
0 Add four rect primitives between the rounded corners*
20,1,$1+$1,$2,$3,$4,$5,0*
20,1,$1+$1,$4,$5,$6,$7,0*
20,1,$1+$1,$6,$7,$8,$9,0*
20,1,$1+$1,$8,$9,$2,$3,0*%
G04 Aperture macros list end*
%ADD10C,0.120000*%
%ADD11RoundRect,0.038000X-0.850000X0.850000X-0.850000X-0.850000X0.850000X-0.850000X0.850000X0.850000X0*%
%ADD12O,1.776000X1.776000*%
%ADD13C,2.576000*%
%ADD14C,0.976000*%
G04 APERTURE END LIST*
D10*
X22620000Y-8270000D02*
X22620000Y-5670000D01*
X22620000Y-10870000D02*
X22620000Y-9540000D01*
X23950000Y-10870000D02*
X22620000Y-10870000D01*
X25220000Y-8270000D02*
X22620000Y-8270000D01*
X25220000Y-10870000D02*
X25220000Y-8270000D01*
X32900000Y-5670000D02*
X22620000Y-5670000D01*
X32900000Y-10870000D02*
X25220000Y-10870000D01*
X32900000Y-10870000D02*
X32900000Y-5670000D01*
X81120000Y-86270000D02*
X81120000Y-83670000D01*
X81120000Y-88870000D02*
X81120000Y-87540000D01*
X82450000Y-88870000D02*
X81120000Y-88870000D01*
X83720000Y-86270000D02*
X81120000Y-86270000D01*
X83720000Y-88870000D02*
X83720000Y-86270000D01*
X91400000Y-83670000D02*
X81120000Y-83670000D01*
X91400000Y-88870000D02*
X83720000Y-88870000D01*
X91400000Y-88870000D02*
X91400000Y-83670000D01*
X61620000Y-86270000D02*
X61620000Y-83670000D01*
X61620000Y-88870000D02*
X61620000Y-87540000D01*
X62950000Y-88870000D02*
X61620000Y-88870000D01*
X64220000Y-86270000D02*
X61620000Y-86270000D01*
X64220000Y-88870000D02*
X64220000Y-86270000D01*
X71900000Y-83670000D02*
X61620000Y-83670000D01*
X71900000Y-88870000D02*
X64220000Y-88870000D01*
X71900000Y-88870000D02*
X71900000Y-83670000D01*
X42120000Y-86270000D02*
X42120000Y-83670000D01*
X42120000Y-88870000D02*
X42120000Y-87540000D01*
X43450000Y-88870000D02*
X42120000Y-88870000D01*
X44720000Y-86270000D02*
X42120000Y-86270000D01*
X44720000Y-88870000D02*
X44720000Y-86270000D01*
X52400000Y-83670000D02*
X42120000Y-83670000D01*
X52400000Y-88870000D02*
X44720000Y-88870000D01*
X52400000Y-88870000D02*
X52400000Y-83670000D01*
X22620000Y-86270000D02*
X22620000Y-83670000D01*
X22620000Y-88870000D02*
X22620000Y-87540000D01*
X23950000Y-88870000D02*
X22620000Y-88870000D01*
X25220000Y-86270000D02*
X22620000Y-86270000D01*
X25220000Y-88870000D02*
X25220000Y-86270000D01*
X32900000Y-83670000D02*
X22620000Y-83670000D01*
X32900000Y-88870000D02*
X25220000Y-88870000D01*
X32900000Y-88870000D02*
X32900000Y-83670000D01*
X3120000Y-86270000D02*
X3120000Y-83670000D01*
X3120000Y-88870000D02*
X3120000Y-87540000D01*
X4450000Y-88870000D02*
X3120000Y-88870000D01*
X5720000Y-86270000D02*
X3120000Y-86270000D01*
X5720000Y-88870000D02*
X5720000Y-86270000D01*
X13400000Y-83670000D02*
X3120000Y-83670000D01*
X13400000Y-88870000D02*
X5720000Y-88870000D01*
X13400000Y-88870000D02*
X13400000Y-83670000D01*
X81120000Y-66770000D02*
X81120000Y-64170000D01*
X81120000Y-69370000D02*
X81120000Y-68040000D01*
X82450000Y-69370000D02*
X81120000Y-69370000D01*
X83720000Y-66770000D02*
X81120000Y-66770000D01*
X83720000Y-69370000D02*
X83720000Y-66770000D01*
X91400000Y-64170000D02*
X81120000Y-64170000D01*
X91400000Y-69370000D02*
X83720000Y-69370000D01*
X91400000Y-69370000D02*
X91400000Y-64170000D01*
X61620000Y-66770000D02*
X61620000Y-64170000D01*
X61620000Y-69370000D02*
X61620000Y-68040000D01*
X62950000Y-69370000D02*
X61620000Y-69370000D01*
X64220000Y-66770000D02*
X61620000Y-66770000D01*
X64220000Y-69370000D02*
X64220000Y-66770000D01*
X71900000Y-64170000D02*
X61620000Y-64170000D01*
X71900000Y-69370000D02*
X64220000Y-69370000D01*
X71900000Y-69370000D02*
X71900000Y-64170000D01*
X42120000Y-66770000D02*
X42120000Y-64170000D01*
X42120000Y-69370000D02*
X42120000Y-68040000D01*
X43450000Y-69370000D02*
X42120000Y-69370000D01*
X44720000Y-66770000D02*
X42120000Y-66770000D01*
X44720000Y-69370000D02*
X44720000Y-66770000D01*
X52400000Y-64170000D02*
X42120000Y-64170000D01*
X52400000Y-69370000D02*
X44720000Y-69370000D01*
X52400000Y-69370000D02*
X52400000Y-64170000D01*
X22620000Y-66770000D02*
X22620000Y-64170000D01*
X22620000Y-69370000D02*
X22620000Y-68040000D01*
X23950000Y-69370000D02*
X22620000Y-69370000D01*
X25220000Y-66770000D02*
X22620000Y-66770000D01*
X25220000Y-69370000D02*
X25220000Y-66770000D01*
X32900000Y-64170000D02*
X22620000Y-64170000D01*
X32900000Y-69370000D02*
X25220000Y-69370000D01*
X32900000Y-69370000D02*
X32900000Y-64170000D01*
X3120000Y-66770000D02*
X3120000Y-64170000D01*
X3120000Y-69370000D02*
X3120000Y-68040000D01*
X4450000Y-69370000D02*
X3120000Y-69370000D01*
X5720000Y-66770000D02*
X3120000Y-66770000D01*
X5720000Y-69370000D02*
X5720000Y-66770000D01*
X13400000Y-64170000D02*
X3120000Y-64170000D01*
X13400000Y-69370000D02*
X5720000Y-69370000D01*
X13400000Y-69370000D02*
X13400000Y-64170000D01*
X81120000Y-47270000D02*
X81120000Y-44670000D01*
X81120000Y-49870000D02*
X81120000Y-48540000D01*
X82450000Y-49870000D02*
X81120000Y-49870000D01*
X83720000Y-47270000D02*
X81120000Y-47270000D01*
X83720000Y-49870000D02*
X83720000Y-47270000D01*
X91400000Y-44670000D02*
X81120000Y-44670000D01*
X91400000Y-49870000D02*
X83720000Y-49870000D01*
X91400000Y-49870000D02*
X91400000Y-44670000D01*
X61620000Y-47270000D02*
X61620000Y-44670000D01*
X61620000Y-49870000D02*
X61620000Y-48540000D01*
X62950000Y-49870000D02*
X61620000Y-49870000D01*
X64220000Y-47270000D02*
X61620000Y-47270000D01*
X64220000Y-49870000D02*
X64220000Y-47270000D01*
X71900000Y-44670000D02*
X61620000Y-44670000D01*
X71900000Y-49870000D02*
X64220000Y-49870000D01*
X71900000Y-49870000D02*
X71900000Y-44670000D01*
X42120000Y-47270000D02*
X42120000Y-44670000D01*
X42120000Y-49870000D02*
X42120000Y-48540000D01*
X43450000Y-49870000D02*
X42120000Y-49870000D01*
X44720000Y-47270000D02*
X42120000Y-47270000D01*
X44720000Y-49870000D02*
X44720000Y-47270000D01*
X52400000Y-44670000D02*
X42120000Y-44670000D01*
X52400000Y-49870000D02*
X44720000Y-49870000D01*
X52400000Y-49870000D02*
X52400000Y-44670000D01*
X22620000Y-47270000D02*
X22620000Y-44670000D01*
X22620000Y-49870000D02*
X22620000Y-48540000D01*
X23950000Y-49870000D02*
X22620000Y-49870000D01*
X25220000Y-47270000D02*
X22620000Y-47270000D01*
X25220000Y-49870000D02*
X25220000Y-47270000D01*
X32900000Y-44670000D02*
X22620000Y-44670000D01*
X32900000Y-49870000D02*
X25220000Y-49870000D01*
X32900000Y-49870000D02*
X32900000Y-44670000D01*
X3120000Y-47270000D02*
X3120000Y-44670000D01*
X3120000Y-49870000D02*
X3120000Y-48540000D01*
X4450000Y-49870000D02*
X3120000Y-49870000D01*
X5720000Y-47270000D02*
X3120000Y-47270000D01*
X5720000Y-49870000D02*
X5720000Y-47270000D01*
X13400000Y-44670000D02*
X3120000Y-44670000D01*
X13400000Y-49870000D02*
X5720000Y-49870000D01*
X13400000Y-49870000D02*
X13400000Y-44670000D01*
X81120000Y-27770000D02*
X81120000Y-25170000D01*
X81120000Y-30370000D02*
X81120000Y-29040000D01*
X82450000Y-30370000D02*
X81120000Y-30370000D01*
X83720000Y-27770000D02*
X81120000Y-27770000D01*
X83720000Y-30370000D02*
X83720000Y-27770000D01*
X91400000Y-25170000D02*
X81120000Y-25170000D01*
X91400000Y-30370000D02*
X83720000Y-30370000D01*
X91400000Y-30370000D02*
X91400000Y-25170000D01*
X61620000Y-27770000D02*
X61620000Y-25170000D01*
X61620000Y-30370000D02*
X61620000Y-29040000D01*
X62950000Y-30370000D02*
X61620000Y-30370000D01*
X64220000Y-27770000D02*
X61620000Y-27770000D01*
X64220000Y-30370000D02*
X64220000Y-27770000D01*
X71900000Y-25170000D02*
X61620000Y-25170000D01*
X71900000Y-30370000D02*
X64220000Y-30370000D01*
X71900000Y-30370000D02*
X71900000Y-25170000D01*
X42120000Y-27770000D02*
X42120000Y-25170000D01*
X42120000Y-30370000D02*
X42120000Y-29040000D01*
X43450000Y-30370000D02*
X42120000Y-30370000D01*
X44720000Y-27770000D02*
X42120000Y-27770000D01*
X44720000Y-30370000D02*
X44720000Y-27770000D01*
X52400000Y-25170000D02*
X42120000Y-25170000D01*
X52400000Y-30370000D02*
X44720000Y-30370000D01*
X52400000Y-30370000D02*
X52400000Y-25170000D01*
X22620000Y-27770000D02*
X22620000Y-25170000D01*
X22620000Y-30370000D02*
X22620000Y-29040000D01*
X23950000Y-30370000D02*
X22620000Y-30370000D01*
X25220000Y-27770000D02*
X22620000Y-27770000D01*
X25220000Y-30370000D02*
X25220000Y-27770000D01*
X32900000Y-25170000D02*
X22620000Y-25170000D01*
X32900000Y-30370000D02*
X25220000Y-30370000D01*
X32900000Y-30370000D02*
X32900000Y-25170000D01*
X3120000Y-27770000D02*
X3120000Y-25170000D01*
X3120000Y-30370000D02*
X3120000Y-29040000D01*
X4450000Y-30370000D02*
X3120000Y-30370000D01*
X5720000Y-27770000D02*
X3120000Y-27770000D01*
X5720000Y-30370000D02*
X5720000Y-27770000D01*
X13400000Y-25170000D02*
X3120000Y-25170000D01*
X13400000Y-30370000D02*
X5720000Y-30370000D01*
X13400000Y-30370000D02*
X13400000Y-25170000D01*
X81120000Y-8270000D02*
X81120000Y-5670000D01*
X81120000Y-10870000D02*
X81120000Y-9540000D01*
X82450000Y-10870000D02*
X81120000Y-10870000D01*
X83720000Y-8270000D02*
X81120000Y-8270000D01*
X83720000Y-10870000D02*
X83720000Y-8270000D01*
X91400000Y-5670000D02*
X81120000Y-5670000D01*
X91400000Y-10870000D02*
X83720000Y-10870000D01*
X91400000Y-10870000D02*
X91400000Y-5670000D01*
X61620000Y-8270000D02*
X61620000Y-5670000D01*
X61620000Y-10870000D02*
X61620000Y-9540000D01*
X62950000Y-10870000D02*
X61620000Y-10870000D01*
X64220000Y-8270000D02*
X61620000Y-8270000D01*
X64220000Y-10870000D02*
X64220000Y-8270000D01*
X71900000Y-5670000D02*
X61620000Y-5670000D01*
X71900000Y-10870000D02*
X64220000Y-10870000D01*
X71900000Y-10870000D02*
X71900000Y-5670000D01*
X42120000Y-8270000D02*
X42120000Y-5670000D01*
X42120000Y-10870000D02*
X42120000Y-9540000D01*
X43450000Y-10870000D02*
X42120000Y-10870000D01*
X44720000Y-8270000D02*
X42120000Y-8270000D01*
X44720000Y-10870000D02*
X44720000Y-8270000D01*
X52400000Y-5670000D02*
X42120000Y-5670000D01*
X52400000Y-10870000D02*
X44720000Y-10870000D01*
X52400000Y-10870000D02*
X52400000Y-5670000D01*
X3120000Y-8270000D02*
X3120000Y-5670000D01*
X3120000Y-10870000D02*
X3120000Y-9540000D01*
X4450000Y-10870000D02*
X3120000Y-10870000D01*
X5720000Y-8270000D02*
X3120000Y-8270000D01*
X5720000Y-10870000D02*
X5720000Y-8270000D01*
X13400000Y-5670000D02*
X3120000Y-5670000D01*
X13400000Y-10870000D02*
X5720000Y-10870000D01*
X13400000Y-10870000D02*
X13400000Y-5670000D01*
%LPC*%
D11*
X23950000Y-9540000D03*
D12*
X23950000Y-7000000D03*
X26490000Y-9540000D03*
X26490000Y-7000000D03*
X29030000Y-9540000D03*
X29030000Y-7000000D03*
X31570000Y-9540000D03*
X31570000Y-7000000D03*
D13*
X23815000Y-4210000D03*
X30165000Y-1670000D03*
D11*
X82450000Y-87540000D03*
D12*
X82450000Y-85000000D03*
X84990000Y-87540000D03*
X84990000Y-85000000D03*
X87530000Y-87540000D03*
X87530000Y-85000000D03*
X90070000Y-87540000D03*
X90070000Y-85000000D03*
D13*
X82315000Y-82210000D03*
X88665000Y-79670000D03*
D11*
X62950000Y-87540000D03*
D12*
X62950000Y-85000000D03*
X65490000Y-87540000D03*
X65490000Y-85000000D03*
X68030000Y-87540000D03*
X68030000Y-85000000D03*
X70570000Y-87540000D03*
X70570000Y-85000000D03*
D13*
X62815000Y-82210000D03*
X69165000Y-79670000D03*
D11*
X43450000Y-87540000D03*
D12*
X43450000Y-85000000D03*
X45990000Y-87540000D03*
X45990000Y-85000000D03*
X48530000Y-87540000D03*
X48530000Y-85000000D03*
X51070000Y-87540000D03*
X51070000Y-85000000D03*
D13*
X43315000Y-82210000D03*
X49665000Y-79670000D03*
D11*
X23950000Y-87540000D03*
D12*
X23950000Y-85000000D03*
X26490000Y-87540000D03*
X26490000Y-85000000D03*
X29030000Y-87540000D03*
X29030000Y-85000000D03*
X31570000Y-87540000D03*
X31570000Y-85000000D03*
D13*
X23815000Y-82210000D03*
X30165000Y-79670000D03*
D11*
X4450000Y-87540000D03*
D12*
X4450000Y-85000000D03*
X6990000Y-87540000D03*
X6990000Y-85000000D03*
X9530000Y-87540000D03*
X9530000Y-85000000D03*
X12070000Y-87540000D03*
X12070000Y-85000000D03*
D13*
X4315000Y-82210000D03*
X10665000Y-79670000D03*
D11*
X82450000Y-68040000D03*
D12*
X82450000Y-65500000D03*
X84990000Y-68040000D03*
X84990000Y-65500000D03*
X87530000Y-68040000D03*
X87530000Y-65500000D03*
X90070000Y-68040000D03*
X90070000Y-65500000D03*
D13*
X82315000Y-62710000D03*
X88665000Y-60170000D03*
D11*
X62950000Y-68040000D03*
D12*
X62950000Y-65500000D03*
X65490000Y-68040000D03*
X65490000Y-65500000D03*
X68030000Y-68040000D03*
X68030000Y-65500000D03*
X70570000Y-68040000D03*
X70570000Y-65500000D03*
D13*
X62815000Y-62710000D03*
X69165000Y-60170000D03*
D11*
X43450000Y-68040000D03*
D12*
X43450000Y-65500000D03*
X45990000Y-68040000D03*
X45990000Y-65500000D03*
X48530000Y-68040000D03*
X48530000Y-65500000D03*
X51070000Y-68040000D03*
X51070000Y-65500000D03*
D13*
X43315000Y-62710000D03*
X49665000Y-60170000D03*
D11*
X23950000Y-68040000D03*
D12*
X23950000Y-65500000D03*
X26490000Y-68040000D03*
X26490000Y-65500000D03*
X29030000Y-68040000D03*
X29030000Y-65500000D03*
X31570000Y-68040000D03*
X31570000Y-65500000D03*
D13*
X23815000Y-62710000D03*
X30165000Y-60170000D03*
D11*
X4450000Y-68040000D03*
D12*
X4450000Y-65500000D03*
X6990000Y-68040000D03*
X6990000Y-65500000D03*
X9530000Y-68040000D03*
X9530000Y-65500000D03*
X12070000Y-68040000D03*
X12070000Y-65500000D03*
D13*
X4315000Y-62710000D03*
X10665000Y-60170000D03*
D11*
X82450000Y-48540000D03*
D12*
X82450000Y-46000000D03*
X84990000Y-48540000D03*
X84990000Y-46000000D03*
X87530000Y-48540000D03*
X87530000Y-46000000D03*
X90070000Y-48540000D03*
X90070000Y-46000000D03*
D13*
X82315000Y-43210000D03*
X88665000Y-40670000D03*
D11*
X62950000Y-48540000D03*
D12*
X62950000Y-46000000D03*
X65490000Y-48540000D03*
X65490000Y-46000000D03*
X68030000Y-48540000D03*
X68030000Y-46000000D03*
X70570000Y-48540000D03*
X70570000Y-46000000D03*
D13*
X62815000Y-43210000D03*
X69165000Y-40670000D03*
D11*
X43450000Y-48540000D03*
D12*
X43450000Y-46000000D03*
X45990000Y-48540000D03*
X45990000Y-46000000D03*
X48530000Y-48540000D03*
X48530000Y-46000000D03*
X51070000Y-48540000D03*
X51070000Y-46000000D03*
D13*
X43315000Y-43210000D03*
X49665000Y-40670000D03*
D11*
X23950000Y-48540000D03*
D12*
X23950000Y-46000000D03*
X26490000Y-48540000D03*
X26490000Y-46000000D03*
X29030000Y-48540000D03*
X29030000Y-46000000D03*
X31570000Y-48540000D03*
X31570000Y-46000000D03*
D13*
X23815000Y-43210000D03*
X30165000Y-40670000D03*
D11*
X4450000Y-48540000D03*
D12*
X4450000Y-46000000D03*
X6990000Y-48540000D03*
X6990000Y-46000000D03*
X9530000Y-48540000D03*
X9530000Y-46000000D03*
X12070000Y-48540000D03*
X12070000Y-46000000D03*
D13*
X4315000Y-43210000D03*
X10665000Y-40670000D03*
D11*
X82450000Y-29040000D03*
D12*
X82450000Y-26500000D03*
X84990000Y-29040000D03*
X84990000Y-26500000D03*
X87530000Y-29040000D03*
X87530000Y-26500000D03*
X90070000Y-29040000D03*
X90070000Y-26500000D03*
D13*
X82315000Y-23710000D03*
X88665000Y-21170000D03*
D11*
X62950000Y-29040000D03*
D12*
X62950000Y-26500000D03*
X65490000Y-29040000D03*
X65490000Y-26500000D03*
X68030000Y-29040000D03*
X68030000Y-26500000D03*
X70570000Y-29040000D03*
X70570000Y-26500000D03*
D13*
X62815000Y-23710000D03*
X69165000Y-21170000D03*
D11*
X43450000Y-29040000D03*
D12*
X43450000Y-26500000D03*
X45990000Y-29040000D03*
X45990000Y-26500000D03*
X48530000Y-29040000D03*
X48530000Y-26500000D03*
X51070000Y-29040000D03*
X51070000Y-26500000D03*
D13*
X43315000Y-23710000D03*
X49665000Y-21170000D03*
D11*
X23950000Y-29040000D03*
D12*
X23950000Y-26500000D03*
X26490000Y-29040000D03*
X26490000Y-26500000D03*
X29030000Y-29040000D03*
X29030000Y-26500000D03*
X31570000Y-29040000D03*
X31570000Y-26500000D03*
D13*
X23815000Y-23710000D03*
X30165000Y-21170000D03*
D11*
X4450000Y-29040000D03*
D12*
X4450000Y-26500000D03*
X6990000Y-29040000D03*
X6990000Y-26500000D03*
X9530000Y-29040000D03*
X9530000Y-26500000D03*
X12070000Y-29040000D03*
X12070000Y-26500000D03*
D13*
X4315000Y-23710000D03*
X10665000Y-21170000D03*
D11*
X82450000Y-9540000D03*
D12*
X82450000Y-7000000D03*
X84990000Y-9540000D03*
X84990000Y-7000000D03*
X87530000Y-9540000D03*
X87530000Y-7000000D03*
X90070000Y-9540000D03*
X90070000Y-7000000D03*
D13*
X82315000Y-4210000D03*
X88665000Y-1670000D03*
D11*
X62950000Y-9540000D03*
D12*
X62950000Y-7000000D03*
X65490000Y-9540000D03*
X65490000Y-7000000D03*
X68030000Y-9540000D03*
X68030000Y-7000000D03*
X70570000Y-9540000D03*
X70570000Y-7000000D03*
D13*
X62815000Y-4210000D03*
X69165000Y-1670000D03*
D11*
X43450000Y-9540000D03*
D12*
X43450000Y-7000000D03*
X45990000Y-9540000D03*
X45990000Y-7000000D03*
X48530000Y-9540000D03*
X48530000Y-7000000D03*
X51070000Y-9540000D03*
X51070000Y-7000000D03*
D13*
X43315000Y-4210000D03*
X49665000Y-1670000D03*
X4315000Y-4210000D03*
X10665000Y-1670000D03*
D11*
X4450000Y-9540000D03*
D12*
X4450000Y-7000000D03*
X6990000Y-9540000D03*
X6990000Y-7000000D03*
X9530000Y-9540000D03*
X9530000Y-7000000D03*
X12070000Y-9540000D03*
X12070000Y-7000000D03*
D14*
X21000000Y-9750000D03*
X79500000Y-87750000D03*
X60000000Y-87750000D03*
X40500000Y-87750000D03*
X21000000Y-87750000D03*
X1500000Y-87750000D03*
X79500000Y-68250000D03*
X60000000Y-68250000D03*
X40500000Y-68250000D03*
X21000000Y-68250000D03*
X1500000Y-68250000D03*
X79500000Y-48750000D03*
X60000000Y-48750000D03*
X40500000Y-48750000D03*
X21000000Y-48750000D03*
X1500000Y-48750000D03*
X79500000Y-29250000D03*
X60000000Y-29250000D03*
X40500000Y-29250000D03*
X21000000Y-29250000D03*
X1500000Y-29250000D03*
X79500000Y-9750000D03*
X60000000Y-9750000D03*
X40500000Y-9750000D03*
X1500000Y-9750000D03*
%LPD*%
M02*
